<?xml version="1.0" encoding="utf-8"?>
<!-- Generator: Adobe Illustrator 24.0.2, SVG Export Plug-In . SVG Version: 6.00 Build 0)  -->
<svg version="1.1" id="Layer_1" xmlns="http://www.w3.org/2000/svg" xmlns:xlink="http://www.w3.org/1999/xlink" x="0px" y="0px"
	 viewBox="0 0 703 337.9" style="enable-background:new 0 0 703 337.9;" xml:space="preserve">
<style type="text/css">
	.st0{fill:url(#SVGID_1_);}
	.st1{fill:url(#SVGID_2_);}
	.st2{fill:url(#SVGID_3_);}
	.st3{fill:url(#SVGID_4_);}
	.st4{fill:url(#SVGID_5_);}
	.st5{fill:url(#SVGID_6_);}
	.st6{fill:url(#SVGID_7_);}
	.st7{fill:#B3B3B3;}
	.st8{fill:#CCCCCC;}
	.st9{opacity:0.2;enable-background:new    ;}
	.st10{fill:#FFFFFF;}
	.st11{fill:#EE8F39;}
</style>
<g>
	
		<linearGradient id="SVGID_1_" gradientUnits="userSpaceOnUse" x1="518.4307" y1="155.3094" x2="402.8973" y2="270.8426" gradientTransform="matrix(1 0 0 -1 0 340)">
		<stop  offset="0" style="stop-color:#FCAC21"/>
		<stop  offset="0.1828" style="stop-color:#EE8F39"/>
		<stop  offset="1" style="stop-color:#E6528B"/>
	</linearGradient>
	<path class="st0" d="M560.7,126.9c0,20.7-16.8,37.5-37.5,37.5h-125c-20.7,0-37.5-16.8-37.5-37.5l0,0c0-20.7,16.8-37.5,37.5-37.5
		h125C543.9,89.4,560.7,106.2,560.7,126.9L560.7,126.9z"/>
	
		<linearGradient id="SVGID_2_" gradientUnits="userSpaceOnUse" x1="624.2509" y1="244.8441" x2="545.1124" y2="323.9825" gradientTransform="matrix(1 0 0 -1 0 340)">
		<stop  offset="0" style="stop-color:#EC7F00"/>
		<stop  offset="1" style="stop-color:#EC7FFF"/>
	</linearGradient>
	<path class="st1" d="M621.8,29.8L621.8,29.8l-18.4-18.5c-0.1-0.1-0.2-0.3-0.3-0.4c-12.6-12.6-32.8-14.8-47.9-4.2
		C538.2,18.6,534.1,42,546,59l46.8,67.7l27.8-40.2C634,66.9,635.9,45.4,621.8,29.8z"/>
	
		<linearGradient id="SVGID_3_" gradientUnits="userSpaceOnUse" x1="647.856" y1="142.466" x2="550.981" y2="239.341" gradientTransform="matrix(1 0 0 -1 0 340)">
		<stop  offset="0" style="stop-color:#FCAC21"/>
		<stop  offset="0.1828" style="stop-color:#EE8F39"/>
		<stop  offset="1" style="stop-color:#E6528B"/>
	</linearGradient>
	<path class="st2" d="M691.8,99.7l-69.9-69.9l0,0c14.1,15.6,12.2,37.1-1.2,56.6l-27.8,40.2l-46.5,67.2c-11.9,17-7.8,40.3,9.2,52.2
		c15.1,10.6,35.4,8.5,48-4.2c0.1-0.1,0.2-0.2,0.3-0.3l18-18l70.4-70.4c2.2-2.2,4-4.6,5.6-7.1c0.1-0.1,0.2-0.3,0.3-0.4
		c0.1-0.1,0.2-0.3,0.2-0.4C706.4,130.8,704,112,691.8,99.7z"/>
	
		<linearGradient id="SVGID_4_" gradientUnits="userSpaceOnUse" x1="65.3165" y1="187.0595" x2="12.2835" y2="240.0925" gradientTransform="matrix(1 0 0 -1 0 340)">
		<stop  offset="0" style="stop-color:#FCAC21"/>
		<stop  offset="0.1828" style="stop-color:#EE8F39"/>
		<stop  offset="1" style="stop-color:#E6528B"/>
	</linearGradient>
	<circle class="st3" cx="38.8" cy="126.4" r="37.5"/>
	
		<linearGradient id="SVGID_5_" gradientUnits="userSpaceOnUse" x1="155.3165" y1="187.0595" x2="102.2835" y2="240.0925" gradientTransform="matrix(1 0 0 -1 0 340)">
		<stop  offset="0" style="stop-color:#FCAC21"/>
		<stop  offset="0.1828" style="stop-color:#EE8F39"/>
		<stop  offset="1" style="stop-color:#E6528B"/>
	</linearGradient>
	<circle class="st4" cx="128.8" cy="126.4" r="37.5"/>
	
		<linearGradient id="SVGID_6_" gradientUnits="userSpaceOnUse" x1="245.3165" y1="187.0595" x2="192.2835" y2="240.0925" gradientTransform="matrix(1 0 0 -1 0 340)">
		<stop  offset="0" style="stop-color:#FCAC21"/>
		<stop  offset="0.1828" style="stop-color:#EE8F39"/>
		<stop  offset="1" style="stop-color:#E6528B"/>
	</linearGradient>
	<circle class="st5" cx="218.8" cy="126.4" r="37.5"/>
	
		<linearGradient id="SVGID_7_" gradientUnits="userSpaceOnUse" x1="335.3165" y1="187.0595" x2="282.2835" y2="240.0925" gradientTransform="matrix(1 0 0 -1 0 340)">
		<stop  offset="0" style="stop-color:#FCAC21"/>
		<stop  offset="0.1828" style="stop-color:#EE8F39"/>
		<stop  offset="1" style="stop-color:#E6528B"/>
	</linearGradient>
	<circle class="st6" cx="308.8" cy="126.4" r="37.5"/>
	<g>
		<path class="st7" d="M28,248c-4.3,0-7.7-0.4-10.1-1.3c-2.4-0.9-4.2-2.4-5.2-4.6c-1-2.2-1.5-5.1-1.5-8.9v-20.3H0v-8.8h11.2v-12
			l11.4-5.1v17h15v8.8h-15v20.9c0,1.9,0.5,3.3,1.5,4.2s2.5,1.3,4.7,1.3h8.8v8.8L28,248L28,248z"/>
		<path class="st7" d="M62.7,249c-4.5,0-8.2-1.3-11-3.9c-2.8-2.6-4.2-6.3-4.2-11.2c0-3.1,0.6-5.6,1.7-7.5c1.1-1.9,2.6-3.4,4.5-4.5
			c1.9-1.1,4.1-1.8,6.5-2.2c2.4-0.4,5-0.6,7.6-0.6h7.9v-1.9c0-1.6-0.4-2.7-1.2-3.6c-0.8-0.8-1.9-1.4-3.2-1.6c-1.3-0.3-2.6-0.4-4-0.4
			c-2.8,0-5.4,0.4-7.9,1.1c-2.5,0.8-5.1,1.8-7.6,3.2v-9.8c2.7-1.1,5.4-1.9,8.1-2.4c2.7-0.5,5.4-0.7,8.1-0.7c4.8,0,8.6,0.7,11.4,2.1
			c2.8,1.4,4.8,3.5,6,6.3c1.2,2.9,1.8,6.5,1.8,10.9c0,1,0,2.3-0.1,3.9c0,1.6-0.1,3.2-0.1,4.8c0,1.4,0,2.7,0,4c0,1.3,0,2.3,0,3.2
			c0,0.8,0,1.7,0.1,2.9s0.3,2.4,0.5,3.7c0.3,1.3,0.7,2.3,1.3,3.1H77.6c-0.5-0.8-0.9-1.6-1.1-2.3c-0.2-0.7-0.4-1.6-0.5-2.5
			c-1.5,2.1-3.5,3.6-5.8,4.6S65.4,249,62.7,249z M66.5,241.1c2.4,0,4.3-0.7,5.6-2c1.3-1.3,2.3-3,2.9-5c0.6-2,0.8-4,0.8-6v-0.8h-4.6
			c-1.8,0-3.6,0.1-5.4,0.4c-1.8,0.2-3.2,0.9-4.4,1.8s-1.7,2.6-1.7,4.8c0,2.1,0.6,3.8,1.8,5C62.7,240.5,64.3,241.1,66.5,241.1z"/>
		<path class="st7" d="M120.9,249c-5.3,0-9.2-2.5-11.6-7.6l-1.1,6.5H97.9v-60.8h11.4v23.2c2.8-4.8,6.6-7.3,11.6-7.3
			c4.9,0,8.7,2,11.5,6.1c2.8,4.1,4.2,9.7,4.2,16.9s-1.4,12.8-4.2,16.9C129.7,246.9,125.8,249,120.9,249z M117.3,239.6
			c2.4,0,4.3-1.2,5.8-3.7c1.4-2.5,2.2-5.8,2.2-10c0-4.1-0.7-7.3-2.1-9.7c-1.4-2.4-3.3-3.6-5.7-3.6c-2.5,0-4.4,1.2-5.9,3.7
			c-1.5,2.5-2.2,5.7-2.2,9.8c0,4.1,0.7,7.4,2.2,9.8C112.9,238.4,114.8,239.6,117.3,239.6z"/>
		<path class="st7" d="M163.9,249c-4.9,0-10.4-0.9-16.4-2.7v-10c5.1,2.9,10.3,4.4,15.4,4.4c5.4,0,8-1.6,8-4.8c0-1.4-0.6-2.5-1.9-3.4
			c-1.3-0.9-3.5-1.6-6.5-2.3l-3.2-0.7c-8.4-1.9-12.6-6.2-12.6-12.9c0-4.3,1.6-7.7,4.7-10c3.1-2.4,7.6-3.5,13.5-3.5
			c2.3,0,4.6,0.2,6.8,0.6c2.3,0.4,4.6,1,7,1.8v10c-2.3-1.4-4.5-2.5-6.6-3.1c-2.1-0.6-4.3-1-6.5-1c-2.6,0-4.6,0.4-6,1.1
			c-1.4,0.8-2.1,1.8-2.1,3c0,1.2,0.7,2.2,2,3c1.3,0.8,3.4,1.6,6.4,2.3l3.7,0.9c4.2,1,7.2,2.6,9.2,4.8c1.9,2.2,2.9,5.1,2.9,8.7
			C181.8,244.4,175.9,249,163.9,249z"/>
		<path class="st8" d="M209.3,249c-5.8,0-10.5-1.7-14.1-5.1c-3.6-3.4-5.4-7.8-5.4-13.3c0-2,0.2-3.9,0.7-5.5c0.5-1.7,1.2-3.3,2.1-4.8
			c1.8-3.1,4.6-5.8,8.2-8.1c-0.7-1.1-1.3-2.1-1.8-3.1s-0.8-1.8-1.1-2.6c-0.6-1.7-0.9-3.4-0.9-5.1c0-4.1,1.4-7.2,4.3-9.5
			c2.9-2.3,7-3.4,12.3-3.4c1,0,1.9,0,2.9,0.1c0.9,0.1,1.8,0.2,2.7,0.3c1.9,0.3,3.7,0.7,5.4,1.3v10c-3.3-1.9-6.7-2.9-10.2-2.9
			c-2.1,0-3.6,0.4-4.7,1.1c-1.1,0.8-1.6,1.8-1.6,3.1c0,0.5,0.1,1.1,0.3,1.7c0.2,0.6,0.5,1.4,0.9,2.2c0.8,1.6,2.1,3.8,3.8,6.4
			l12.2,18.8c0.5-0.9,1-2.1,1.3-3.4c0.3-1.4,0.4-2.8,0.4-4.1c0-0.4,0-0.8,0-1.2c0-0.4,0-0.8-0.1-1.1c0-0.7-0.1-1.4-0.2-2.1h9.2v2
			c0,3.9-0.4,7.1-1.3,9.9c-0.9,2.9-2.3,5.4-4.2,7.6l6.3,9.6h-12.4l-1.9-2.8c-1,0.7-2,1.2-3,1.7c-1,0.5-2.1,0.9-3.2,1.2
			c-1.1,0.3-2.2,0.6-3.2,0.8C211.8,248.9,210.6,249,209.3,249z M211,239.8c0.6,0,1.4-0.1,2.2-0.3c0.4-0.1,0.7-0.2,1-0.3
			c0.3-0.1,0.7-0.2,1.2-0.4l0.3-0.2c0.5-0.3,0.9-0.4,1.1-0.5c0.2-0.1,0.4-0.3,0.8-0.5l-12-18.3c-1.7,1.1-3,2.4-3.9,4
			c-0.9,1.5-1.3,3.3-1.3,5.3c0,1.7,0.3,3.2,0.9,4.6c0.6,1.3,1.3,2.4,2.2,3.4C205.4,238.7,208,239.8,211,239.8z"/>
		<path class="st7" d="M260.3,249c-4.9,0-10.4-0.9-16.4-2.7v-10c5.1,2.9,10.3,4.4,15.4,4.4c5.4,0,8-1.6,8-4.8c0-1.4-0.6-2.5-1.9-3.4
			c-1.3-0.9-3.5-1.6-6.5-2.3l-3.2-0.7c-8.4-1.9-12.6-6.2-12.6-12.9c0-4.3,1.6-7.7,4.7-10c3.1-2.4,7.6-3.5,13.5-3.5
			c2.3,0,4.6,0.2,6.8,0.6c2.3,0.4,4.6,1,7,1.8v10c-2.3-1.4-4.5-2.5-6.6-3.1c-2.1-0.6-4.3-1-6.5-1c-2.6,0-4.6,0.4-6,1.1
			c-1.4,0.8-2.1,1.8-2.1,3c0,1.2,0.7,2.2,2,3c1.3,0.8,3.4,1.6,6.4,2.3l3.7,0.9c4.2,1,7.2,2.6,9.2,4.8c1.9,2.2,2.9,5.1,2.9,8.7
			C278.2,244.4,272.2,249,260.3,249z"/>
		<path class="st7" d="M290.5,204.1h10.3l1.1,6.6c2.4-5.1,6.3-7.6,11.6-7.6c4.9,0,8.8,2,11.6,6.1c2.8,4.1,4.2,9.7,4.2,16.9
			s-1.4,12.8-4.2,16.9c-2.8,4.1-6.6,6.1-11.5,6.1c-5.1,0-9-2.4-11.7-7.3v22.8h-11.4L290.5,204.1L290.5,204.1z M309.9,239.4
			c2.4,0,4.3-1.2,5.8-3.7c1.4-2.5,2.2-5.8,2.2-10c0-4.1-0.7-7.3-2.1-9.7c-1.4-2.4-3.3-3.6-5.7-3.6c-2.5,0-4.4,1.2-5.9,3.7
			c-1.5,2.5-2.2,5.7-2.2,9.8c0,4.1,0.7,7.4,2.2,9.8C305.6,238.2,307.5,239.4,309.9,239.4z"/>
		<path class="st7" d="M351.7,249c-4.5,0-8.2-1.3-11-3.9c-2.8-2.6-4.2-6.3-4.2-11.2c0-3.1,0.6-5.6,1.7-7.5c1.1-1.9,2.6-3.4,4.5-4.5
			c1.9-1.1,4.1-1.8,6.5-2.2c2.4-0.4,5-0.6,7.6-0.6h7.9v-1.9c0-1.6-0.4-2.7-1.2-3.6c-0.8-0.8-1.9-1.4-3.2-1.6c-1.3-0.3-2.6-0.4-4-0.4
			c-2.8,0-5.4,0.4-7.9,1.1c-2.5,0.8-5.1,1.8-7.6,3.2v-9.8c2.7-1.1,5.4-1.9,8.1-2.4c2.7-0.5,5.4-0.7,8.1-0.7c4.8,0,8.6,0.7,11.4,2.1
			c2.8,1.4,4.8,3.5,6,6.3c1.2,2.9,1.8,6.5,1.8,10.9c0,1,0,2.3-0.1,3.9c0,1.6-0.1,3.2-0.1,4.8c0,1.4,0,2.7,0,4c0,1.3,0,2.3,0,3.2
			c0,0.8,0,1.7,0.1,2.9s0.3,2.4,0.5,3.7c0.3,1.3,0.7,2.3,1.3,3.1h-11.3c-0.5-0.8-0.9-1.6-1.1-2.3c-0.2-0.7-0.4-1.6-0.5-2.5
			c-1.5,2.1-3.5,3.6-5.8,4.6S354.4,249,351.7,249z M355.5,241.1c2.4,0,4.3-0.7,5.6-2c1.3-1.3,2.3-3,2.9-5c0.6-2,0.8-4,0.8-6v-0.8
			h-4.6c-1.8,0-3.6,0.1-5.4,0.4c-1.8,0.2-3.2,0.9-4.4,1.8s-1.7,2.6-1.7,4.8c0,2.1,0.6,3.8,1.8,5
			C351.7,240.5,353.3,241.1,355.5,241.1z"/>
		<path class="st7" d="M408.7,249c-6.9,0-12.3-2-16.2-6.1c-3.8-4-5.8-9.7-5.8-16.9c0-7.2,1.9-12.9,5.7-17c3.8-4.1,9.1-6.1,15.9-6.1
			c4.6,0,9.1,1.1,13.3,3.4v10.5c-3.4-3-7.2-4.5-11.4-4.5c-3.8,0-6.8,1.2-8.8,3.6c-2,2.4-3,5.7-3,10.1c0,4.4,1,7.7,3,10.1
			c2,2.4,4.9,3.5,8.7,3.5c4.5,0,8.3-1.5,11.6-4.5v10.5C417.8,247.9,413.4,249,408.7,249z"/>
		<path class="st7" d="M455.4,249c-7.5,0-13.2-1.9-17.2-5.8c-3.9-3.9-5.9-9.5-5.9-16.9c0-4.7,0.8-8.7,2.4-12.2
			c1.6-3.5,4-6.2,7.2-8.1c3.2-1.9,7.2-2.9,12.1-2.9c4,0,7.4,0.9,10.4,2.8c2.9,1.9,5.2,4.4,6.8,7.7c1.6,3.3,2.4,7.1,2.4,11.5v4.6H444
			c0,6.8,4,10.2,12,10.2c5.2,0,10.5-1.6,15.9-4.7v10.5C466.5,247.9,461,249,455.4,249z M462.1,221.1c0-3-0.7-5.3-2.2-6.9
			c-1.5-1.5-3.6-2.3-6.4-2.3c-2.8,0-5,0.8-6.6,2.4c-1.6,1.6-2.5,3.9-2.8,6.8L462.1,221.1L462.1,221.1z"/>
		<path class="st7" d="M501.1,249c-4.9,0-10.4-0.9-16.4-2.7v-10c5.1,2.9,10.3,4.4,15.4,4.4c5.4,0,8-1.6,8-4.8c0-1.4-0.6-2.5-1.9-3.4
			c-1.3-0.9-3.5-1.6-6.5-2.3l-3.2-0.7c-8.4-1.9-12.6-6.2-12.6-12.9c0-4.3,1.6-7.7,4.7-10c3.1-2.4,7.6-3.5,13.5-3.5
			c2.3,0,4.6,0.2,6.8,0.6c2.3,0.4,4.6,1,7,1.8v10c-2.3-1.4-4.5-2.5-6.6-3.1c-2.1-0.6-4.3-1-6.5-1c-2.6,0-4.6,0.4-6,1.1
			c-1.4,0.8-2.1,1.8-2.1,3c0,1.2,0.7,2.2,2,3c1.3,0.8,3.4,1.6,6.4,2.3l3.7,0.9c4.2,1,7.2,2.6,9.2,4.8c1.9,2.2,2.9,5.1,2.9,8.7
			C519,244.4,513,249,501.1,249z"/>
	</g>
	<path class="st9" d="M621.8,29.8L621.8,29.8l-18.4-18.5c-0.1-0.1-0.2-0.3-0.3-0.4c-12.6-12.6-32.8-14.8-47.9-4.2
		C538.2,18.6,534.1,42,546,59l46.8,67.7l27.8-40.2C634,66.9,635.9,45.4,621.8,29.8z"/>
</g>
<g>
	<path class="st10" d="M8.9,308.6H1.1v-2.8H20v2.8h-7.8v22H8.9V308.6z"/>
	<path class="st10" d="M24,304.8h3.1v10c1.1-2.2,2.9-3.2,5.5-3.2c1.5,0,2.7,0.4,3.5,1.1c0.8,0.7,1.4,1.6,1.7,2.8
		c0.3,1.1,0.5,2.4,0.5,3.7v11.5h-3.1v-11.5c0-1.7-0.3-2.9-0.9-3.7c-0.6-0.8-1.5-1.2-2.7-1.2c-1.2,0-2,0.3-2.7,0.9
		c-0.6,0.6-1.1,1.3-1.4,2.2s-0.4,1.8-0.4,2.8v10.5H24L24,304.8L24,304.8z"/>
	<path class="st10" d="M52.5,331.1c-2.9,0-5.1-0.9-6.7-2.6s-2.4-4.1-2.4-7c0-1.8,0.3-3.5,1-5s1.6-2.7,2.9-3.6s2.9-1.3,4.7-1.3
		c2.5,0,4.4,0.8,5.8,2.4c1.4,1.6,2,3.8,2,6.6v1.5H46.5v0.1c0,1.9,0.5,3.5,1.5,4.6c1,1.1,2.5,1.7,4.5,1.7c1.2,0,2.3-0.2,3.3-0.5
		s2.1-0.8,3.1-1.3v3c-1.1,0.4-2.1,0.8-3.2,1S53.6,331.1,52.5,331.1z M56.7,319.7c0-1-0.2-2-0.5-2.8s-0.8-1.5-1.5-2s-1.6-0.7-2.7-0.7
		c-1.1,0-2.1,0.2-2.8,0.7c-0.8,0.5-1.4,1.2-1.8,2c-0.4,0.8-0.7,1.8-0.8,2.8L56.7,319.7L56.7,319.7z"/>
	<path class="st10" d="M95.6,330.7c-2.3,0-3.9-0.5-4.8-1.4c-0.9-0.9-1.4-2.5-1.4-4.7v-10.2h-5V312h5v-4.9l3.1-1.3v6.2h6.9v2.4h-6.9
		v10.2c0,1.4,0.3,2.3,0.8,2.9s1.4,0.8,2.7,0.8h3.4v2.4L95.6,330.7L95.6,330.7z"/>
	<path class="st10" d="M107.7,312h2.8l0.3,3.6c0.5-1.3,1.3-2.3,2.3-3c1-0.7,2.3-1.1,3.8-1.1c1.5,0,2.9,0.4,4,1.2v3.1
		c-1.2-1-2.6-1.5-4.3-1.5c-1.9,0-3.3,0.6-4.3,1.8s-1.5,2.9-1.5,5.2v9.2h-3.1L107.7,312L107.7,312z"/>
	<path class="st10" d="M132,331.1c-3.8,0-5.7-2.5-5.7-7.5V312h3.1v11.5c0,3.2,1.2,4.9,3.6,4.9c1.4,0,2.5-0.5,3.3-1.5
		c0.8-1,1.2-2.5,1.2-4.3V312h3.1v18.6h-2.8l-0.3-2.8C136.4,330,134.6,331.1,132,331.1z"/>
	<path class="st10" d="M157,330.7c-2.3,0-3.9-0.5-4.8-1.4c-0.9-0.9-1.4-2.5-1.4-4.7v-10.2h-5V312h5v-4.9l3.1-1.3v6.2h6.9v2.4h-6.9
		v10.2c0,1.4,0.3,2.3,0.8,2.9s1.4,0.8,2.7,0.8h3.4v2.4L157,330.7L157,330.7z"/>
	<path class="st10" d="M167.3,304.8h3.1v10c1.1-2.2,2.9-3.2,5.5-3.2c1.5,0,2.7,0.4,3.5,1.1c0.8,0.7,1.4,1.6,1.7,2.8
		c0.3,1.1,0.5,2.4,0.5,3.7v11.5h-3.1v-11.5c0-1.7-0.3-2.9-0.9-3.7c-0.6-0.8-1.5-1.2-2.7-1.2c-1.2,0-2.1,0.3-2.7,0.9
		c-0.6,0.6-1.1,1.3-1.4,2.2s-0.4,1.8-0.4,2.8v10.5h-3.1V304.8z"/>
	<path class="st10" d="M219.3,330.7c-1.8,0-3.2-0.6-4.2-1.8c-1-1.2-1.5-2.8-1.5-5v-9.6h-4.1V312h7.1v12c0,1.4,0.3,2.4,0.8,3.1
		c0.5,0.7,1.3,1.1,2.2,1.1h3.6v2.6H219.3z M213.7,308.6c-0.3,0-0.5-0.2-0.5-0.5v-2.9c0-0.3,0.2-0.5,0.5-0.5h2.4
		c0.3,0,0.5,0.2,0.5,0.5v2.9c0,0.3-0.2,0.5-0.5,0.5H213.7z"/>
	<path class="st10" d="M235.2,331.1c-1.8,0-3.9-0.4-6.2-1.2v-3.2c2.3,1.2,4.4,1.8,6.2,1.8c1.3,0,2.3-0.3,3.1-0.8
		c0.8-0.5,1.2-1.3,1.2-2.2c0-0.8-0.3-1.4-1-1.9s-1.7-0.9-3.1-1.2l-1.3-0.3c-1.7-0.4-3-0.9-3.8-1.8s-1.2-1.9-1.2-3.3
		c0-1.8,0.6-3.2,1.8-4.1c1.2-1,2.9-1.4,5.2-1.4c1.9,0,3.7,0.4,5.5,1.1v3c-1.7-1-3.6-1.5-5.4-1.5c-2.7,0-4,0.9-4,2.7
		c0,0.6,0.1,1.1,0.3,1.4s0.7,0.6,1.3,0.9c0.7,0.2,1.6,0.5,2.9,0.7l1.2,0.2c3.1,0.6,4.6,2.3,4.6,5c0,1.8-0.7,3.3-2,4.3
		C239.3,330.6,237.5,331.1,235.2,331.1z"/>
	<path class="st10" d="M269.5,335.1h1.8c0.9,0,1.6-0.3,2.1-0.8c0.5-0.6,1.2-1.9,2-4.1l-7.2-18.3h3.2l5.5,14.5l5.4-14.5h3.2
		l-4.9,12.6c-0.4,1-0.7,1.9-1,2.6c-0.1,0.2-0.2,0.4-0.2,0.5c0,0.1-0.1,0.3-0.2,0.5c-0.1,0.2-0.2,0.5-0.3,1l-0.2,0.5
		c-0.4,1.2-0.8,2.3-1.2,3.2s-0.7,1.6-1,2.1c-1,1.8-2.5,2.7-4.6,2.7h-2.5L269.5,335.1L269.5,335.1z"/>
	<path class="st10" d="M297.1,331.1c-2.6,0-4.6-0.8-5.9-2.5s-2-4.1-2-7.2c0-3.2,0.7-5.6,2.1-7.3c1.4-1.7,3.3-2.5,5.9-2.5
		c2.6,0,4.5,0.8,5.9,2.5s2,4.1,2,7.3c0,3.2-0.7,5.6-2,7.2C301.7,330.3,299.7,331.1,297.1,331.1z M297.1,328.5c1.5,0,2.7-0.6,3.5-1.9
		c0.8-1.2,1.2-3,1.2-5.3c0-2.3-0.4-4.1-1.2-5.3c-0.8-1.2-2-1.9-3.5-1.9c-1.5,0-2.7,0.6-3.5,1.9s-1.2,3-1.2,5.3
		c0,2.3,0.4,4.1,1.2,5.3C294.4,327.9,295.6,328.5,297.1,328.5z"/>
	<path class="st10" d="M316.2,331.1c-3.8,0-5.7-2.5-5.7-7.5V312h3.1v11.5c0,3.2,1.2,4.9,3.6,4.9c1.4,0,2.5-0.5,3.3-1.5
		c0.8-1,1.2-2.5,1.2-4.3V312h3.1v18.6H322l-0.3-2.8C320.6,330,318.8,331.1,316.2,331.1z"/>
	<path class="st10" d="M336.6,305.8h2.9v9.2h-2.9V305.8z"/>
	<path class="st10" d="M353.3,312h2.8l0.3,3.6c0.5-1.3,1.3-2.3,2.4-3c1-0.7,2.3-1.1,3.8-1.1c1.5,0,2.9,0.4,4,1.2v3.1
		c-1.2-1-2.6-1.5-4.3-1.5c-1.9,0-3.3,0.6-4.3,1.8s-1.5,2.9-1.5,5.2v9.2h-3.1L353.3,312L353.3,312z"/>
	<path class="st10" d="M380,331.1c-2.9,0-5.1-0.9-6.7-2.6c-1.6-1.7-2.4-4.1-2.4-7c0-1.8,0.3-3.5,1-5s1.6-2.7,2.9-3.6
		s2.9-1.3,4.7-1.3c2.5,0,4.4,0.8,5.8,2.4c1.4,1.6,2,3.8,2,6.6v1.5H374v0.1c0,1.9,0.5,3.5,1.5,4.6c1,1.1,2.5,1.7,4.5,1.7
		c1.2,0,2.3-0.2,3.3-0.5s2.1-0.8,3.1-1.3v3c-1.1,0.4-2.1,0.8-3.2,1S381.1,331.1,380,331.1z M384.2,319.7c0-1-0.2-2-0.5-2.8
		s-0.8-1.5-1.5-2c-0.7-0.5-1.6-0.7-2.7-0.7c-1.1,0-2.1,0.2-2.8,0.7c-0.8,0.5-1.4,1.2-1.8,2c-0.4,0.8-0.7,1.8-0.8,2.8L384.2,319.7
		L384.2,319.7z"/>
	<path class="st10" d="M418.1,331.1c-1.8,0-3.3-0.5-4.4-1.6c-1.2-1-1.8-2.5-1.8-4.5c0-1.6,0.4-2.9,1.2-3.8c0.8-0.9,1.8-1.5,3-1.9
		s2.6-0.5,4-0.5h4.1v-0.5c0-1.6-0.4-2.7-1.2-3.3c-0.8-0.6-1.9-0.9-3.4-0.9c-1.1,0-2.2,0.2-3.3,0.5c-1.1,0.3-2.1,0.7-3,1.3v-3.1
		c1-0.4,2-0.7,3.1-0.9c1-0.2,2.1-0.4,3.2-0.4c1.1,0,2.2,0.2,3.2,0.5c1,0.3,2,0.8,2.7,1.5c0.8,0.7,1.3,1.6,1.5,2.8
		c0.2,0.8,0.3,2.1,0.3,3.7v3.8c0,1,0.1,2.2,0.2,3.5s0.4,2.4,0.8,3.4h-3.1c-0.2-0.4-0.3-0.9-0.4-1.4c-0.1-0.5-0.2-1-0.3-1.4
		c-0.7,1.1-1.6,1.9-2.7,2.5C420.7,330.8,419.4,331.1,418.1,331.1z M418.9,328.5c1.3,0,2.3-0.3,3.1-0.9c0.8-0.6,1.4-1.4,1.7-2.4
		c0.4-1,0.5-2.1,0.5-3.2v-0.7h-3.9c-0.9,0-1.7,0.1-2.5,0.3c-0.8,0.2-1.5,0.6-2,1.1c-0.5,0.5-0.8,1.3-0.8,2.4c0,1.2,0.4,2.1,1.1,2.6
		S417.7,328.5,418.9,328.5z"/>
	<path class="st10" d="M443.8,330.7c-1.8,0-3.2-0.6-4.2-1.8c-1-1.2-1.5-2.8-1.5-5v-16.8h-4.9v-2.4h8V324c0,1.4,0.3,2.4,0.8,3.1
		c0.5,0.7,1.3,1.1,2.2,1.1h3.6v2.6H443.8z"/>
	<path class="st10" d="M450.6,312h3l3.2,15l2.7-9.6h2.6l2.7,9.6l3.2-15h3l-4.4,18.6h-2.9l-3-10.2l-3,10.2H455L450.6,312z"/>
	<path class="st10" d="M479.6,331.1c-1.8,0-3.3-0.5-4.4-1.6c-1.2-1-1.8-2.5-1.8-4.5c0-1.6,0.4-2.9,1.2-3.8c0.8-0.9,1.8-1.5,3-1.9
		s2.6-0.5,4-0.5h4.1v-0.5c0-1.6-0.4-2.7-1.2-3.3c-0.8-0.6-1.9-0.9-3.4-0.9c-1.1,0-2.2,0.2-3.3,0.5c-1.1,0.3-2.1,0.7-3,1.3v-3.1
		c1-0.4,2-0.7,3.1-0.9c1-0.2,2.1-0.4,3.2-0.4c1.1,0,2.2,0.2,3.2,0.5c1,0.3,2,0.8,2.7,1.5c0.8,0.7,1.3,1.6,1.5,2.8
		c0.2,0.8,0.3,2.1,0.3,3.7v3.8c0,1,0.1,2.2,0.2,3.5c0.1,1.3,0.4,2.4,0.8,3.4h-3.1c-0.2-0.4-0.3-0.9-0.4-1.4c-0.1-0.5-0.2-1-0.3-1.4
		c-0.7,1.1-1.6,1.9-2.7,2.5C482.1,330.8,480.8,331.1,479.6,331.1z M480.3,328.5c1.3,0,2.3-0.3,3.1-0.9c0.8-0.6,1.4-1.4,1.7-2.4
		c0.4-1,0.5-2.1,0.5-3.2v-0.7h-3.9c-0.9,0-1.7,0.1-2.5,0.3c-0.8,0.2-1.5,0.6-2,1.1s-0.8,1.3-0.8,2.4c0,1.2,0.4,2.1,1.1,2.6
		S479.2,328.5,480.3,328.5z"/>
	<path class="st10" d="M494.6,335.1h1.8c0.9,0,1.6-0.3,2.1-0.8c0.5-0.6,1.2-1.9,2-4.1l-7.2-18.3h3.2l5.5,14.5l5.4-14.5h3.2
		l-4.9,12.6c-0.4,1-0.7,1.9-1,2.6c-0.1,0.2-0.2,0.4-0.2,0.5c-0.1,0.1-0.1,0.3-0.2,0.5s-0.2,0.5-0.3,1l-0.2,0.5
		c-0.4,1.2-0.8,2.3-1.2,3.2c-0.4,0.9-0.7,1.6-1,2.1c-1,1.8-2.5,2.7-4.6,2.7h-2.5V335.1z"/>
	<path class="st10" d="M521.8,331.1c-1.8,0-3.9-0.4-6.2-1.2v-3.2c2.3,1.2,4.4,1.8,6.2,1.8c1.3,0,2.3-0.3,3.1-0.8
		c0.8-0.5,1.2-1.3,1.2-2.2c0-0.8-0.3-1.4-1-1.9c-0.6-0.5-1.7-0.9-3.1-1.2l-1.3-0.3c-1.7-0.4-3-0.9-3.8-1.8c-0.8-0.8-1.2-1.9-1.2-3.3
		c0-1.8,0.6-3.2,1.8-4.1s2.9-1.4,5.2-1.4c1.9,0,3.7,0.4,5.5,1.1v3c-1.7-1-3.6-1.5-5.4-1.5c-2.7,0-4,0.9-4,2.7c0,0.6,0.1,1.1,0.3,1.4
		s0.7,0.6,1.3,0.9c0.7,0.2,1.6,0.5,2.9,0.7l1.2,0.2c3.1,0.6,4.6,2.3,4.6,5c0,1.8-0.7,3.3-2,4.3C525.9,330.6,524.1,331.1,521.8,331.1
		z"/>
	<path class="st10" d="M553,312h3l3.2,15l2.7-9.6h2.6l2.7,9.6l3.2-15h3l-4.3,18.6h-2.9l-3-10.2l-3,10.2h-2.9L553,312z"/>
	<path class="st10" d="M578.5,312h2.8l0.3,3.6c0.5-1.3,1.3-2.3,2.3-3c1-0.7,2.3-1.1,3.8-1.1c1.5,0,2.9,0.4,4,1.2v3.1
		c-1.2-1-2.6-1.5-4.3-1.5c-1.9,0-3.3,0.6-4.3,1.8s-1.5,2.9-1.5,5.2v9.2h-3.1V312z"/>
	<path class="st10" d="M604.2,331.1c-2.6,0-4.6-0.8-5.9-2.5s-2-4.1-2-7.2c0-3.2,0.7-5.6,2.1-7.3c1.4-1.7,3.3-2.5,5.9-2.5
		s4.5,0.8,5.9,2.5s2.1,4.1,2.1,7.3c0,3.2-0.7,5.6-2,7.2C608.7,330.3,606.8,331.1,604.2,331.1z M604.2,328.5c1.5,0,2.7-0.6,3.5-1.9
		c0.8-1.2,1.2-3,1.2-5.3c0-2.3-0.4-4.1-1.2-5.3c-0.8-1.2-2-1.9-3.5-1.9c-1.5,0-2.7,0.6-3.5,1.9c-0.8,1.2-1.2,3-1.2,5.3
		c0,2.3,0.4,4.1,1.2,5.3C601.5,327.9,602.7,328.5,604.2,328.5z"/>
	<path class="st10" d="M617.6,312h2.8l0.3,2.8c1.1-2.2,2.9-3.2,5.5-3.2c3.8,0,5.7,2.5,5.7,7.5v11.5h-3.1v-11.5
		c0-1.7-0.3-2.9-0.9-3.7c-0.6-0.8-1.5-1.2-2.7-1.2c-1.5,0-2.6,0.5-3.3,1.5c-0.8,1-1.2,2.5-1.2,4.3v10.5h-3.1L617.6,312L617.6,312z"
		/>
	<path class="st10" d="M644.8,337.9c-0.9,0-1.8-0.1-2.7-0.2s-1.8-0.4-2.7-0.7v-3c0.8,0.4,1.7,0.7,2.7,1s1.9,0.4,2.9,0.4
		c1.2,0,2.1-0.2,2.8-0.7c0.7-0.5,1.1-1.1,1.4-2c0.3-0.8,0.4-1.8,0.4-2.9v-2.2c-0.5,1.1-1.2,1.8-2,2.3c-0.9,0.5-1.9,0.7-3,0.7
		c-1.3,0-2.4-0.3-3.4-0.8s-1.7-1.3-2.2-2.3c-0.6-0.9-1-2-1.2-3.1c-0.3-1.1-0.4-2.3-0.4-3.4s0.1-2.3,0.4-3.4c0.3-1.1,0.7-2.2,1.2-3.1
		s1.3-1.7,2.2-2.3s2.1-0.8,3.4-0.8c1.1,0,2.1,0.2,2.9,0.7s1.5,1.2,2.1,2.2l0.3-2.4h2.8v17.3c0,2.6-0.6,4.7-1.9,6.2
		S647.6,337.9,644.8,337.9z M645.2,328.2c1.4,0,2.5-0.6,3.3-1.8c0.7-1.2,1.1-3,1.1-5.3c0-0.7-0.1-1.5-0.2-2.3
		c-0.1-0.8-0.3-1.6-0.6-2.3c-0.3-0.7-0.8-1.3-1.3-1.7c-0.6-0.4-1.4-0.7-2.3-0.7c-1.5,0-2.6,0.6-3.4,1.8c-0.8,1.2-1.2,2.9-1.2,5.2
		c0,2.3,0.4,4.1,1.2,5.3C642.6,327.6,643.7,328.2,645.2,328.2z"/>
</g>
<rect x="515.5" y="273.5" class="st11" width="188" height="16"/>
<rect x="1.5" y="273.5" class="st11" width="370" height="16"/>
<g>
	<path class="st7" d="M380,273.1h4.1l0.5,2.6c1-2,2.5-3.1,4.7-3.1c2,0,3.5,0.8,4.6,2.5c1.1,1.6,1.7,3.9,1.7,6.8s-0.6,5.1-1.7,6.8
		c-1.1,1.6-2.7,2.4-4.6,2.4c-2.1,0-3.6-1-4.7-2.9v9.1H380L380,273.1L380,273.1z M387.8,287.2c1,0,1.7-0.5,2.3-1.5
		c0.6-1,0.9-2.3,0.9-4c0-1.6-0.3-2.9-0.8-3.9s-1.3-1.4-2.3-1.4c-1,0-1.8,0.5-2.4,1.5c-0.6,1-0.9,2.3-0.9,3.9s0.3,3,0.9,3.9
		C386,286.7,386.8,287.2,387.8,287.2z"/>
	<path class="st7" d="M406.6,291c-1.7,0-3.1-0.4-4.3-1.1c-1.2-0.7-2.2-1.8-2.8-3.2c-0.7-1.4-1-3-1-4.9s0.3-3.5,1-4.9
		c0.7-1.4,1.6-2.4,2.8-3.2s2.7-1.1,4.4-1.1c1.7,0,3.1,0.4,4.3,1.1c1.2,0.7,2.1,1.8,2.8,3.2c0.7,1.4,1,3,1,4.9c0,1.9-0.3,3.6-1,4.9
		s-1.6,2.5-2.8,3.2C409.7,290.7,408.3,291,406.6,291z M406.6,287.3c1.1,0,1.9-0.5,2.6-1.5s1-2.3,1-4c0-1.7-0.3-3-1-4
		c-0.6-1-1.5-1.5-2.6-1.5c-1.1,0-1.9,0.5-2.6,1.5c-0.6,1-1,2.3-1,4s0.3,3,1,4S405.5,287.3,406.6,287.3z"/>
	<path class="st7" d="M424,291c-2,0-3.5-0.8-4.6-2.5s-1.7-3.9-1.7-6.7c0-2.9,0.6-5.2,1.7-6.8s2.7-2.4,4.7-2.4c2,0,3.5,1,4.6,2.9
		v-9.3h4.6v24.4h-4.1l-0.5-2.6C427.7,290,426.1,291,424,291z M425.4,287.3c1,0,1.7-0.5,2.3-1.5c0.6-1,0.9-2.3,0.9-3.9
		s-0.3-3-0.9-3.9c-0.6-1-1.4-1.5-2.4-1.5c-1,0-1.7,0.5-2.3,1.4c-0.6,1-0.8,2.3-0.8,3.9c0,1.7,0.3,3,0.9,4
		C423.7,286.8,424.5,287.3,425.4,287.3z"/>
	<path class="st7" d="M446.7,291c-2.8,0-4.9-0.8-6.5-2.4c-1.5-1.6-2.3-3.9-2.3-6.8c0-2.9,0.8-5.2,2.3-6.8c1.5-1.6,3.6-2.5,6.4-2.5
		c1.9,0,3.6,0.4,5.3,1.3v4.2c-1.4-1.2-2.9-1.8-4.6-1.8c-1.5,0-2.7,0.5-3.5,1.4c-0.8,1-1.2,2.3-1.2,4.1c0,1.7,0.4,3.1,1.2,4
		c0.8,0.9,2,1.4,3.5,1.4c1.8,0,3.3-0.6,4.7-1.8v4.2C450.3,290.6,448.6,291,446.7,291z"/>
	<path class="st7" d="M462.5,291c-1.8,0-3.3-0.5-4.4-1.6c-1.1-1-1.7-2.5-1.7-4.5c0-1.2,0.2-2.2,0.7-3c0.4-0.8,1-1.4,1.8-1.8
		c0.8-0.4,1.6-0.7,2.6-0.9c1-0.2,2-0.2,3.1-0.2h3.2v-0.8c0-0.6-0.2-1.1-0.5-1.4c-0.3-0.3-0.8-0.5-1.3-0.7c-0.5-0.1-1-0.2-1.6-0.2
		c-1.1,0-2.2,0.2-3.2,0.5c-1,0.3-2,0.7-3,1.3v-3.9c1.1-0.4,2.2-0.8,3.2-0.9s2.2-0.3,3.2-0.3c1.9,0,3.4,0.3,4.6,0.8
		c1.1,0.5,1.9,1.4,2.4,2.5c0.5,1.1,0.7,2.6,0.7,4.4c0,0.4,0,0.9,0,1.6s0,1.3,0,1.9c0,0.6,0,1.1,0,1.6c0,0.5,0,0.9,0,1.3
		c0,0.3,0,0.7,0,1.2c0,0.5,0.1,1,0.2,1.5c0.1,0.5,0.3,0.9,0.5,1.3h-4.5c-0.2-0.3-0.3-0.6-0.4-0.9c-0.1-0.3-0.2-0.6-0.2-1
		c-0.6,0.8-1.4,1.4-2.3,1.8C464.6,290.9,463.5,291,462.5,291z M464,287.9c1,0,1.7-0.3,2.2-0.8c0.5-0.5,0.9-1.2,1.1-2
		s0.3-1.6,0.3-2.4v-0.3h-1.8c-0.7,0-1.4,0-2.1,0.1c-0.7,0.1-1.3,0.3-1.8,0.7c-0.5,0.4-0.7,1-0.7,1.9c0,0.9,0.2,1.5,0.7,2
		C462.4,287.6,463.1,287.9,464,287.9z"/>
	<path class="st7" d="M483.7,291c-2,0-4.2-0.4-6.6-1.1v-4c2.1,1.2,4.1,1.8,6.2,1.8c2.1,0,3.2-0.6,3.2-1.9c0-0.6-0.3-1-0.8-1.4
		s-1.4-0.6-2.6-0.9l-1.3-0.3c-3.4-0.8-5-2.5-5-5.2c0-1.7,0.6-3.1,1.9-4c1.2-0.9,3.1-1.4,5.4-1.4c0.9,0,1.8,0.1,2.7,0.2
		c0.9,0.2,1.8,0.4,2.8,0.7v4c-0.9-0.6-1.8-1-2.6-1.3c-0.8-0.3-1.7-0.4-2.6-0.4c-1,0-1.8,0.2-2.4,0.5c-0.6,0.3-0.8,0.7-0.8,1.2
		c0,0.5,0.3,0.9,0.8,1.2c0.5,0.3,1.4,0.6,2.6,0.9l1.5,0.4c1.7,0.4,2.9,1,3.7,1.9s1.2,2,1.2,3.5C490.9,289.2,488.5,291,483.7,291z"/>
	<path class="st7" d="M506.5,290.7c-1.7,0-3.1-0.2-4.1-0.5c-1-0.4-1.7-1-2.1-1.8c-0.4-0.9-0.6-2.1-0.6-3.6v-8.1h-4.5v-3.5h4.5v-4.8
		l4.6-2v6.8h6v3.5h-6v8.4c0,0.8,0.2,1.3,0.6,1.7c0.4,0.3,1,0.5,1.9,0.5h3.5v3.5H506.5z"/>
</g>
</svg>
