<?xml version="1.0" encoding="UTF-8"?>
<!-- Generator: Adobe Illustrator 24.0.2, SVG Export Plug-In . SVG Version: 6.00 Build 0)  -->
<svg enable-background="new 0 0 703 337.9" version="1.1" viewBox="0 0 703 337.9" xml:space="preserve" xmlns="http://www.w3.org/2000/svg" xmlns:cc="http://creativecommons.org/ns#" xmlns:dc="http://purl.org/dc/elements/1.1/" xmlns:rdf="http://www.w3.org/1999/02/22-rdf-syntax-ns#"><metadata><rdf:RDF><cc:Work rdf:about=""><dc:format>image/svg+xml</dc:format><dc:type rdf:resource="http://purl.org/dc/dcmitype/StillImage"/><dc:title/></cc:Work></rdf:RDF></metadata>
<g>
	
	<linearGradient id="SVGID_1_" x1="518.43" x2="402.9" y1="155.31" y2="270.84" gradientTransform="matrix(1 0 0 -1 0 340)" gradientUnits="userSpaceOnUse">
		<stop stop-color="#FCAC21" offset="0"/>
		<stop stop-color="#EE8F39" offset=".1828"/>
		<stop stop-color="#E6528B" offset="1"/>
	</linearGradient>

	<linearGradient id="SVGID_2_" x1="624.25" x2="545.11" y1="244.84" y2="323.98" gradientTransform="matrix(1 0 0 -1 0 340)" gradientUnits="userSpaceOnUse">
		<stop stop-color="#EC7F00" offset="0"/>
		<stop stop-color="#EC7FFF" offset="1"/>
	</linearGradient>

	<linearGradient id="SVGID_3_" x1="647.86" x2="550.98" y1="142.47" y2="239.34" gradientTransform="matrix(1 0 0 -1 0 340)" gradientUnits="userSpaceOnUse">
		<stop stop-color="#FCAC21" offset="0"/>
		<stop stop-color="#EE8F39" offset=".1828"/>
		<stop stop-color="#E6528B" offset="1"/>
	</linearGradient>

	<linearGradient id="SVGID_4_" x1="65.316" x2="12.284" y1="187.06" y2="240.09" gradientTransform="matrix(1 0 0 -1 0 340)" gradientUnits="userSpaceOnUse">
		<stop stop-color="#FCAC21" offset="0"/>
		<stop stop-color="#EE8F39" offset=".1828"/>
		<stop stop-color="#E6528B" offset="1"/>
	</linearGradient>

	<linearGradient id="SVGID_5_" x1="155.32" x2="102.28" y1="187.06" y2="240.09" gradientTransform="matrix(1 0 0 -1 0 340)" gradientUnits="userSpaceOnUse">
		<stop stop-color="#FCAC21" offset="0"/>
		<stop stop-color="#EE8F39" offset=".1828"/>
		<stop stop-color="#E6528B" offset="1"/>
	</linearGradient>

	<linearGradient id="SVGID_6_" x1="245.32" x2="192.28" y1="187.06" y2="240.09" gradientTransform="matrix(1 0 0 -1 0 340)" gradientUnits="userSpaceOnUse">
		<stop stop-color="#FCAC21" offset="0"/>
		<stop stop-color="#EE8F39" offset=".1828"/>
		<stop stop-color="#E6528B" offset="1"/>
	</linearGradient>

	<linearGradient id="SVGID_7_" x1="335.32" x2="282.28" y1="187.06" y2="240.09" gradientTransform="matrix(1 0 0 -1 0 340)" gradientUnits="userSpaceOnUse">
		<stop stop-color="#FCAC21" offset="0"/>
		<stop stop-color="#EE8F39" offset=".1828"/>
		<stop stop-color="#E6528B" offset="1"/>
	</linearGradient>

	<path fill="url('#SVGID_1_')" d="m560.7 126.9c0 20.7-16.8 37.5-37.5 37.5h-125c-20.7 0-37.5-16.8-37.5-37.5s16.8-37.5 37.5-37.5h125c20.7 0 37.5 16.8 37.5 37.5z"/>
	<path fill="url('#SVGID_2_')" d="m621.8 29.8-18.4-18.5c-0.1-0.1-0.2-0.3-0.3-0.4-12.6-12.6-32.8-14.8-47.9-4.2-17 11.9-21.1 35.3-9.2 52.3l46.8 67.7 27.8-40.2c13.4-19.6 15.3-41.1 1.2-56.7z"/>
	<path fill="url('#SVGID_3_')" d="m691.8 99.7-69.9-69.9c14.1 15.6 12.2 37.1-1.2 56.6l-27.8 40.2-46.5 67.2c-11.9 17-7.8 40.3 9.2 52.2 15.1 10.6 35.4 8.5 48-4.2l88.7-88.7c2.2-2.2 4-4.6 5.6-7.1 0.1-0.1 0.2-0.3 0.3-0.4s0.2-0.3 0.2-0.4c8-14.4 5.6-33.2-6.6-45.5z"/>
	<circle fill="url('#SVGID_4_')" cx="38.8" cy="126.4" r="37.5"/>
	<circle fill="url('#SVGID_5_')" cx="128.8" cy="126.4" r="37.5"/>
	<circle fill="url('#SVGID_6_')" cx="218.8" cy="126.4" r="37.5"/>
	
	
	<circle fill="url('#SVGID_7_')" cx="308.8" cy="126.4" r="37.5"/>
	<g>
		<path fill="#B3B3B3" d="m28 248c-4.3 0-7.7-0.4-10.1-1.3s-4.2-2.4-5.2-4.6-1.5-5.1-1.5-8.9v-20.3h-11.2v-8.8h11.2v-12l11.4-5.1v17h15v8.8h-15v20.9c0 1.9 0.5 3.3 1.5 4.2s2.5 1.3 4.7 1.3h8.8v8.8h-9.6z"/>
		<path fill="#B3B3B3" d="m62.7 249c-4.5 0-8.2-1.3-11-3.9s-4.2-6.3-4.2-11.2c0-3.1 0.6-5.6 1.7-7.5s2.6-3.4 4.5-4.5 4.1-1.8 6.5-2.2 5-0.6 7.6-0.6h7.9v-1.9c0-1.6-0.4-2.7-1.2-3.6-0.8-0.8-1.9-1.4-3.2-1.6-1.3-0.3-2.6-0.4-4-0.4-2.8 0-5.4 0.4-7.9 1.1-2.5 0.8-5.1 1.8-7.6 3.2v-9.8c2.7-1.1 5.4-1.9 8.1-2.4s5.4-0.7 8.1-0.7c4.8 0 8.6 0.7 11.4 2.1s4.8 3.5 6 6.3c1.2 2.9 1.8 6.5 1.8 10.9 0 1 0 2.3-0.1 3.9 0 1.6-0.1 3.2-0.1 4.8v4 3.2c0 0.8 0 1.7 0.1 2.9s0.3 2.4 0.5 3.7c0.3 1.3 0.7 2.3 1.3 3.1h-11.3c-0.5-0.8-0.9-1.6-1.1-2.3s-0.4-1.6-0.5-2.5c-1.5 2.1-3.5 3.6-5.8 4.6s-4.8 1.3-7.5 1.3zm3.8-7.9c2.4 0 4.3-0.7 5.6-2s2.3-3 2.9-5 0.8-4 0.8-6v-0.8h-4.6c-1.8 0-3.6 0.1-5.4 0.4-1.8 0.2-3.2 0.9-4.4 1.8s-1.7 2.6-1.7 4.8c0 2.1 0.6 3.8 1.8 5s2.8 1.8 5 1.8z"/>
		<path fill="#B3B3B3" d="m120.9 249c-5.3 0-9.2-2.5-11.6-7.6l-1.1 6.5h-10.3v-60.8h11.4v23.2c2.8-4.8 6.6-7.3 11.6-7.3 4.9 0 8.7 2 11.5 6.1s4.2 9.7 4.2 16.9-1.4 12.8-4.2 16.9c-2.7 4-6.6 6.1-11.5 6.1zm-3.6-9.4c2.4 0 4.3-1.2 5.8-3.7 1.4-2.5 2.2-5.8 2.2-10 0-4.1-0.7-7.3-2.1-9.7s-3.3-3.6-5.7-3.6c-2.5 0-4.4 1.2-5.9 3.7s-2.2 5.7-2.2 9.8 0.7 7.4 2.2 9.8c1.3 2.5 3.2 3.7 5.7 3.7z"/>
		<path fill="#B3B3B3" d="m163.9 249c-4.9 0-10.4-0.9-16.4-2.7v-10c5.1 2.9 10.3 4.4 15.4 4.4 5.4 0 8-1.6 8-4.8 0-1.4-0.6-2.5-1.9-3.4s-3.5-1.6-6.5-2.3l-3.2-0.7c-8.4-1.9-12.6-6.2-12.6-12.9 0-4.3 1.6-7.7 4.7-10 3.1-2.4 7.6-3.5 13.5-3.5 2.3 0 4.6 0.2 6.8 0.6 2.3 0.4 4.6 1 7 1.8v10c-2.3-1.4-4.5-2.5-6.6-3.1s-4.3-1-6.5-1c-2.6 0-4.6 0.4-6 1.1-1.4 0.8-2.1 1.8-2.1 3s0.7 2.2 2 3 3.4 1.6 6.4 2.3l3.7 0.9c4.2 1 7.2 2.6 9.2 4.8 1.9 2.2 2.9 5.1 2.9 8.7 0.1 9.2-5.8 13.8-17.8 13.8z"/>
		<path fill="#CCCCCC" d="m209.3 249c-5.8 0-10.5-1.7-14.1-5.1s-5.4-7.8-5.4-13.3c0-2 0.2-3.9 0.7-5.5 0.5-1.7 1.2-3.3 2.1-4.8 1.8-3.1 4.6-5.8 8.2-8.1-0.7-1.1-1.3-2.1-1.8-3.1s-0.8-1.8-1.1-2.6c-0.6-1.7-0.9-3.4-0.9-5.1 0-4.1 1.4-7.2 4.3-9.5s7-3.4 12.3-3.4c1 0 1.9 0 2.9 0.1 0.9 0.1 1.8 0.2 2.7 0.3 1.9 0.3 3.7 0.7 5.4 1.3v10c-3.3-1.9-6.7-2.9-10.2-2.9-2.1 0-3.6 0.4-4.7 1.1-1.1 0.8-1.6 1.8-1.6 3.1 0 0.5 0.1 1.1 0.3 1.7s0.5 1.4 0.9 2.2c0.8 1.6 2.1 3.8 3.8 6.4l12.2 18.8c0.5-0.9 1-2.1 1.3-3.4 0.3-1.4 0.4-2.8 0.4-4.1v-1.2c0-0.4 0-0.8-0.1-1.1 0-0.7-0.1-1.4-0.2-2.1h9.2v2c0 3.9-0.4 7.1-1.3 9.9-0.9 2.9-2.3 5.4-4.2 7.6l6.3 9.6h-12.4l-1.9-2.8c-1 0.7-2 1.2-3 1.7s-2.1 0.9-3.2 1.2-2.2 0.6-3.2 0.8c-1.2 0.2-2.4 0.3-3.7 0.3zm1.7-9.2c0.6 0 1.4-0.1 2.2-0.3 0.4-0.1 0.7-0.2 1-0.3s0.7-0.2 1.2-0.4l0.3-0.2c0.5-0.3 0.9-0.4 1.1-0.5s0.4-0.3 0.8-0.5l-12-18.3c-1.7 1.1-3 2.4-3.9 4-0.9 1.5-1.3 3.3-1.3 5.3 0 1.7 0.3 3.2 0.9 4.6 0.6 1.3 1.3 2.4 2.2 3.4 1.9 2.1 4.5 3.2 7.5 3.2z"/>
		<path fill="#B3B3B3" d="m260.3 249c-4.9 0-10.4-0.9-16.4-2.7v-10c5.1 2.9 10.3 4.4 15.4 4.4 5.4 0 8-1.6 8-4.8 0-1.4-0.6-2.5-1.9-3.4s-3.5-1.6-6.5-2.3l-3.2-0.7c-8.4-1.9-12.6-6.2-12.6-12.9 0-4.3 1.6-7.7 4.7-10 3.1-2.4 7.6-3.5 13.5-3.5 2.3 0 4.6 0.2 6.8 0.6 2.3 0.4 4.6 1 7 1.8v10c-2.3-1.4-4.5-2.5-6.6-3.1s-4.3-1-6.5-1c-2.6 0-4.6 0.4-6 1.1-1.4 0.8-2.1 1.8-2.1 3s0.7 2.2 2 3 3.4 1.6 6.4 2.3l3.7 0.9c4.2 1 7.2 2.6 9.2 4.8 1.9 2.2 2.9 5.1 2.9 8.7 0.1 9.2-5.9 13.8-17.8 13.8z"/>
		<path fill="#B3B3B3" d="m290.5 204.1h10.3l1.1 6.6c2.4-5.1 6.3-7.6 11.6-7.6 4.9 0 8.8 2 11.6 6.1s4.2 9.7 4.2 16.9-1.4 12.8-4.2 16.9-6.6 6.1-11.5 6.1c-5.1 0-9-2.4-11.7-7.3v22.8h-11.4v-60.5zm19.4 35.3c2.4 0 4.3-1.2 5.8-3.7 1.4-2.5 2.2-5.8 2.2-10 0-4.1-0.7-7.3-2.1-9.7s-3.3-3.6-5.7-3.6c-2.5 0-4.4 1.2-5.9 3.7s-2.2 5.7-2.2 9.8 0.7 7.4 2.2 9.8c1.4 2.5 3.3 3.7 5.7 3.7z"/>
		<path fill="#B3B3B3" d="m351.7 249c-4.5 0-8.2-1.3-11-3.9s-4.2-6.3-4.2-11.2c0-3.1 0.6-5.6 1.7-7.5s2.6-3.4 4.5-4.5 4.1-1.8 6.5-2.2 5-0.6 7.6-0.6h7.9v-1.9c0-1.6-0.4-2.7-1.2-3.6-0.8-0.8-1.9-1.4-3.2-1.6-1.3-0.3-2.6-0.4-4-0.4-2.8 0-5.4 0.4-7.9 1.1-2.5 0.8-5.1 1.8-7.6 3.2v-9.8c2.7-1.1 5.4-1.9 8.1-2.4s5.4-0.7 8.1-0.7c4.8 0 8.6 0.7 11.4 2.1s4.8 3.5 6 6.3c1.2 2.9 1.8 6.5 1.8 10.9 0 1 0 2.3-0.1 3.9 0 1.6-0.1 3.2-0.1 4.8v4 3.2c0 0.8 0 1.7 0.1 2.9s0.3 2.4 0.5 3.7c0.3 1.3 0.7 2.3 1.3 3.1h-11.3c-0.5-0.8-0.9-1.6-1.1-2.3s-0.4-1.6-0.5-2.5c-1.5 2.1-3.5 3.6-5.8 4.6s-4.8 1.3-7.5 1.3zm3.8-7.9c2.4 0 4.3-0.7 5.6-2s2.3-3 2.9-5 0.8-4 0.8-6v-0.8h-4.6c-1.8 0-3.6 0.1-5.4 0.4-1.8 0.2-3.2 0.9-4.4 1.8s-1.7 2.6-1.7 4.8c0 2.1 0.6 3.8 1.8 5s2.8 1.8 5 1.8z"/>
		<path fill="#B3B3B3" d="m408.7 249c-6.9 0-12.3-2-16.2-6.1-3.8-4-5.8-9.7-5.8-16.9s1.9-12.9 5.7-17 9.1-6.1 15.9-6.1c4.6 0 9.1 1.1 13.3 3.4v10.5c-3.4-3-7.2-4.5-11.4-4.5-3.8 0-6.8 1.2-8.8 3.6s-3 5.7-3 10.1 1 7.7 3 10.1 4.9 3.5 8.7 3.5c4.5 0 8.3-1.5 11.6-4.5v10.5c-3.9 2.3-8.3 3.4-13 3.4z"/>
		<path fill="#B3B3B3" d="m455.4 249c-7.5 0-13.2-1.9-17.2-5.8-3.9-3.9-5.9-9.5-5.9-16.9 0-4.7 0.8-8.7 2.4-12.2s4-6.2 7.2-8.1 7.2-2.9 12.1-2.9c4 0 7.4 0.9 10.4 2.8 2.9 1.9 5.2 4.4 6.8 7.7s2.4 7.1 2.4 11.5v4.6h-29.6c0 6.8 4 10.2 12 10.2 5.2 0 10.5-1.6 15.9-4.7v10.5c-5.4 2.2-10.9 3.3-16.5 3.3zm6.7-27.9c0-3-0.7-5.3-2.2-6.9-1.5-1.5-3.6-2.3-6.4-2.3s-5 0.8-6.6 2.4-2.5 3.9-2.8 6.8h18z"/>
		<path fill="#B3B3B3" d="m501.1 249c-4.9 0-10.4-0.9-16.4-2.7v-10c5.1 2.9 10.3 4.4 15.4 4.4 5.4 0 8-1.6 8-4.8 0-1.4-0.6-2.5-1.9-3.4s-3.5-1.6-6.5-2.3l-3.2-0.7c-8.4-1.9-12.6-6.2-12.6-12.9 0-4.3 1.6-7.7 4.7-10 3.1-2.4 7.6-3.5 13.5-3.5 2.3 0 4.6 0.2 6.8 0.6 2.3 0.4 4.6 1 7 1.8v10c-2.3-1.4-4.5-2.5-6.6-3.1s-4.3-1-6.5-1c-2.6 0-4.6 0.4-6 1.1-1.4 0.8-2.1 1.8-2.1 3s0.7 2.2 2 3 3.4 1.6 6.4 2.3l3.7 0.9c4.2 1 7.2 2.6 9.2 4.8 1.9 2.2 2.9 5.1 2.9 8.7 0.1 9.2-5.9 13.8-17.8 13.8z"/>
	</g>
	<path opacity = "0.2" enable-background = "new" d="m621.8 29.8-18.4-18.5c-0.1-0.1-0.2-0.3-0.3-0.4-12.6-12.6-32.8-14.8-47.9-4.2-17 11.9-21.1 35.3-9.2 52.3l46.8 67.7 27.8-40.2c13.4-19.6 15.3-41.1 1.2-56.7z"/>
</g>
<g>
	<path fill="#FFFFFF" d="M8.9,308.6H1.1v-2.8H20v2.8h-7.8v22H8.9V308.6z"/>
	<path fill="#FFFFFF" d="m24 304.8h3.1v10c1.1-2.2 2.9-3.2 5.5-3.2 1.5 0 2.7 0.4 3.5 1.1s1.4 1.6 1.7 2.8c0.3 1.1 0.5 2.4 0.5 3.7v11.5h-3.1v-11.5c0-1.7-0.3-2.9-0.9-3.7s-1.5-1.2-2.7-1.2-2 0.3-2.7 0.9c-0.6 0.6-1.1 1.3-1.4 2.2s-0.4 1.8-0.4 2.8v10.5h-3.1v-25.9z"/>
	<path fill="#FFFFFF" d="m52.5 331.1c-2.9 0-5.1-0.9-6.7-2.6s-2.4-4.1-2.4-7c0-1.8 0.3-3.5 1-5s1.6-2.7 2.9-3.6 2.9-1.3 4.7-1.3c2.5 0 4.4 0.8 5.8 2.4s2 3.8 2 6.6v1.5h-13.3v0.1c0 1.9 0.5 3.5 1.5 4.6s2.5 1.7 4.5 1.7c1.2 0 2.3-0.2 3.3-0.5s2.1-0.8 3.1-1.3v3c-1.1 0.4-2.1 0.8-3.2 1s-2.1 0.4-3.2 0.4zm4.2-11.4c0-1-0.2-2-0.5-2.8s-0.8-1.5-1.5-2-1.6-0.7-2.7-0.7-2.1 0.2-2.8 0.7c-0.8 0.5-1.4 1.2-1.8 2s-0.7 1.8-0.8 2.8h10.1z"/>
	<path fill="#FFFFFF" d="m95.6 330.7c-2.3 0-3.9-0.5-4.8-1.4s-1.4-2.5-1.4-4.7v-10.2h-5v-2.4h5v-4.9l3.1-1.3v6.2h6.9v2.4h-6.9v10.2c0 1.4 0.3 2.3 0.8 2.9s1.4 0.8 2.7 0.8h3.4v2.4h-3.8z"/>
	<path fill="#FFFFFF" d="m107.7 312h2.8l0.3 3.6c0.5-1.3 1.3-2.3 2.3-3s2.3-1.1 3.8-1.1 2.9 0.4 4 1.2v3.1c-1.2-1-2.6-1.5-4.3-1.5-1.9 0-3.3 0.6-4.3 1.8s-1.5 2.9-1.5 5.2v9.2h-3.1v-18.5z"/>
	<path fill="#FFFFFF" d="m132 331.1c-3.8 0-5.7-2.5-5.7-7.5v-11.6h3.1v11.5c0 3.2 1.2 4.9 3.6 4.9 1.4 0 2.5-0.5 3.3-1.5s1.2-2.5 1.2-4.3v-10.6h3.1v18.6h-2.8l-0.3-2.8c-1.1 2.2-2.9 3.3-5.5 3.3z"/>
	<path fill="#FFFFFF" d="m157 330.7c-2.3 0-3.9-0.5-4.8-1.4s-1.4-2.5-1.4-4.7v-10.2h-5v-2.4h5v-4.9l3.1-1.3v6.2h6.9v2.4h-6.9v10.2c0 1.4 0.3 2.3 0.8 2.9s1.4 0.8 2.7 0.8h3.4v2.4h-3.8z"/>
	<path fill="#FFFFFF" d="m167.3 304.8h3.1v10c1.1-2.2 2.9-3.2 5.5-3.2 1.5 0 2.7 0.4 3.5 1.1s1.4 1.6 1.7 2.8c0.3 1.1 0.5 2.4 0.5 3.7v11.5h-3.1v-11.5c0-1.7-0.3-2.9-0.9-3.7s-1.5-1.2-2.7-1.2-2.1 0.3-2.7 0.9-1.1 1.3-1.4 2.2-0.4 1.8-0.4 2.8v10.5h-3.1v-25.9z"/>
	<path fill="#FFFFFF" d="m219.3 330.7c-1.8 0-3.2-0.6-4.2-1.8s-1.5-2.8-1.5-5v-9.6h-4.1v-2.3h7.1v12c0 1.4 0.3 2.4 0.8 3.1s1.3 1.1 2.2 1.1h3.6v2.6h-3.9zm-5.6-22.1c-0.3 0-0.5-0.2-0.5-0.5v-2.9c0-0.3 0.2-0.5 0.5-0.5h2.4c0.3 0 0.5 0.2 0.5 0.5v2.9c0 0.3-0.2 0.5-0.5 0.5h-2.4z"/>
	<path fill="#FFFFFF" d="m235.2 331.1c-1.8 0-3.9-0.4-6.2-1.2v-3.2c2.3 1.2 4.4 1.8 6.2 1.8 1.3 0 2.3-0.3 3.1-0.8s1.2-1.3 1.2-2.2c0-0.8-0.3-1.4-1-1.9s-1.7-0.9-3.1-1.2l-1.3-0.3c-1.7-0.4-3-0.9-3.8-1.8s-1.2-1.9-1.2-3.3c0-1.8 0.6-3.2 1.8-4.1 1.2-1 2.9-1.4 5.2-1.4 1.9 0 3.7 0.4 5.5 1.1v3c-1.7-1-3.6-1.5-5.4-1.5-2.7 0-4 0.9-4 2.7 0 0.6 0.1 1.1 0.3 1.4s0.7 0.6 1.3 0.9c0.7 0.2 1.6 0.5 2.9 0.7l1.2 0.2c3.1 0.6 4.6 2.3 4.6 5 0 1.8-0.7 3.3-2 4.3-1.2 1.3-3 1.8-5.3 1.8z"/>
	<path fill="#FFFFFF" d="m269.5 335.1h1.8c0.9 0 1.6-0.3 2.1-0.8 0.5-0.6 1.2-1.9 2-4.1l-7.2-18.3h3.2l5.5 14.5 5.4-14.5h3.2l-4.9 12.6c-0.4 1-0.7 1.9-1 2.6-0.1 0.2-0.2 0.4-0.2 0.5s-0.1 0.3-0.2 0.5-0.2 0.5-0.3 1l-0.2 0.5c-0.4 1.2-0.8 2.3-1.2 3.2s-0.7 1.6-1 2.1c-1 1.8-2.5 2.7-4.6 2.7h-2.5l0.1-2.5z"/>
	<path fill="#FFFFFF" d="m297.1 331.1c-2.6 0-4.6-0.8-5.9-2.5s-2-4.1-2-7.2c0-3.2 0.7-5.6 2.1-7.3s3.3-2.5 5.9-2.5 4.5 0.8 5.9 2.5 2 4.1 2 7.3-0.7 5.6-2 7.2c-1.4 1.7-3.4 2.5-6 2.5zm0-2.6c1.5 0 2.7-0.6 3.5-1.9 0.8-1.2 1.2-3 1.2-5.3s-0.4-4.1-1.2-5.3-2-1.9-3.5-1.9-2.7 0.6-3.5 1.9-1.2 3-1.2 5.3 0.4 4.1 1.2 5.3c0.8 1.3 2 1.9 3.5 1.9z"/>
	<path fill="#FFFFFF" d="m316.2 331.1c-3.8 0-5.7-2.5-5.7-7.5v-11.6h3.1v11.5c0 3.2 1.2 4.9 3.6 4.9 1.4 0 2.5-0.5 3.3-1.5s1.2-2.5 1.2-4.3v-10.6h3.1v18.6h-2.8l-0.3-2.8c-1.1 2.2-2.9 3.3-5.5 3.3z"/>
	<path fill="#FFFFFF" d="m336.6 305.8h2.9v9.2h-2.9v-9.2z"/>
	<path fill="#FFFFFF" d="m353.3 312h2.8l0.3 3.6c0.5-1.3 1.3-2.3 2.4-3 1-0.7 2.3-1.1 3.8-1.1s2.9 0.4 4 1.2v3.1c-1.2-1-2.6-1.5-4.3-1.5-1.9 0-3.3 0.6-4.3 1.8s-1.5 2.9-1.5 5.2v9.2h-3.1l-0.1-18.5z"/>
	<path fill="#FFFFFF" d="m380 331.1c-2.9 0-5.1-0.9-6.7-2.6s-2.4-4.1-2.4-7c0-1.8 0.3-3.5 1-5s1.6-2.7 2.9-3.6 2.9-1.3 4.7-1.3c2.5 0 4.4 0.8 5.8 2.4s2 3.8 2 6.6v1.5h-13.3v0.1c0 1.9 0.5 3.5 1.5 4.6s2.5 1.7 4.5 1.7c1.2 0 2.3-0.2 3.3-0.5s2.1-0.8 3.1-1.3v3c-1.1 0.4-2.1 0.8-3.2 1s-2.1 0.4-3.2 0.4zm4.2-11.4c0-1-0.2-2-0.5-2.8s-0.8-1.5-1.5-2-1.6-0.7-2.7-0.7-2.1 0.2-2.8 0.7c-0.8 0.5-1.4 1.2-1.8 2s-0.7 1.8-0.8 2.8h10.1z"/>
	<path fill="#FFFFFF" d="m418.1 331.1c-1.8 0-3.3-0.5-4.4-1.6-1.2-1-1.8-2.5-1.8-4.5 0-1.6 0.4-2.9 1.2-3.8s1.8-1.5 3-1.9 2.6-0.5 4-0.5h4.1v-0.5c0-1.6-0.4-2.7-1.2-3.3s-1.9-0.9-3.4-0.9c-1.1 0-2.2 0.2-3.3 0.5s-2.1 0.7-3 1.3v-3.1c1-0.4 2-0.7 3.1-0.9 1-0.2 2.1-0.4 3.2-0.4s2.2 0.2 3.2 0.5 2 0.8 2.7 1.5c0.8 0.7 1.3 1.6 1.5 2.8 0.2 0.8 0.3 2.1 0.3 3.7v3.8c0 1 0.1 2.2 0.2 3.5s0.4 2.4 0.8 3.4h-3.1c-0.2-0.4-0.3-0.9-0.4-1.4s-0.2-1-0.3-1.4c-0.7 1.1-1.6 1.9-2.7 2.5-1.1 0.4-2.4 0.7-3.7 0.7zm0.8-2.6c1.3 0 2.3-0.3 3.1-0.9s1.4-1.4 1.7-2.4c0.4-1 0.5-2.1 0.5-3.2v-0.7h-3.9c-0.9 0-1.7 0.1-2.5 0.3s-1.5 0.6-2 1.1-0.8 1.3-0.8 2.4c0 1.2 0.4 2.1 1.1 2.6s1.6 0.8 2.8 0.8z"/>
	<path fill="#FFFFFF" d="m443.8 330.7c-1.8 0-3.2-0.6-4.2-1.8s-1.5-2.8-1.5-5v-16.8h-4.9v-2.4h8v19.3c0 1.4 0.3 2.4 0.8 3.1s1.3 1.1 2.2 1.1h3.6v2.6h-4z"/>
	<path fill="#FFFFFF" d="m450.6 312h3l3.2 15 2.7-9.6h2.6l2.7 9.6 3.2-15h3l-4.4 18.6h-2.9l-3-10.2-3 10.2h-2.7l-4.4-18.6z"/>
	<path fill="#FFFFFF" d="m479.6 331.1c-1.8 0-3.3-0.5-4.4-1.6-1.2-1-1.8-2.5-1.8-4.5 0-1.6 0.4-2.9 1.2-3.8s1.8-1.5 3-1.9 2.6-0.5 4-0.5h4.1v-0.5c0-1.6-0.4-2.7-1.2-3.3s-1.9-0.9-3.4-0.9c-1.1 0-2.2 0.2-3.3 0.5s-2.1 0.7-3 1.3v-3.1c1-0.4 2-0.7 3.1-0.9 1-0.2 2.1-0.4 3.2-0.4s2.2 0.2 3.2 0.5 2 0.8 2.7 1.5c0.8 0.7 1.3 1.6 1.5 2.8 0.2 0.8 0.3 2.1 0.3 3.7v3.8c0 1 0.1 2.2 0.2 3.5s0.4 2.4 0.8 3.4h-3.1c-0.2-0.4-0.3-0.9-0.4-1.4s-0.2-1-0.3-1.4c-0.7 1.1-1.6 1.9-2.7 2.5-1.2 0.4-2.5 0.7-3.7 0.7zm0.7-2.6c1.3 0 2.3-0.3 3.1-0.9s1.4-1.4 1.7-2.4c0.4-1 0.5-2.1 0.5-3.2v-0.7h-3.9c-0.9 0-1.7 0.1-2.5 0.3s-1.5 0.6-2 1.1-0.8 1.3-0.8 2.4c0 1.2 0.4 2.1 1.1 2.6s1.7 0.8 2.8 0.8z"/>
	<path fill="#FFFFFF" d="m494.6 335.1h1.8c0.9 0 1.6-0.3 2.1-0.8 0.5-0.6 1.2-1.9 2-4.1l-7.2-18.3h3.2l5.5 14.5 5.4-14.5h3.2l-4.9 12.6c-0.4 1-0.7 1.9-1 2.6-0.1 0.2-0.2 0.4-0.2 0.5-0.1 0.1-0.1 0.3-0.2 0.5s-0.2 0.5-0.3 1l-0.2 0.5c-0.4 1.2-0.8 2.3-1.2 3.2s-0.7 1.6-1 2.1c-1 1.8-2.5 2.7-4.6 2.7h-2.5v-2.5z"/>
	<path fill="#FFFFFF" d="m521.8 331.1c-1.8 0-3.9-0.4-6.2-1.2v-3.2c2.3 1.2 4.4 1.8 6.2 1.8 1.3 0 2.3-0.3 3.1-0.8s1.2-1.3 1.2-2.2c0-0.8-0.3-1.4-1-1.9-0.6-0.5-1.7-0.9-3.1-1.2l-1.3-0.3c-1.7-0.4-3-0.9-3.8-1.8-0.8-0.8-1.2-1.9-1.2-3.3 0-1.8 0.6-3.2 1.8-4.1s2.9-1.4 5.2-1.4c1.9 0 3.7 0.4 5.5 1.1v3c-1.7-1-3.6-1.5-5.4-1.5-2.7 0-4 0.9-4 2.7 0 0.6 0.1 1.1 0.3 1.4s0.7 0.6 1.3 0.9c0.7 0.2 1.6 0.5 2.9 0.7l1.2 0.2c3.1 0.6 4.6 2.3 4.6 5 0 1.8-0.7 3.3-2 4.3-1.2 1.3-3 1.8-5.3 1.8z"/>
	<path fill="#FFFFFF" d="M553,312h3l3.2,15l2.7-9.6h2.6l2.7,9.6l3.2-15h3l-4.3,18.6h-2.9l-3-10.2l-3,10.2h-2.9L553,312z"/>
	<path fill="#FFFFFF" d="m578.5 312h2.8l0.3 3.6c0.5-1.3 1.3-2.3 2.3-3s2.3-1.1 3.8-1.1 2.9 0.4 4 1.2v3.1c-1.2-1-2.6-1.5-4.3-1.5-1.9 0-3.3 0.6-4.3 1.8s-1.5 2.9-1.5 5.2v9.2h-3.1v-18.5z"/>
	<path fill="#FFFFFF" d="m604.2 331.1c-2.6 0-4.6-0.8-5.9-2.5s-2-4.1-2-7.2c0-3.2 0.7-5.6 2.1-7.3s3.3-2.5 5.9-2.5 4.5 0.8 5.9 2.5 2.1 4.1 2.1 7.3-0.7 5.6-2 7.2c-1.6 1.7-3.5 2.5-6.1 2.5zm0-2.6c1.5 0 2.7-0.6 3.5-1.9 0.8-1.2 1.2-3 1.2-5.3s-0.4-4.1-1.2-5.3-2-1.9-3.5-1.9-2.7 0.6-3.5 1.9c-0.8 1.2-1.2 3-1.2 5.3s0.4 4.1 1.2 5.3c0.8 1.3 2 1.9 3.5 1.9z"/>
	<path fill="#FFFFFF" d="m617.6 312h2.8l0.3 2.8c1.1-2.2 2.9-3.2 5.5-3.2 3.8 0 5.7 2.5 5.7 7.5v11.5h-3.1v-11.5c0-1.7-0.3-2.9-0.9-3.7s-1.5-1.2-2.7-1.2c-1.5 0-2.6 0.5-3.3 1.5-0.8 1-1.2 2.5-1.2 4.3v10.5h-3.1v-18.5z"/>
	<path fill="#FFFFFF" d="m644.8 337.9c-0.9 0-1.8-0.1-2.7-0.2s-1.8-0.4-2.7-0.7v-3c0.8 0.4 1.7 0.7 2.7 1s1.9 0.4 2.9 0.4c1.2 0 2.1-0.2 2.8-0.7s1.1-1.1 1.4-2c0.3-0.8 0.4-1.8 0.4-2.9v-2.2c-0.5 1.1-1.2 1.8-2 2.3-0.9 0.5-1.9 0.7-3 0.7-1.3 0-2.4-0.3-3.4-0.8s-1.7-1.3-2.2-2.3c-0.6-0.9-1-2-1.2-3.1-0.3-1.1-0.4-2.3-0.4-3.4s0.1-2.3 0.4-3.4 0.7-2.2 1.2-3.1 1.3-1.7 2.2-2.3 2.1-0.8 3.4-0.8c1.1 0 2.1 0.2 2.9 0.7s1.5 1.2 2.1 2.2l0.3-2.4h2.8v17.3c0 2.6-0.6 4.7-1.9 6.2s-3.2 2.5-6 2.5zm0.4-9.7c1.4 0 2.5-0.6 3.3-1.8 0.7-1.2 1.1-3 1.1-5.3 0-0.7-0.1-1.5-0.2-2.3s-0.3-1.6-0.6-2.3-0.8-1.3-1.3-1.7c-0.6-0.4-1.4-0.7-2.3-0.7-1.5 0-2.6 0.6-3.4 1.8s-1.2 2.9-1.2 5.2 0.4 4.1 1.2 5.3 1.9 1.8 3.4 1.8z"/>
</g>
<rect fill="#EE8F39" x="515.5" y="273.5" width="188" height="16"/>
<rect fill="#EE8F39" x="1.5" y="273.5" width="370" height="16"/>
<g>
	<path fill="#B3B3B3" d="m380 273.1h4.1l0.5 2.6c1-2 2.5-3.1 4.7-3.1 2 0 3.5 0.8 4.6 2.5 1.1 1.6 1.7 3.9 1.7 6.8s-0.6 5.1-1.7 6.8c-1.1 1.6-2.7 2.4-4.6 2.4-2.1 0-3.6-1-4.7-2.9v9.1h-4.6v-24.2zm7.8 14.1c1 0 1.7-0.5 2.3-1.5s0.9-2.3 0.9-4c0-1.6-0.3-2.9-0.8-3.9s-1.3-1.4-2.3-1.4-1.8 0.5-2.4 1.5-0.9 2.3-0.9 3.9 0.3 3 0.9 3.9c0.5 1 1.3 1.5 2.3 1.5z"/>
	<path fill="#B3B3B3" d="m406.6 291c-1.7 0-3.1-0.4-4.3-1.1s-2.2-1.8-2.8-3.2c-0.7-1.4-1-3-1-4.9s0.3-3.5 1-4.9 1.6-2.4 2.8-3.2 2.7-1.1 4.4-1.1 3.1 0.4 4.3 1.1 2.1 1.8 2.8 3.2 1 3 1 4.9-0.3 3.6-1 4.9-1.6 2.5-2.8 3.2c-1.3 0.8-2.7 1.1-4.4 1.1zm0-3.7c1.1 0 1.9-0.5 2.6-1.5s1-2.3 1-4-0.3-3-1-4c-0.6-1-1.5-1.5-2.6-1.5s-1.9 0.5-2.6 1.5c-0.6 1-1 2.3-1 4s0.3 3 1 4 1.5 1.5 2.6 1.5z"/>
	<path fill="#B3B3B3" d="m424 291c-2 0-3.5-0.8-4.6-2.5s-1.7-3.9-1.7-6.7c0-2.9 0.6-5.2 1.7-6.8s2.7-2.4 4.7-2.4 3.5 1 4.6 2.9v-9.3h4.6v24.4h-4.1l-0.5-2.6c-1 2-2.6 3-4.7 3zm1.4-3.7c1 0 1.7-0.5 2.3-1.5s0.9-2.3 0.9-3.9-0.3-3-0.9-3.9c-0.6-1-1.4-1.5-2.4-1.5s-1.7 0.5-2.3 1.4c-0.6 1-0.8 2.3-0.8 3.9 0 1.7 0.3 3 0.9 4s1.4 1.5 2.3 1.5z"/>
	<path fill="#B3B3B3" d="m446.7 291c-2.8 0-4.9-0.8-6.5-2.4-1.5-1.6-2.3-3.9-2.3-6.8s0.8-5.2 2.3-6.8 3.6-2.5 6.4-2.5c1.9 0 3.6 0.4 5.3 1.3v4.2c-1.4-1.2-2.9-1.8-4.6-1.8-1.5 0-2.7 0.5-3.5 1.4-0.8 1-1.2 2.3-1.2 4.1 0 1.7 0.4 3.1 1.2 4s2 1.4 3.5 1.4c1.8 0 3.3-0.6 4.7-1.8v4.2c-1.7 1.1-3.4 1.5-5.3 1.5z"/>
	<path fill="#B3B3B3" d="m462.5 291c-1.8 0-3.3-0.5-4.4-1.6-1.1-1-1.7-2.5-1.7-4.5 0-1.2 0.2-2.2 0.7-3 0.4-0.8 1-1.4 1.8-1.8s1.6-0.7 2.6-0.9 2-0.2 3.1-0.2h3.2v-0.8c0-0.6-0.2-1.1-0.5-1.4s-0.8-0.5-1.3-0.7c-0.5-0.1-1-0.2-1.6-0.2-1.1 0-2.2 0.2-3.2 0.5s-2 0.7-3 1.3v-3.9c1.1-0.4 2.2-0.8 3.2-0.9s2.2-0.3 3.2-0.3c1.9 0 3.4 0.3 4.6 0.8 1.1 0.5 1.9 1.4 2.4 2.5s0.7 2.6 0.7 4.4v1.6s0 1.3 0 1.9v1.6 1.3 1.2c0 0.5 0.1 1 0.2 1.5s0.3 0.9 0.5 1.3h-4.5c-0.2-0.3-0.3-0.6-0.4-0.9s-0.2-0.6-0.2-1c-0.6 0.8-1.4 1.4-2.3 1.8-1 0.3-2.1 0.4-3.1 0.4zm1.5-3.1c1 0 1.7-0.3 2.2-0.8s0.9-1.2 1.1-2 0.3-1.6 0.3-2.4v-0.3h-1.8c-0.7 0-1.4 0-2.1 0.1s-1.3 0.3-1.8 0.7-0.7 1-0.7 1.9 0.2 1.5 0.7 2 1.2 0.8 2.1 0.8z"/>
	<path fill="#B3B3B3" d="m483.7 291c-2 0-4.2-0.4-6.6-1.1v-4c2.1 1.2 4.1 1.8 6.2 1.8s3.2-0.6 3.2-1.9c0-0.6-0.3-1-0.8-1.4s-1.4-0.6-2.6-0.9l-1.3-0.3c-3.4-0.8-5-2.5-5-5.2 0-1.7 0.6-3.1 1.9-4 1.2-0.9 3.1-1.4 5.4-1.4 0.9 0 1.8 0.1 2.7 0.2 0.9 0.2 1.8 0.4 2.8 0.7v4c-0.9-0.6-1.8-1-2.6-1.3s-1.7-0.4-2.6-0.4c-1 0-1.8 0.2-2.4 0.5s-0.8 0.7-0.8 1.2 0.3 0.9 0.8 1.2 1.4 0.6 2.6 0.9l1.5 0.4c1.7 0.4 2.9 1 3.7 1.9s1.2 2 1.2 3.5c-0.1 3.8-2.5 5.6-7.3 5.6z"/>
	<path fill="#B3B3B3" d="m506.5 290.7c-1.7 0-3.1-0.2-4.1-0.5-1-0.4-1.7-1-2.1-1.8-0.4-0.9-0.6-2.1-0.6-3.6v-8.1h-4.5v-3.5h4.5v-4.8l4.6-2v6.8h6v3.5h-6v8.4c0 0.8 0.2 1.3 0.6 1.7 0.4 0.3 1 0.5 1.9 0.5h3.5v3.5h-3.8z"/>
</g>
</svg>
