<?xml version="1.0" encoding="utf-8"?>
<!-- Generator: Adobe Illustrator 16.0.0, SVG Export Plug-In . SVG Version: 6.00 Build 0)  -->
<!DOCTYPE svg PUBLIC "-//W3C//DTD SVG 1.1//EN" "http://www.w3.org/Graphics/SVG/1.1/DTD/svg11.dtd">
<svg version="1.1" id="Layer_1" xmlns="http://www.w3.org/2000/svg" xmlns:xlink="http://www.w3.org/1999/xlink" x="0px" y="0px"
	 width="703.027px" height="337.913px" viewBox="0 0 703.027 337.913" enable-background="new 0 0 703.027 337.913"
	 xml:space="preserve">
<rect x="1.514" y="273.457" fill="#EE8F39" width="702" height="16"/>
<g>
	<g>
		<linearGradient id="SVGID_1_" gradientUnits="userSpaceOnUse" x1="518.4307" y1="184.6899" x2="402.8974" y2="69.1567">
			<stop  offset="0" style="stop-color:#FCAC21"/>
			<stop  offset="0.1828" style="stop-color:#EE8F39"/>
			<stop  offset="1" style="stop-color:#E6528B"/>
		</linearGradient>
		<path fill="url(#SVGID_1_)" d="M560.664,126.924c0,20.711-16.789,37.5-37.5,37.5h-125c-20.711,0-37.5-16.789-37.5-37.5l0,0
			c0-20.711,16.789-37.5,37.5-37.5h125C543.875,89.424,560.664,106.213,560.664,126.924L560.664,126.924z"/>
		<linearGradient id="SVGID_2_" gradientUnits="userSpaceOnUse" x1="624.252" y1="95.1558" x2="545.1133" y2="16.0171">
			<stop  offset="0" style="stop-color:#EC7F00"/>
			<stop  offset="1" style="stop-color:#EC7FFF"/>
		</linearGradient>
		<path fill="url(#SVGID_2_)" d="M621.816,29.823l0.022-0.022l-18.444-18.443c-0.11-0.111-0.171-0.27-0.282-0.377
			c-12.627-12.617-32.795-14.814-47.926-4.223c-16.965,11.881-21.089,35.262-9.209,52.227l46.756,67.689l27.836-40.248
			C634.004,66.913,635.904,45.426,621.816,29.823z"/>
		<linearGradient id="SVGID_3_" gradientUnits="userSpaceOnUse" x1="647.8564" y1="197.5337" x2="550.9814" y2="100.6587">
			<stop  offset="0" style="stop-color:#FCAC21"/>
			<stop  offset="0.1828" style="stop-color:#EE8F39"/>
			<stop  offset="1" style="stop-color:#E6528B"/>
		</linearGradient>
		<path fill="url(#SVGID_3_)" d="M691.782,99.746l-69.943-69.945l-0.022,0.022c14.088,15.603,12.188,37.09-1.247,56.603
			l-27.836,40.248l-46.455,67.167c-11.879,16.965-7.756,40.346,9.209,52.227c15.131,10.592,35.355,8.451,47.981-4.166
			c0.112-0.109,0.228-0.211,0.339-0.322l18.031-18.029l70.356-70.358c2.187-2.187,4.04-4.579,5.573-7.111
			c0.083-0.138,0.173-0.273,0.254-0.413c0.08-0.137,0.152-0.276,0.23-0.414C706.399,130.848,704.042,112.005,691.782,99.746z"/>
		<linearGradient id="SVGID_4_" gradientUnits="userSpaceOnUse" x1="65.3169" y1="152.9404" x2="12.2832" y2="99.9067">
			<stop  offset="0" style="stop-color:#FCAC21"/>
			<stop  offset="0.1828" style="stop-color:#EE8F39"/>
			<stop  offset="1" style="stop-color:#E6528B"/>
		</linearGradient>
		<circle fill="url(#SVGID_4_)" cx="38.8" cy="126.424" r="37.5"/>
		<linearGradient id="SVGID_5_" gradientUnits="userSpaceOnUse" x1="155.3169" y1="152.9404" x2="102.2832" y2="99.9067">
			<stop  offset="0" style="stop-color:#FCAC21"/>
			<stop  offset="0.1828" style="stop-color:#EE8F39"/>
			<stop  offset="1" style="stop-color:#E6528B"/>
		</linearGradient>
		<circle fill="url(#SVGID_5_)" cx="128.8" cy="126.424" r="37.5"/>
		<linearGradient id="SVGID_6_" gradientUnits="userSpaceOnUse" x1="245.3169" y1="152.9404" x2="192.2839" y2="99.9074">
			<stop  offset="0" style="stop-color:#FCAC21"/>
			<stop  offset="0.1828" style="stop-color:#EE8F39"/>
			<stop  offset="1" style="stop-color:#E6528B"/>
		</linearGradient>
		<circle fill="url(#SVGID_6_)" cx="218.8" cy="126.424" r="37.5"/>
		<linearGradient id="SVGID_7_" gradientUnits="userSpaceOnUse" x1="335.3164" y1="152.9399" x2="282.2841" y2="99.9076">
			<stop  offset="0" style="stop-color:#FCAC21"/>
			<stop  offset="0.1828" style="stop-color:#EE8F39"/>
			<stop  offset="1" style="stop-color:#E6528B"/>
		</linearGradient>
		<circle fill="url(#SVGID_7_)" cx="308.8" cy="126.424" r="37.5"/>
		<g>
			<path fill="#B3B3B3" d="M27.969,248.004c-4.297,0-7.67-0.442-10.117-1.328c-2.448-0.885-4.174-2.408-5.176-4.57
				c-1.003-2.161-1.504-5.13-1.504-8.906v-20.313H0v-8.789h11.172v-11.953l11.445-5.078v17.031h14.961v8.789H22.617v20.859
				c0,1.928,0.488,3.32,1.465,4.18s2.545,1.289,4.707,1.289h8.789v8.789H27.969z"/>
			<path fill="#B3B3B3" d="M62.734,248.981c-4.531,0-8.197-1.295-10.996-3.887c-2.8-2.591-4.199-6.321-4.199-11.191
				c0-3.072,0.553-5.579,1.66-7.52c1.106-1.939,2.617-3.443,4.531-4.512c1.914-1.067,4.082-1.803,6.504-2.207
				c2.422-0.403,4.961-0.605,7.617-0.605h7.93v-1.914c0-1.563-0.41-2.747-1.23-3.555c-0.82-0.807-1.875-1.354-3.164-1.641
				c-1.289-0.286-2.611-0.43-3.965-0.43c-2.761,0-5.41,0.378-7.949,1.133c-2.539,0.756-5.072,1.823-7.598,3.203v-9.766
				c2.708-1.094,5.396-1.881,8.066-2.363c2.669-0.481,5.371-0.723,8.105-0.723c4.791,0,8.58,0.684,11.367,2.051
				c2.786,1.367,4.771,3.477,5.957,6.328c1.185,2.852,1.777,6.479,1.777,10.879c0,1.016-0.02,2.318-0.059,3.906
				c-0.039,1.589-0.059,3.178-0.059,4.766c0,1.406-0.014,2.734-0.039,3.984c-0.026,1.25-0.039,2.305-0.039,3.164
				c0,0.756,0.039,1.738,0.117,2.949s0.26,2.441,0.547,3.691c0.286,1.25,0.729,2.292,1.328,3.125H77.617
				c-0.495-0.833-0.859-1.614-1.094-2.344c-0.234-0.729-0.404-1.575-0.508-2.539c-1.537,2.058-3.457,3.574-5.762,4.551
				S65.442,248.981,62.734,248.981z M66.484,241.051c2.396,0,4.264-0.657,5.605-1.973c1.341-1.314,2.291-2.969,2.852-4.961
				c0.56-1.992,0.84-4.004,0.84-6.035v-0.781h-4.57c-1.797,0-3.581,0.124-5.352,0.371c-1.771,0.248-3.236,0.859-4.395,1.836
				c-1.159,0.977-1.738,2.585-1.738,4.824c0,2.136,0.592,3.789,1.777,4.961C62.688,240.465,64.349,241.051,66.484,241.051z"/>
			<path fill="#B3B3B3" d="M120.898,248.981c-5.339,0-9.219-2.539-11.641-7.617l-1.133,6.484H97.852v-60.781h11.406v23.242
				c2.76-4.844,6.641-7.266,11.641-7.266c4.896,0,8.743,2.025,11.543,6.074c2.799,4.05,4.199,9.668,4.199,16.855
				s-1.394,12.819-4.18,16.895C129.674,246.944,125.82,248.981,120.898,248.981z M117.266,239.606c2.396,0,4.316-1.243,5.762-3.73
				c1.445-2.486,2.168-5.826,2.168-10.02c0-4.088-0.697-7.324-2.09-9.707c-1.394-2.383-3.301-3.574-5.723-3.574
				c-2.475,0-4.447,1.23-5.918,3.691c-1.472,2.461-2.207,5.736-2.207,9.824c0,4.089,0.729,7.363,2.188,9.824
				C112.903,238.375,114.844,239.606,117.266,239.606z"/>
			<path fill="#B3B3B3" d="M163.945,248.981c-4.922,0-10.378-0.912-16.367-2.734v-10c5.13,2.943,10.273,4.414,15.43,4.414
				c5.364,0,8.047-1.588,8.047-4.766c0-1.406-0.639-2.539-1.914-3.398c-1.276-0.859-3.451-1.614-6.523-2.266l-3.164-0.703
				c-8.386-1.875-12.578-6.185-12.578-12.93c0-4.322,1.556-7.662,4.668-10.02c3.111-2.356,7.623-3.535,13.535-3.535
				c2.291,0,4.563,0.195,6.816,0.586c2.252,0.391,4.576,1.003,6.973,1.836v10c-2.292-1.432-4.486-2.474-6.582-3.125
				c-2.097-0.65-4.252-0.977-6.465-0.977c-2.604,0-4.609,0.378-6.016,1.133c-1.406,0.756-2.109,1.771-2.109,3.047
				c0,1.172,0.657,2.182,1.973,3.027c1.314,0.847,3.443,1.608,6.387,2.285l3.711,0.898c4.166,0.99,7.22,2.578,9.16,4.766
				c1.939,2.188,2.91,5.078,2.91,8.672C181.836,244.385,175.872,248.981,163.945,248.981z"/>
			<path fill="#CCCCCC" d="M209.297,248.981c-5.756,0-10.456-1.705-14.102-5.117c-3.62-3.385-5.43-7.813-5.43-13.281
				c0-2.031,0.234-3.88,0.703-5.547c0.469-1.666,1.158-3.255,2.07-4.766c1.849-3.072,4.57-5.768,8.164-8.086
				c-0.703-1.119-1.289-2.148-1.758-3.086s-0.847-1.797-1.133-2.578c-0.625-1.719-0.938-3.424-0.938-5.117
				c0-4.063,1.419-7.239,4.258-9.531c2.864-2.266,6.966-3.398,12.305-3.398c0.989,0,1.939,0.039,2.852,0.117
				c0.911,0.078,1.822,0.183,2.734,0.313c1.875,0.287,3.672,0.703,5.391,1.25v10c-3.334-1.9-6.732-2.852-10.195-2.852
				c-2.084,0-3.646,0.365-4.688,1.094c-1.068,0.756-1.602,1.797-1.602,3.125c0,0.521,0.091,1.088,0.273,1.699
				c0.182,0.612,0.494,1.361,0.938,2.246c0.781,1.615,2.057,3.764,3.828,6.445l12.227,18.75c0.547-0.938,0.963-2.07,1.25-3.398
				c0.286-1.432,0.43-2.813,0.43-4.141c0-0.364-0.007-0.755-0.02-1.172c-0.014-0.416-0.033-0.794-0.059-1.133
				c-0.026-0.677-0.104-1.367-0.234-2.07h9.18v1.992c0,3.854-0.443,7.148-1.328,9.883c-0.886,2.865-2.279,5.404-4.18,7.617
				l6.328,9.609H224.18l-1.875-2.813c-1.016,0.678-2.019,1.244-3.008,1.699c-0.99,0.456-2.058,0.866-3.203,1.23
				c-1.094,0.338-2.175,0.592-3.242,0.762C211.783,248.896,210.599,248.981,209.297,248.981z M210.977,239.762
				c0.625,0,1.354-0.091,2.188-0.273c0.364-0.078,0.709-0.162,1.035-0.254c0.325-0.091,0.723-0.24,1.191-0.449l0.313-0.156
				c0.521-0.26,0.879-0.442,1.074-0.547c0.195-0.104,0.449-0.26,0.762-0.469l-12.031-18.32c-1.719,1.12-3.008,2.448-3.867,3.984
				c-0.886,1.511-1.328,3.269-1.328,5.273c0,1.719,0.286,3.236,0.859,4.551c0.572,1.315,1.302,2.441,2.188,3.379
				C205.416,238.668,207.955,239.762,210.977,239.762z"/>
			<path fill="#B3B3B3" d="M260.273,248.981c-4.922,0-10.378-0.912-16.367-2.734v-10c5.13,2.943,10.273,4.414,15.43,4.414
				c5.364,0,8.047-1.588,8.047-4.766c0-1.406-0.639-2.539-1.914-3.398c-1.276-0.859-3.451-1.614-6.523-2.266l-3.164-0.703
				c-8.386-1.875-12.578-6.185-12.578-12.93c0-4.322,1.556-7.662,4.668-10.02c3.111-2.356,7.623-3.535,13.535-3.535
				c2.291,0,4.563,0.195,6.816,0.586c2.252,0.391,4.576,1.003,6.973,1.836v10c-2.292-1.432-4.486-2.474-6.582-3.125
				c-2.097-0.65-4.252-0.977-6.465-0.977c-2.604,0-4.609,0.378-6.016,1.133c-1.406,0.756-2.109,1.771-2.109,3.047
				c0,1.172,0.657,2.182,1.973,3.027c1.314,0.847,3.443,1.608,6.387,2.285l3.711,0.898c4.166,0.99,7.22,2.578,9.16,4.766
				c1.939,2.188,2.91,5.078,2.91,8.672C278.164,244.385,272.2,248.981,260.273,248.981z"/>
			<path fill="#B3B3B3" d="M290.508,204.098h10.273l1.133,6.563c2.422-5.078,6.302-7.617,11.641-7.617
				c4.922,0,8.775,2.038,11.563,6.113c2.786,4.076,4.18,9.707,4.18,16.895s-1.394,12.807-4.18,16.855
				c-2.787,4.05-6.615,6.074-11.484,6.074c-5.131,0-9.037-2.435-11.719-7.305v22.813h-11.406V204.098z M309.922,239.45
				c2.396,0,4.316-1.243,5.762-3.73c1.445-2.486,2.168-5.826,2.168-10.02c0-4.088-0.697-7.324-2.09-9.707
				c-1.394-2.383-3.301-3.574-5.723-3.574c-2.475,0-4.447,1.23-5.918,3.691c-1.472,2.461-2.207,5.736-2.207,9.824
				c0,4.089,0.729,7.363,2.188,9.824C305.56,238.219,307.5,239.45,309.922,239.45z"/>
			<path fill="#B3B3B3" d="M351.719,248.981c-4.531,0-8.197-1.295-10.996-3.887c-2.8-2.591-4.199-6.321-4.199-11.191
				c0-3.072,0.553-5.579,1.66-7.52c1.106-1.939,2.617-3.443,4.531-4.512c1.914-1.067,4.082-1.803,6.504-2.207
				c2.422-0.403,4.961-0.605,7.617-0.605h7.93v-1.914c0-1.563-0.41-2.747-1.23-3.555c-0.82-0.807-1.875-1.354-3.164-1.641
				c-1.289-0.286-2.611-0.43-3.965-0.43c-2.761,0-5.41,0.378-7.949,1.133c-2.539,0.756-5.072,1.823-7.598,3.203v-9.766
				c2.708-1.094,5.396-1.881,8.066-2.363c2.669-0.481,5.371-0.723,8.105-0.723c4.791,0,8.58,0.684,11.367,2.051
				c2.786,1.367,4.771,3.477,5.957,6.328c1.185,2.852,1.777,6.479,1.777,10.879c0,1.016-0.02,2.318-0.059,3.906
				c-0.039,1.589-0.059,3.178-0.059,4.766c0,1.406-0.014,2.734-0.039,3.984c-0.026,1.25-0.039,2.305-0.039,3.164
				c0,0.756,0.039,1.738,0.117,2.949s0.26,2.441,0.547,3.691c0.286,1.25,0.729,2.292,1.328,3.125h-11.328
				c-0.495-0.833-0.859-1.614-1.094-2.344c-0.234-0.729-0.404-1.575-0.508-2.539c-1.537,2.058-3.457,3.574-5.762,4.551
				S354.427,248.981,351.719,248.981z M355.469,241.051c2.396,0,4.264-0.657,5.605-1.973c1.341-1.314,2.291-2.969,2.852-4.961
				c0.56-1.992,0.84-4.004,0.84-6.035v-0.781h-4.57c-1.797,0-3.581,0.124-5.352,0.371c-1.771,0.248-3.236,0.859-4.395,1.836
				c-1.159,0.977-1.738,2.585-1.738,4.824c0,2.136,0.592,3.789,1.777,4.961C351.673,240.465,353.333,241.051,355.469,241.051z"/>
			<path fill="#B3B3B3" d="M408.672,248.981c-6.928,0-12.312-2.018-16.152-6.055c-3.842-4.036-5.762-9.661-5.762-16.875
				c0-7.239,1.9-12.896,5.703-16.973c3.802-4.075,9.088-6.113,15.859-6.113c4.635,0,9.075,1.12,13.32,3.359v10.469
				c-3.386-2.969-7.201-4.453-11.445-4.453c-3.828,0-6.758,1.186-8.789,3.555c-2.031,2.37-3.047,5.742-3.047,10.117
				c0,4.35,1.009,7.702,3.027,10.059c2.018,2.357,4.902,3.535,8.652,3.535c4.453,0,8.32-1.497,11.602-4.492v10.508
				C417.76,247.861,413.438,248.981,408.672,248.981z"/>
			<path fill="#B3B3B3" d="M455.391,248.981c-7.526,0-13.249-1.946-17.168-5.84c-3.92-3.893-5.879-9.524-5.879-16.895
				c0-4.661,0.807-8.73,2.422-12.207c1.614-3.477,4.029-6.178,7.246-8.105c3.216-1.927,7.246-2.891,12.09-2.891
				c3.984,0,7.435,0.925,10.352,2.773c2.916,1.85,5.176,4.421,6.777,7.715c1.602,3.295,2.402,7.129,2.402,11.504v4.648h-29.648
				c0,6.823,3.984,10.234,11.953,10.234c5.234,0,10.521-1.575,15.859-4.727V245.7C466.484,247.887,461.016,248.981,455.391,248.981z
				 M462.109,221.09c0-3.021-0.742-5.306-2.227-6.855c-1.484-1.549-3.607-2.324-6.367-2.324c-2.813,0-5.014,0.795-6.602,2.383
				c-1.589,1.589-2.526,3.854-2.813,6.797H462.109z"/>
			<path fill="#B3B3B3" d="M501.094,248.981c-4.922,0-10.378-0.912-16.367-2.734v-10c5.13,2.943,10.273,4.414,15.43,4.414
				c5.364,0,8.047-1.588,8.047-4.766c0-1.406-0.639-2.539-1.914-3.398c-1.276-0.859-3.451-1.614-6.523-2.266l-3.164-0.703
				c-8.386-1.875-12.578-6.185-12.578-12.93c0-4.322,1.556-7.662,4.668-10.02c3.111-2.356,7.623-3.535,13.535-3.535
				c2.291,0,4.563,0.195,6.816,0.586c2.252,0.391,4.576,1.003,6.973,1.836v10c-2.292-1.432-4.486-2.474-6.582-3.125
				c-2.097-0.65-4.252-0.977-6.465-0.977c-2.604,0-4.609,0.378-6.016,1.133c-1.406,0.756-2.109,1.771-2.109,3.047
				c0,1.172,0.657,2.182,1.973,3.027c1.314,0.847,3.443,1.608,6.387,2.285l3.711,0.898c4.166,0.99,7.22,2.578,9.16,4.766
				c1.939,2.188,2.91,5.078,2.91,8.672C518.984,244.385,513.021,248.981,501.094,248.981z"/>
		</g>
		<path opacity="0.2" d="M621.816,29.823l0.022-0.022l-18.444-18.443c-0.11-0.111-0.171-0.27-0.282-0.377
			c-12.627-12.617-32.795-14.814-47.926-4.223c-16.965,11.881-21.089,35.262-9.209,52.227l46.756,67.689l27.836-40.248
			C634.004,66.913,635.904,45.426,621.816,29.823z"/>
	</g>
	<g>
		<path fill="#FFFFFF" d="M8.87,308.645H1.084v-2.822h18.909v2.822H12.24v21.963H8.87V308.645z"/>
		<path fill="#FFFFFF" d="M24.011,304.776h3.055v10.027c1.118-2.158,2.949-3.236,5.495-3.236c1.527,0,2.698,0.354,3.511,1.063
			c0.813,0.708,1.375,1.633,1.685,2.771c0.31,1.141,0.465,2.369,0.465,3.686v11.521H35.15v-11.521c0-1.67-0.293-2.898-0.88-3.686
			c-0.587-0.785-1.5-1.178-2.739-1.178c-1.151,0-2.05,0.285-2.698,0.854c-0.647,0.57-1.104,1.304-1.37,2.2s-0.398,1.837-0.398,2.822
			v10.508h-3.055V304.776z"/>
		<path fill="#FFFFFF" d="M52.499,331.09c-2.867,0-5.116-0.861-6.749-2.582c-1.633-1.721-2.449-4.07-2.449-7.047
			c0-1.849,0.324-3.52,0.971-5.014s1.61-2.682,2.889-3.562s2.858-1.319,4.74-1.319c2.479,0,4.402,0.794,5.769,2.382
			c1.367,1.589,2.05,3.788,2.05,6.599v1.494H46.489v0.1c0,1.938,0.509,3.481,1.527,4.633c1.018,1.15,2.523,1.727,4.516,1.727
			c1.151,0,2.266-0.184,3.345-0.549s2.122-0.807,3.129-1.328v3.039c-1.052,0.432-2.117,0.777-3.196,1.037
			S53.628,331.09,52.499,331.09z M56.666,319.651c0-1.029-0.155-1.959-0.465-2.789c-0.31-0.83-0.805-1.488-1.486-1.975
			c-0.681-0.487-1.58-0.73-2.698-0.73c-1.129,0-2.073,0.246-2.831,0.738c-0.758,0.492-1.351,1.154-1.776,1.984
			c-0.426,0.83-0.695,1.754-0.805,2.771H56.666z"/>
		<path fill="#FFFFFF" d="M95.58,330.674c-2.28,0-3.893-0.461-4.839-1.386c-0.946-0.924-1.419-2.504-1.419-4.739v-10.16h-4.964
			v-2.375h4.964v-4.863l3.055-1.328v6.191h6.939v2.375h-6.939v10.16c0,1.361,0.26,2.315,0.78,2.863
			c0.52,0.548,1.428,0.822,2.723,0.822h3.437v2.439H95.58z"/>
		<path fill="#FFFFFF" d="M107.666,312.014h2.772l0.299,3.637c0.52-1.317,1.303-2.327,2.349-3.03
			c1.046-0.702,2.299-1.054,3.76-1.054c1.527,0,2.855,0.387,3.984,1.162v3.121c-1.195-0.975-2.612-1.461-4.25-1.461
			c-1.882,0-3.326,0.6-4.333,1.801c-1.007,1.201-1.511,2.925-1.511,5.172v9.246h-3.071V312.014z"/>
		<path fill="#FFFFFF" d="M132.021,331.09c-3.774,0-5.661-2.508-5.661-7.521v-11.521h3.055v11.521c0,3.244,1.212,4.865,3.636,4.865
			c1.417,0,2.512-0.512,3.287-1.536c0.774-1.023,1.162-2.471,1.162-4.341v-10.51h3.071v18.561h-2.772l-0.299-2.789
			C136.392,330,134.566,331.09,132.021,331.09z"/>
		<path fill="#FFFFFF" d="M156.989,330.674c-2.28,0-3.893-0.461-4.839-1.386c-0.946-0.924-1.419-2.504-1.419-4.739v-10.16h-4.964
			v-2.375h4.964v-4.863l3.055-1.328v6.191h6.939v2.375h-6.939v10.16c0,1.361,0.26,2.315,0.78,2.863
			c0.52,0.548,1.428,0.822,2.723,0.822h3.437v2.439H156.989z"/>
		<path fill="#FFFFFF" d="M167.299,304.776h3.055v10.027c1.118-2.158,2.949-3.236,5.495-3.236c1.527,0,2.698,0.354,3.511,1.063
			c0.813,0.708,1.375,1.633,1.685,2.771c0.31,1.141,0.465,2.369,0.465,3.686v11.521h-3.071v-11.521c0-1.67-0.293-2.898-0.88-3.686
			c-0.587-0.785-1.5-1.178-2.739-1.178c-1.151,0-2.05,0.285-2.698,0.854c-0.647,0.57-1.104,1.304-1.37,2.2s-0.398,1.837-0.398,2.822
			v10.508h-3.055V304.776z"/>
		<path fill="#FFFFFF" d="M219.262,330.741c-1.826,0-3.24-0.589-4.242-1.768c-1.002-1.179-1.502-2.836-1.502-4.973v-9.596h-4.067
			v-2.391h7.122V324c0,1.352,0.254,2.381,0.764,3.088c0.509,0.709,1.25,1.063,2.225,1.063h3.569v2.59H219.262z M213.684,308.645
			c-0.332,0-0.498-0.166-0.498-0.498v-2.873c0-0.332,0.166-0.498,0.498-0.498h2.391c0.332,0,0.498,0.166,0.498,0.498v2.873
			c0,0.332-0.166,0.498-0.498,0.498H213.684z"/>
		<path fill="#FFFFFF" d="M235.249,331.09c-1.771,0-3.852-0.389-6.242-1.162v-3.154c2.324,1.173,4.394,1.76,6.209,1.76
			c1.295,0,2.33-0.271,3.104-0.814c0.774-0.541,1.162-1.267,1.162-2.174c0-0.786-0.324-1.42-0.971-1.901s-1.68-0.872-3.096-1.171
			l-1.278-0.266c-1.749-0.354-3.03-0.938-3.843-1.751s-1.22-1.923-1.22-3.329c0-1.781,0.608-3.154,1.826-4.117
			c1.217-0.963,2.949-1.443,5.196-1.443c1.903,0,3.746,0.365,5.528,1.096v2.988c-1.738-1.019-3.553-1.527-5.445-1.527
			c-2.679,0-4.018,0.912-4.018,2.738c0,0.598,0.116,1.071,0.349,1.42s0.675,0.643,1.328,0.88c0.653,0.238,1.616,0.484,2.889,0.739
			l1.229,0.232c3.077,0.608,4.615,2.285,4.615,5.029c0,1.838-0.653,3.285-1.959,4.342
			C239.305,330.561,237.518,331.09,235.249,331.09z"/>
		<path fill="#FFFFFF" d="M269.465,335.124h1.81c0.896,0,1.588-0.254,2.075-0.764c0.542-0.564,1.201-1.914,1.976-4.051
			l-7.188-18.295h3.237l5.512,14.543l5.429-14.543h3.237l-4.897,12.617c-0.388,0.996-0.725,1.865-1.013,2.607
			c-0.089,0.221-0.158,0.396-0.208,0.522c-0.05,0.128-0.111,0.29-0.183,0.489c-0.072,0.199-0.186,0.521-0.34,0.963l-0.199,0.531
			c-0.432,1.207-0.838,2.267-1.22,3.18s-0.706,1.602-0.971,2.066c-0.996,1.793-2.529,2.689-4.599,2.689h-2.457V335.124z"/>
		<path fill="#FFFFFF" d="M297.14,331.09c-2.59,0-4.568-0.839-5.935-2.516c-1.367-1.677-2.05-4.086-2.05-7.23
			c0-3.154,0.686-5.572,2.059-7.254c1.372-1.683,3.342-2.523,5.91-2.523c2.567,0,4.535,0.838,5.902,2.515
			c1.367,1.677,2.05,4.104,2.05,7.28c0,3.154-0.681,5.564-2.042,7.229C301.672,330.257,299.707,331.09,297.14,331.09z
			 M297.123,328.5c1.516,0,2.681-0.62,3.495-1.859c0.813-1.24,1.22-3.016,1.22-5.33c0-2.301-0.407-4.069-1.22-5.304
			c-0.813-1.233-1.979-1.851-3.495-1.851c-1.527,0-2.698,0.617-3.511,1.851c-0.813,1.234-1.22,3.003-1.22,5.304
			c0,2.314,0.409,4.09,1.229,5.33C294.439,327.88,295.606,328.5,297.123,328.5z"/>
		<path fill="#FFFFFF" d="M316.248,331.09c-3.774,0-5.661-2.508-5.661-7.521v-11.521h3.055v11.521c0,3.244,1.212,4.865,3.636,4.865
			c1.417,0,2.512-0.512,3.287-1.536c0.774-1.023,1.162-2.471,1.162-4.341v-10.51h3.071v18.561h-2.772l-0.299-2.789
			C320.62,330,318.793,331.09,316.248,331.09z"/>
		<path fill="#FFFFFF" d="M336.585,305.823h2.889v9.213h-2.889V305.823z"/>
		<path fill="#FFFFFF" d="M353.303,312.014h2.772l0.299,3.637c0.521-1.317,1.304-2.327,2.35-3.03
			c1.046-0.702,2.299-1.054,3.76-1.054c1.527,0,2.855,0.387,3.984,1.162v3.121c-1.195-0.975-2.612-1.461-4.25-1.461
			c-1.882,0-3.326,0.6-4.333,1.801s-1.511,2.925-1.511,5.172v9.246h-3.071V312.014z"/>
		<path fill="#FFFFFF" d="M380.015,331.09c-2.866,0-5.116-0.861-6.748-2.582c-1.633-1.721-2.449-4.07-2.449-7.047
			c0-1.849,0.324-3.52,0.972-5.014s1.61-2.682,2.889-3.562s2.857-1.319,4.739-1.319c2.479,0,4.402,0.794,5.77,2.382
			c1.366,1.589,2.05,3.788,2.05,6.599v1.494h-13.231v0.1c0,1.938,0.509,3.481,1.527,4.633c1.019,1.15,2.523,1.727,4.516,1.727
			c1.151,0,2.267-0.184,3.346-0.549s2.122-0.807,3.129-1.328v3.039c-1.052,0.432-2.116,0.777-3.195,1.037
			S381.144,331.09,380.015,331.09z M384.182,319.651c0-1.029-0.155-1.959-0.465-2.789s-0.805-1.488-1.485-1.975
			c-0.681-0.487-1.58-0.73-2.698-0.73c-1.129,0-2.072,0.246-2.83,0.738c-0.759,0.492-1.351,1.154-1.776,1.984
			c-0.427,0.83-0.695,1.754-0.806,2.771H384.182z"/>
		<path fill="#FFFFFF" d="M418.148,331.09c-1.793,0-3.273-0.518-4.44-1.553c-1.168-1.035-1.752-2.521-1.752-4.457
			c0-1.605,0.388-2.858,1.162-3.761c0.774-0.901,1.787-1.536,3.038-1.901s2.584-0.547,4.001-0.547h4.101v-0.482
			c0-1.582-0.401-2.684-1.203-3.303c-0.803-0.62-1.929-0.93-3.379-0.93c-1.129,0-2.235,0.154-3.32,0.465
			c-1.085,0.31-2.098,0.741-3.038,1.295v-3.055c1.019-0.377,2.048-0.687,3.088-0.93c1.04-0.244,2.103-0.365,3.188-0.365
			c1.106,0,2.184,0.152,3.229,0.456c1.046,0.305,1.95,0.803,2.714,1.494c0.764,0.692,1.272,1.618,1.527,2.78
			c0.177,0.82,0.266,2.054,0.266,3.703v3.801c0,1.041,0.059,2.191,0.175,3.453s0.384,2.381,0.805,3.354h-3.071
			c-0.188-0.432-0.338-0.893-0.448-1.386c-0.11-0.492-0.199-0.972-0.266-1.437c-0.653,1.119-1.558,1.949-2.714,2.49
			C420.652,330.819,419.433,331.09,418.148,331.09z M418.896,328.534c1.262,0,2.288-0.311,3.08-0.93
			c0.791-0.62,1.369-1.431,1.734-2.433c0.365-1.001,0.548-2.077,0.548-3.229v-0.68h-3.868c-0.863,0-1.707,0.097-2.531,0.29
			c-0.825,0.194-1.506,0.562-2.042,1.104c-0.537,0.542-0.806,1.334-0.806,2.373c0,1.174,0.359,2.051,1.079,2.632
			S417.744,328.534,418.896,328.534z"/>
		<path fill="#FFFFFF" d="M443.798,330.741c-1.826,0-3.24-0.589-4.241-1.768c-1.002-1.179-1.503-2.836-1.503-4.973v-16.834h-4.897
			v-2.391h7.952V324c0,1.352,0.255,2.381,0.764,3.088c0.509,0.709,1.251,1.063,2.225,1.063h3.569v2.59H443.798z"/>
		<path fill="#FFFFFF" d="M450.638,312.014h3.021l3.237,15.025l2.656-9.596h2.606l2.689,9.596l3.237-15.025h3.021l-4.35,18.594
			h-2.922l-2.972-10.193l-2.955,10.193h-2.922L450.638,312.014z"/>
		<path fill="#FFFFFF" d="M479.558,331.09c-1.793,0-3.273-0.518-4.44-1.553c-1.168-1.035-1.752-2.521-1.752-4.457
			c0-1.605,0.387-2.858,1.162-3.761c0.774-0.901,1.787-1.536,3.038-1.901s2.584-0.547,4.001-0.547h4.101v-0.482
			c0-1.582-0.401-2.684-1.204-3.303c-0.803-0.62-1.928-0.93-3.378-0.93c-1.129,0-2.235,0.154-3.32,0.465
			c-1.085,0.31-2.098,0.741-3.038,1.295v-3.055c1.018-0.377,2.047-0.687,3.088-0.93c1.04-0.244,2.103-0.365,3.188-0.365
			c1.106,0,2.184,0.152,3.229,0.456c1.047,0.305,1.951,0.803,2.715,1.494c0.764,0.692,1.272,1.618,1.527,2.78
			c0.177,0.82,0.266,2.054,0.266,3.703v3.801c0,1.041,0.059,2.191,0.174,3.453c0.117,1.262,0.385,2.381,0.806,3.354h-3.071
			c-0.188-0.432-0.338-0.893-0.448-1.386c-0.11-0.492-0.199-0.972-0.266-1.437c-0.653,1.119-1.558,1.949-2.714,2.49
			C482.062,330.819,480.842,331.09,479.558,331.09z M480.305,328.534c1.262,0,2.288-0.311,3.08-0.93
			c0.791-0.62,1.369-1.431,1.734-2.433c0.365-1.001,0.548-2.077,0.548-3.229v-0.68h-3.868c-0.863,0-1.707,0.097-2.531,0.29
			c-0.825,0.194-1.506,0.562-2.043,1.104c-0.537,0.542-0.805,1.334-0.805,2.373c0,1.174,0.359,2.051,1.079,2.632
			S479.153,328.534,480.305,328.534z"/>
		<path fill="#FFFFFF" d="M494.632,335.124h1.81c0.896,0,1.588-0.254,2.075-0.764c0.542-0.564,1.2-1.914,1.976-4.051l-7.188-18.295
			h3.237l5.512,14.543l5.429-14.543h3.237l-4.897,12.617c-0.388,0.996-0.726,1.865-1.013,2.607
			c-0.089,0.221-0.158,0.396-0.207,0.522c-0.051,0.128-0.111,0.29-0.184,0.489s-0.186,0.521-0.34,0.963l-0.199,0.531
			c-0.432,1.207-0.838,2.267-1.221,3.18c-0.381,0.913-0.705,1.602-0.971,2.066c-0.996,1.793-2.529,2.689-4.599,2.689h-2.457V335.124
			z"/>
		<path fill="#FFFFFF" d="M521.825,331.09c-1.771,0-3.852-0.389-6.242-1.162v-3.154c2.324,1.173,4.394,1.76,6.209,1.76
			c1.295,0,2.329-0.271,3.104-0.814c0.774-0.541,1.162-1.267,1.162-2.174c0-0.786-0.324-1.42-0.971-1.901
			c-0.648-0.481-1.68-0.872-3.097-1.171l-1.278-0.266c-1.749-0.354-3.029-0.938-3.844-1.751c-0.813-0.813-1.22-1.923-1.22-3.329
			c0-1.781,0.608-3.154,1.826-4.117s2.949-1.443,5.196-1.443c1.903,0,3.746,0.365,5.528,1.096v2.988
			c-1.737-1.019-3.553-1.527-5.445-1.527c-2.679,0-4.018,0.912-4.018,2.738c0,0.598,0.116,1.071,0.349,1.42s0.675,0.643,1.328,0.88
			c0.652,0.238,1.615,0.484,2.889,0.739l1.229,0.232c3.076,0.608,4.615,2.285,4.615,5.029c0,1.838-0.653,3.285-1.959,4.342
			C525.881,330.561,524.094,331.09,521.825,331.09z"/>
		<path fill="#FFFFFF" d="M552.986,312.014h3.021l3.237,15.025l2.656-9.596h2.606l2.689,9.596l3.237-15.025h3.021l-4.35,18.594
			h-2.922l-2.972-10.193l-2.955,10.193h-2.922L552.986,312.014z"/>
		<path fill="#FFFFFF" d="M578.47,312.014h2.772l0.299,3.637c0.52-1.317,1.303-2.327,2.35-3.03c1.045-0.702,2.299-1.054,3.76-1.054
			c1.527,0,2.855,0.387,3.984,1.162v3.121c-1.195-0.975-2.612-1.461-4.25-1.461c-1.882,0-3.326,0.6-4.333,1.801
			s-1.511,2.925-1.511,5.172v9.246h-3.071V312.014z"/>
		<path fill="#FFFFFF" d="M604.186,331.09c-2.59,0-4.568-0.839-5.936-2.516s-2.05-4.086-2.05-7.23c0-3.154,0.687-5.572,2.059-7.254
			c1.372-1.683,3.343-2.523,5.91-2.523s4.534,0.838,5.901,2.515s2.051,4.104,2.051,7.28c0,3.154-0.681,5.564-2.042,7.229
			C608.718,330.257,606.753,331.09,604.186,331.09z M604.169,328.5c1.517,0,2.681-0.62,3.495-1.859c0.813-1.24,1.22-3.016,1.22-5.33
			c0-2.301-0.407-4.069-1.22-5.304c-0.814-1.233-1.979-1.851-3.495-1.851c-1.527,0-2.698,0.617-3.511,1.851
			c-0.814,1.234-1.221,3.003-1.221,5.304c0,2.314,0.409,4.09,1.229,5.33C601.484,327.88,602.652,328.5,604.169,328.5z"/>
		<path fill="#FFFFFF" d="M617.633,312.014h2.756l0.299,2.789c1.117-2.158,2.938-3.236,5.462-3.236c3.796,0,5.694,2.506,5.694,7.52
			v11.521h-3.071v-11.521c0-1.67-0.29-2.898-0.872-3.686c-0.58-0.785-1.48-1.178-2.697-1.178c-1.45,0-2.564,0.512-3.346,1.535
			c-0.779,1.023-1.17,2.471-1.17,4.342v10.508h-3.055V312.014z"/>
		<path fill="#FFFFFF" d="M644.81,337.913c-0.896,0-1.796-0.082-2.698-0.248s-1.79-0.389-2.664-0.664v-3.021
			c0.841,0.398,1.729,0.746,2.664,1.045s1.891,0.449,2.864,0.449c1.195,0,2.125-0.238,2.789-0.715
			c0.664-0.476,1.132-1.137,1.403-1.983c0.271-0.847,0.406-1.817,0.406-2.913v-2.209c-0.498,1.063-1.174,1.844-2.025,2.342
			c-0.853,0.498-1.854,0.746-3.005,0.746c-1.317,0-2.435-0.281-3.354-0.846s-1.657-1.314-2.216-2.25
			c-0.56-0.936-0.967-1.97-1.221-3.104c-0.255-1.134-0.382-2.267-0.382-3.396s0.127-2.258,0.382-3.387
			c0.254-1.129,0.664-2.16,1.229-3.096s1.309-1.686,2.232-2.25s2.051-0.846,3.379-0.846c1.117,0,2.092,0.232,2.922,0.697
			s1.516,1.206,2.059,2.225l0.299-2.408h2.756v17.332c0,2.602-0.617,4.668-1.852,6.201S647.555,337.913,644.81,337.913z
			 M645.158,328.202c1.449,0,2.549-0.604,3.295-1.811c0.748-1.205,1.121-2.96,1.121-5.262c0-0.742-0.056-1.517-0.166-2.324
			c-0.111-0.809-0.318-1.563-0.623-2.267c-0.305-0.702-0.75-1.275-1.336-1.718c-0.587-0.443-1.355-0.664-2.308-0.664
			c-1.472,0-2.599,0.586-3.378,1.76c-0.781,1.173-1.171,2.899-1.171,5.18c0,2.302,0.398,4.062,1.195,5.279
			C642.585,327.592,643.708,328.202,645.158,328.202z"/>
	</g>
	<rect x="371.514" y="273.457" width="144" height="16"/>
	<g>
		<path fill="#B3B3B3" d="M379.992,273.055h4.119l0.454,2.631c0.971-2.035,2.526-3.055,4.667-3.055c1.973,0,3.518,0.818,4.636,2.451
			c1.116,1.635,1.675,3.893,1.675,6.773s-0.559,5.135-1.675,6.758c-1.118,1.623-2.652,2.436-4.604,2.436
			c-2.057,0-3.623-0.977-4.698-2.93v9.146h-4.573V273.055z M387.775,287.227c0.961,0,1.73-0.498,2.311-1.494
			c0.579-0.998,0.869-2.336,0.869-4.018c0-1.639-0.279-2.938-0.838-3.893s-1.323-1.432-2.295-1.432
			c-0.991,0-1.782,0.492-2.372,1.479c-0.59,0.988-0.885,2.301-0.885,3.939s0.292,2.951,0.877,3.939
			C386.027,286.735,386.805,287.227,387.775,287.227z"/>
		<path fill="#B3B3B3" d="M406.6,291.049c-1.66,0-3.099-0.373-4.314-1.121c-1.216-0.746-2.153-1.809-2.811-3.186
			c-0.658-1.379-0.987-3.008-0.987-4.887s0.332-3.51,0.995-4.895c0.662-1.383,1.607-2.449,2.834-3.201s2.681-1.129,4.361-1.129
			c1.66,0,3.091,0.369,4.291,1.105c1.201,0.734,2.128,1.787,2.78,3.154c0.652,1.369,0.979,2.992,0.979,4.871
			c0,1.91-0.331,3.561-0.994,4.949s-1.601,2.459-2.812,3.209C409.711,290.672,408.271,291.049,406.6,291.049z M406.615,287.321
			c1.075,0,1.932-0.492,2.568-1.479s0.955-2.32,0.955-4.002c0-1.691-0.318-3.027-0.955-4.01c-0.637-0.98-1.493-1.471-2.568-1.471
			c-1.086,0-1.947,0.492-2.584,1.479c-0.637,0.988-0.955,2.32-0.955,4.002s0.318,3.016,0.955,4.002S405.529,287.321,406.615,287.321
			z"/>
		<path fill="#B3B3B3" d="M423.983,291.049c-1.974,0-3.519-0.816-4.636-2.451s-1.676-3.881-1.676-6.742
			c0-2.893,0.563-5.152,1.691-6.781s2.678-2.443,4.651-2.443c1.963,0,3.508,0.971,4.636,2.914v-9.318h4.572v24.367h-4.118
			l-0.454-2.6C427.679,290.032,426.123,291.049,423.983,291.049z M425.439,287.29c0.971,0,1.749-0.492,2.334-1.479
			c0.584-0.986,0.877-2.301,0.877-3.939s-0.296-2.951-0.885-3.938c-0.591-0.988-1.381-1.48-2.373-1.48
			c-0.971,0-1.736,0.477-2.294,1.432c-0.559,0.957-0.838,2.254-0.838,3.893c0,1.682,0.289,3.02,0.869,4.018
			C423.709,286.792,424.479,287.29,425.439,287.29z"/>
		<path fill="#B3B3B3" d="M446.676,291.049c-2.777,0-4.937-0.809-6.476-2.428c-1.541-1.619-2.311-3.873-2.311-6.766
			c0-2.902,0.762-5.17,2.286-6.805c1.524-1.633,3.644-2.451,6.358-2.451c1.858,0,3.638,0.449,5.341,1.348v4.197
			c-1.357-1.191-2.888-1.785-4.589-1.785c-1.535,0-2.71,0.475-3.524,1.424c-0.814,0.951-1.221,2.303-1.221,4.057
			c0,1.744,0.404,3.088,1.213,4.033c0.81,0.945,1.966,1.416,3.469,1.416c1.786,0,3.336-0.6,4.652-1.801v4.213
			C450.318,290.6,448.586,291.049,446.676,291.049z"/>
		<path fill="#B3B3B3" d="M462.461,291.049c-1.816,0-3.287-0.52-4.408-1.559c-1.123-1.039-1.684-2.535-1.684-4.486
			c0-1.232,0.221-2.236,0.665-3.016c0.444-0.777,1.05-1.381,1.816-1.809c0.768-0.428,1.637-0.723,2.608-0.885
			c0.971-0.162,1.988-0.242,3.053-0.242h3.18v-0.768c0-0.627-0.164-1.102-0.494-1.426c-0.328-0.322-0.751-0.543-1.268-0.658
			c-0.518-0.113-1.047-0.172-1.59-0.172c-1.107,0-2.169,0.152-3.188,0.455c-1.018,0.303-2.033,0.73-3.045,1.283v-3.914
			c1.086-0.439,2.163-0.754,3.233-0.947s2.153-0.291,3.249-0.291c1.922,0,3.44,0.275,4.558,0.822
			c1.117,0.549,1.913,1.395,2.389,2.537c0.475,1.145,0.712,2.598,0.712,4.361c0,0.408-0.008,0.93-0.023,1.566
			s-0.023,1.273-0.023,1.91c0,0.564-0.005,1.098-0.016,1.598c-0.01,0.502-0.016,0.924-0.016,1.27c0,0.303,0.016,0.697,0.047,1.182
			c0.031,0.486,0.104,0.979,0.22,1.48c0.114,0.5,0.292,0.918,0.532,1.252h-4.541c-0.199-0.334-0.346-0.646-0.439-0.939
			c-0.094-0.291-0.162-0.631-0.203-1.018c-0.616,0.824-1.386,1.434-2.311,1.824C464.551,290.854,463.547,291.049,462.461,291.049z
			 M463.964,287.87c0.96,0,1.71-0.264,2.247-0.791c0.538-0.527,0.919-1.189,1.144-1.988s0.337-1.605,0.337-2.42v-0.313h-1.832
			c-0.721,0-1.436,0.049-2.146,0.148c-0.709,0.1-1.297,0.344-1.762,0.736c-0.465,0.391-0.696,1.035-0.696,1.934
			c0,0.855,0.237,1.52,0.712,1.988C462.442,287.635,463.107,287.87,463.964,287.87z"/>
		<path fill="#B3B3B3" d="M483.728,291.049c-1.974,0-4.16-0.365-6.562-1.096v-4.01c2.057,1.18,4.119,1.77,6.186,1.77
			c2.15,0,3.227-0.637,3.227-1.91c0-0.564-0.256-1.02-0.768-1.363s-1.383-0.646-2.615-0.908l-1.269-0.281
			c-3.362-0.752-5.042-2.48-5.042-5.184c0-1.734,0.623-3.072,1.871-4.018c1.247-0.945,3.056-1.418,5.426-1.418
			c0.919,0,1.83,0.078,2.732,0.236c0.903,0.156,1.836,0.4,2.796,0.734v4.01c-0.919-0.574-1.798-0.992-2.639-1.252
			c-0.841-0.262-1.704-0.393-2.592-0.393c-1.044,0-1.849,0.152-2.411,0.455c-0.564,0.303-0.846,0.709-0.846,1.221
			c0,0.471,0.263,0.875,0.79,1.215c0.527,0.338,1.381,0.645,2.561,0.916l1.487,0.359c1.671,0.396,2.895,1.033,3.673,1.91
			s1.167,2.037,1.167,3.477C490.9,289.206,488.51,291.049,483.728,291.049z"/>
		<path fill="#B3B3B3" d="M506.451,290.657c-1.723,0-3.074-0.178-4.057-0.531c-0.98-0.355-1.672-0.967-2.074-1.832
			c-0.402-0.867-0.604-2.057-0.604-3.572v-8.143h-4.479v-3.523h4.479v-4.793l4.589-2.035v6.828h5.998v3.523h-5.998v8.363
			c0,0.771,0.196,1.33,0.587,1.676c0.393,0.344,1.021,0.516,1.888,0.516h3.523v3.523H506.451z"/>
	</g>
</g>
</svg>
