<?xml version="1.0" encoding="utf-8"?>
<!-- Generator: Adobe Illustrator 16.0.0, SVG Export Plug-In . SVG Version: 6.00 Build 0)  -->
<!DOCTYPE svg PUBLIC "-//W3C//DTD SVG 1.1//EN" "http://www.w3.org/Graphics/SVG/1.1/DTD/svg11.dtd">
<svg version="1.1" id="Layer_1" xmlns="http://www.w3.org/2000/svg" xmlns:xlink="http://www.w3.org/1999/xlink" x="0px" y="0px"
	 width="386.877px" height="145.605px" viewBox="0 0 386.877 145.605" enable-background="new 0 0 386.877 145.605"
	 xml:space="preserve">
<g opacity="0.5">
	<path fill="#A7A9AC" d="M308.504,69.874c0,11.401-9.243,20.644-20.645,20.644h-68.814c-11.401,0-20.645-9.242-20.645-20.644l0,0
		c0-11.402,9.243-20.645,20.645-20.645h68.814C299.261,49.229,308.504,58.472,308.504,69.874L308.504,69.874z"/>
	<path fill="#808285" d="M342.169,16.418l0.013-0.012L332.027,6.253c-0.061-0.062-0.094-0.148-0.155-0.208
		c-6.951-6.946-18.054-8.155-26.384-2.324c-9.34,6.54-11.609,19.412-5.069,28.751l25.739,37.265l15.324-22.157
		C348.879,36.837,349.925,25.008,342.169,16.418z"/>
	<path fill="#A7A9AC" d="M380.687,54.912l-38.505-38.506l-0.013,0.012c7.756,8.59,6.71,20.419-0.687,31.161l-15.324,22.157
		l-25.574,36.976c-6.539,9.34-4.27,22.211,5.07,28.752c8.329,5.831,19.463,4.652,26.414-2.293c0.063-0.061,0.125-0.116,0.187-0.178
		l9.927-9.926l38.732-38.733c1.203-1.203,2.224-2.521,3.068-3.915c0.045-0.075,0.095-0.15,0.139-0.227
		c0.045-0.076,0.084-0.152,0.127-0.229C388.733,72.034,387.436,61.66,380.687,54.912z"/>
	<circle fill="#A7A9AC" cx="21.209" cy="69.599" r="20.644"/>
	<circle fill="#A7A9AC" cx="70.756" cy="69.599" r="20.645"/>
	<circle fill="#A7A9AC" cx="120.302" cy="69.599" r="20.644"/>
	<circle fill="#A7A9AC" cx="169.849" cy="69.599" r="20.645"/>
	<g>
		<path fill="#A7A9AC" d="M15.397,136.53c-2.366,0-4.223-0.244-5.569-0.73c-1.349-0.487-2.299-1.326-2.85-2.517
			c-0.553-1.19-0.828-2.824-0.828-4.903v-11.182H0v-4.839h6.15v-6.58l6.301-2.796v9.376h8.236v4.839h-8.236v11.483
			c0,1.061,0.269,1.827,0.807,2.301c0.537,0.473,1.4,0.71,2.591,0.71h4.839v4.838H15.397z"/>
		<path fill="#A7A9AC" d="M34.536,137.068c-2.494,0-4.513-0.713-6.054-2.14s-2.312-3.48-2.312-6.161c0-1.691,0.305-3.072,0.914-4.14
			c0.609-1.068,1.44-1.896,2.494-2.484c1.054-0.588,2.247-0.992,3.581-1.215c1.333-0.223,2.73-0.333,4.193-0.333h4.365v-1.054
			c0-0.86-0.226-1.513-0.678-1.957c-0.451-0.444-1.032-0.745-1.741-0.903c-0.71-0.158-1.438-0.236-2.183-0.236
			c-1.521,0-2.979,0.208-4.377,0.624c-1.397,0.416-2.792,1.003-4.183,1.763v-5.376c1.491-0.602,2.972-1.035,4.441-1.301
			c1.469-0.266,2.956-0.398,4.462-0.398c2.638,0,4.724,0.377,6.258,1.13c1.533,0.752,2.627,1.913,3.279,3.483
			c0.652,1.569,0.979,3.566,0.979,5.989c0,0.559-0.011,1.276-0.032,2.15s-0.032,1.749-0.032,2.623c0,0.774-0.008,1.506-0.021,2.193
			c-0.015,0.688-0.021,1.27-0.021,1.742c0,0.416,0.021,0.957,0.064,1.624c0.043,0.666,0.143,1.344,0.301,2.031
			c0.158,0.688,0.401,1.262,0.731,1.721h-6.236c-0.272-0.459-0.474-0.889-0.603-1.29s-0.223-0.868-0.279-1.397
			c-0.846,1.132-1.903,1.967-3.172,2.505S36.027,137.068,34.536,137.068z M36.601,132.703c1.319,0,2.348-0.362,3.086-1.087
			c0.738-0.723,1.261-1.634,1.569-2.73s0.463-2.204,0.463-3.322v-0.431h-2.516c-0.989,0-1.972,0.068-2.946,0.204
			c-0.976,0.137-1.782,0.474-2.419,1.012c-0.639,0.537-0.957,1.422-0.957,2.655c0,1.175,0.325,2.086,0.979,2.731
			C34.511,132.38,35.425,132.703,36.601,132.703z"/>
		<path fill="#A7A9AC" d="M66.557,137.068c-2.939,0-5.075-1.398-6.408-4.193l-0.624,3.569h-5.655v-33.461h6.279v12.795
			c1.519-2.666,3.655-4,6.408-4c2.695,0,4.813,1.115,6.354,3.345c1.541,2.229,2.312,5.322,2.312,9.279
			c0,3.956-0.768,7.057-2.301,9.3C71.388,135.946,69.266,137.068,66.557,137.068z M64.557,131.907c1.318,0,2.376-0.686,3.172-2.054
			c0.796-1.369,1.193-3.208,1.193-5.516c0-2.251-0.384-4.032-1.15-5.345c-0.768-1.312-1.817-1.967-3.15-1.967
			c-1.362,0-2.448,0.677-3.258,2.031c-0.811,1.355-1.215,3.158-1.215,5.409c0,2.25,0.4,4.054,1.204,5.408
			C62.155,131.229,63.224,131.907,64.557,131.907z"/>
		<path fill="#A7A9AC" d="M90.254,137.068c-2.709,0-5.713-0.502-9.01-1.506v-5.505c2.824,1.62,5.655,2.43,8.494,2.43
			c2.953,0,4.43-0.874,4.43-2.623c0-0.774-0.352-1.398-1.054-1.871s-1.899-0.889-3.591-1.247l-1.742-0.388
			c-4.616-1.031-6.924-3.404-6.924-7.117c0-2.38,0.855-4.219,2.569-5.517c1.713-1.298,4.196-1.946,7.451-1.946
			c1.262,0,2.513,0.108,3.753,0.323c1.239,0.215,2.519,0.552,3.838,1.011v5.505c-1.262-0.788-2.47-1.362-3.623-1.721
			c-1.154-0.357-2.341-0.537-3.559-0.537c-1.435,0-2.538,0.207-3.313,0.624c-0.773,0.416-1.161,0.975-1.161,1.677
			c0,0.646,0.362,1.201,1.086,1.667c0.724,0.465,1.896,0.885,3.517,1.258l2.043,0.494c2.293,0.546,3.975,1.42,5.042,2.624
			c1.068,1.204,1.603,2.796,1.603,4.774C100.104,134.538,96.82,137.068,90.254,137.068z"/>
		<path fill="#A7A9AC" d="M115.221,137.068c-3.168,0-5.756-0.938-7.763-2.817c-1.993-1.863-2.989-4.301-2.989-7.312
			c0-1.118,0.129-2.137,0.387-3.054c0.259-0.917,0.638-1.792,1.141-2.623c1.018-1.691,2.516-3.176,4.494-4.452
			c-0.387-0.616-0.71-1.183-0.968-1.698c-0.258-0.517-0.466-0.989-0.624-1.42c-0.344-0.946-0.516-1.885-0.516-2.816
			c0-2.236,0.781-3.986,2.344-5.247c1.577-1.248,3.835-1.871,6.774-1.871c0.544,0,1.067,0.021,1.569,0.064s1.003,0.1,1.506,0.172
			c1.031,0.158,2.021,0.387,2.967,0.688v5.505c-1.835-1.046-3.706-1.569-5.612-1.569c-1.147,0-2.008,0.2-2.58,0.602
			c-0.589,0.416-0.882,0.989-0.882,1.721c0,0.287,0.05,0.599,0.15,0.936c0.1,0.336,0.271,0.749,0.516,1.236
			c0.431,0.889,1.133,2.072,2.107,3.548l6.731,10.322c0.301-0.516,0.53-1.14,0.688-1.871c0.157-0.788,0.236-1.548,0.236-2.279
			c0-0.201-0.004-0.416-0.011-0.646c-0.008-0.229-0.019-0.438-0.032-0.623c-0.015-0.373-0.058-0.753-0.129-1.14h5.053v1.097
			c0,2.121-0.244,3.936-0.73,5.44c-0.488,1.577-1.255,2.976-2.301,4.193l3.483,5.29h-6.817l-1.032-1.548
			c-0.559,0.373-1.111,0.685-1.655,0.936c-0.545,0.25-1.133,0.476-1.764,0.677c-0.602,0.187-1.197,0.326-1.785,0.42
			C116.59,137.021,115.938,137.068,115.221,137.068z M116.146,131.993c0.345,0,0.745-0.051,1.204-0.15
			c0.201-0.043,0.391-0.09,0.57-0.14c0.179-0.051,0.397-0.133,0.656-0.248l0.172-0.086c0.286-0.143,0.483-0.244,0.591-0.301
			c0.108-0.057,0.248-0.143,0.42-0.258l-6.624-10.086c-0.945,0.616-1.655,1.348-2.129,2.193c-0.487,0.831-0.73,1.799-0.73,2.903
			c0,0.946,0.157,1.781,0.473,2.505s0.717,1.345,1.204,1.86C113.085,131.391,114.482,131.993,116.146,131.993z"/>
		<path fill="#A7A9AC" d="M143.284,137.068c-2.709,0-5.713-0.502-9.01-1.506v-5.505c2.823,1.62,5.655,2.43,8.494,2.43
			c2.953,0,4.43-0.874,4.43-2.623c0-0.774-0.352-1.398-1.054-1.871c-0.703-0.473-1.9-0.889-3.591-1.247l-1.742-0.388
			c-4.616-1.031-6.925-3.404-6.925-7.117c0-2.38,0.856-4.219,2.57-5.517c1.713-1.298,4.196-1.946,7.451-1.946
			c1.262,0,2.512,0.108,3.752,0.323s2.52,0.552,3.839,1.011v5.505c-1.262-0.788-2.47-1.362-3.623-1.721
			c-1.154-0.357-2.341-0.537-3.56-0.537c-1.434,0-2.537,0.207-3.312,0.624c-0.774,0.416-1.161,0.975-1.161,1.677
			c0,0.646,0.361,1.201,1.086,1.667c0.724,0.465,1.896,0.885,3.516,1.258l2.043,0.494c2.294,0.546,3.975,1.42,5.043,2.624
			s1.603,2.796,1.603,4.774C153.134,134.538,149.851,137.068,143.284,137.068z"/>
		<path fill="#A7A9AC" d="M159.929,112.359h5.656l0.623,3.612c1.334-2.795,3.47-4.193,6.409-4.193c2.709,0,4.83,1.122,6.365,3.366
			c1.533,2.244,2.301,5.344,2.301,9.301c0,3.956-0.768,7.05-2.301,9.279c-1.535,2.229-3.643,3.344-6.322,3.344
			c-2.825,0-4.976-1.341-6.452-4.021v12.559h-6.279V112.359z M170.617,131.821c1.318,0,2.376-0.686,3.172-2.054
			c0.795-1.369,1.193-3.208,1.193-5.517c0-2.25-0.384-4.031-1.15-5.344c-0.768-1.312-1.817-1.967-3.15-1.967
			c-1.362,0-2.449,0.677-3.258,2.031c-0.811,1.355-1.216,3.158-1.216,5.409c0,2.25,0.401,4.054,1.204,5.408
			S169.283,131.821,170.617,131.821z"/>
		<path fill="#A7A9AC" d="M193.627,137.068c-2.495,0-4.513-0.713-6.054-2.14c-1.542-1.427-2.312-3.48-2.312-6.161
			c0-1.691,0.304-3.072,0.914-4.14c0.608-1.068,1.44-1.896,2.494-2.484c1.054-0.588,2.247-0.992,3.58-1.215
			c1.334-0.223,2.731-0.333,4.193-0.333h4.365v-1.054c0-0.86-0.226-1.513-0.677-1.957c-0.452-0.444-1.032-0.745-1.742-0.903
			s-1.438-0.236-2.183-0.236c-1.52,0-2.979,0.208-4.376,0.624s-2.792,1.003-4.183,1.763v-5.376c1.49-0.602,2.971-1.035,4.44-1.301
			s2.957-0.398,4.462-0.398c2.638,0,4.724,0.377,6.258,1.13c1.534,0.752,2.627,1.913,3.279,3.483
			c0.652,1.569,0.979,3.566,0.979,5.989c0,0.559-0.01,1.276-0.031,2.15c-0.022,0.874-0.033,1.749-0.033,2.623
			c0,0.774-0.007,1.506-0.021,2.193c-0.014,0.688-0.021,1.27-0.021,1.742c0,0.416,0.021,0.957,0.064,1.624
			c0.043,0.666,0.144,1.344,0.302,2.031c0.157,0.688,0.4,1.262,0.73,1.721h-6.235c-0.273-0.459-0.474-0.889-0.603-1.29
			s-0.223-0.868-0.279-1.397c-0.847,1.132-1.903,1.967-3.172,2.505C196.497,136.8,195.117,137.068,193.627,137.068z
			 M195.691,132.703c1.318,0,2.347-0.362,3.086-1.087c0.737-0.723,1.261-1.634,1.569-2.73c0.308-1.097,0.462-2.204,0.462-3.322
			v-0.431h-2.516c-0.989,0-1.972,0.068-2.946,0.204c-0.975,0.137-1.781,0.474-2.419,1.012c-0.639,0.537-0.957,1.422-0.957,2.655
			c0,1.175,0.326,2.086,0.979,2.731C193.602,132.38,194.516,132.703,195.691,132.703z"/>
		<path fill="#A7A9AC" d="M224.98,137.068c-3.814,0-6.778-1.111-8.893-3.333c-2.115-2.223-3.172-5.319-3.172-9.29
			c0-3.986,1.046-7.1,3.14-9.344c2.093-2.244,5.003-3.366,8.731-3.366c2.551,0,4.995,0.616,7.332,1.85v5.764
			c-1.863-1.635-3.964-2.452-6.301-2.452c-2.107,0-3.72,0.653-4.838,1.957c-1.118,1.305-1.678,3.161-1.678,5.57
			c0,2.395,0.556,4.239,1.667,5.537c1.11,1.298,2.698,1.946,4.763,1.946c2.452,0,4.581-0.825,6.387-2.474v5.785
			C229.983,136.451,227.604,137.068,224.98,137.068z"/>
		<path fill="#A7A9AC" d="M250.699,137.068c-4.143,0-7.293-1.072-9.451-3.215c-2.158-2.144-3.236-5.244-3.236-9.301
			c0-2.566,0.444-4.807,1.333-6.721c0.889-1.913,2.219-3.4,3.989-4.462s3.989-1.592,6.656-1.592c2.193,0,4.093,0.509,5.698,1.527
			s2.85,2.434,3.731,4.247c0.881,1.813,1.322,3.925,1.322,6.333v2.56H244.42c0,3.755,2.193,5.634,6.581,5.634
			c2.881,0,5.791-0.868,8.73-2.602v5.784C256.807,136.466,253.796,137.068,250.699,137.068z M254.398,121.714
			c0-1.663-0.408-2.922-1.226-3.774s-1.986-1.279-3.506-1.279c-1.548,0-2.76,0.438-3.634,1.312
			c-0.875,0.875-1.391,2.122-1.549,3.742H254.398z"/>
		<path fill="#A7A9AC" d="M275.859,137.068c-2.709,0-5.713-0.502-9.01-1.506v-5.505c2.824,1.62,5.655,2.43,8.494,2.43
			c2.953,0,4.43-0.874,4.43-2.623c0-0.774-0.352-1.398-1.054-1.871s-1.899-0.889-3.591-1.247l-1.742-0.388
			c-4.616-1.031-6.925-3.404-6.925-7.117c0-2.38,0.856-4.219,2.57-5.517c1.713-1.298,4.196-1.946,7.451-1.946
			c1.261,0,2.513,0.108,3.753,0.323c1.239,0.215,2.519,0.552,3.838,1.011v5.505c-1.262-0.788-2.47-1.362-3.623-1.721
			c-1.154-0.357-2.341-0.537-3.56-0.537c-1.434,0-2.537,0.207-3.312,0.624c-0.773,0.416-1.161,0.975-1.161,1.677
			c0,0.646,0.362,1.201,1.086,1.667c0.724,0.465,1.896,0.885,3.517,1.258l2.043,0.494c2.293,0.546,3.975,1.42,5.042,2.624
			c1.068,1.204,1.603,2.796,1.603,4.774C285.709,134.538,282.426,137.068,275.859,137.068z"/>
	</g>
</g>
</svg>
