<?xml version="1.0" encoding="utf-8"?>
<!-- Generator: Adobe Illustrator 16.0.0, SVG Export Plug-In . SVG Version: 6.00 Build 0)  -->
<!DOCTYPE svg PUBLIC "-//W3C//DTD SVG 1.1//EN" "http://www.w3.org/Graphics/SVG/1.1/DTD/svg11.dtd">
<svg version="1.1" id="Layer_1" xmlns="http://www.w3.org/2000/svg" xmlns:xlink="http://www.w3.org/1999/xlink" x="0px" y="0px"
	 width="184.663px" height="69.473px" viewBox="0 0 184.663 69.473" enable-background="new 0 0 184.663 69.473"
	 xml:space="preserve">
<g>
	<linearGradient id="SVGID_1_" gradientUnits="userSpaceOnUse" x1="136.1758" y1="48.5137" x2="105.8275" y2="18.1654">
		<stop  offset="0" style="stop-color:#FCAC21"/>
		<stop  offset="0.1828" style="stop-color:#EE8F39"/>
		<stop  offset="1" style="stop-color:#E6528B"/>
	</linearGradient>
	<path fill="url(#SVGID_1_)" d="M147.269,33.339c0,5.44-4.409,9.851-9.851,9.851h-32.833c-5.44,0-9.851-4.41-9.851-9.851l0,0
		c0-5.44,4.41-9.85,9.851-9.85h32.833C142.859,23.489,147.269,27.899,147.269,33.339L147.269,33.339z"/>
	<linearGradient id="SVGID_2_" gradientUnits="userSpaceOnUse" x1="163.9717" y1="24.9951" x2="143.1845" y2="4.208">
		<stop  offset="0" style="stop-color:#EC7F00"/>
		<stop  offset="1" style="stop-color:#EC7FFF"/>
	</linearGradient>
	<path fill="url(#SVGID_2_)" d="M163.332,7.833l0.006-0.006l-4.846-4.844c-0.028-0.029-0.045-0.071-0.074-0.099
		c-3.316-3.314-8.613-3.891-12.588-1.109c-4.456,3.121-5.539,9.262-2.419,13.718l12.281,17.78l7.312-10.572
		C166.533,17.576,167.031,11.932,163.332,7.833z"/>
	<linearGradient id="SVGID_3_" gradientUnits="userSpaceOnUse" x1="170.1719" y1="51.8867" x2="144.7264" y2="26.4412">
		<stop  offset="0" style="stop-color:#FCAC21"/>
		<stop  offset="0.1828" style="stop-color:#EE8F39"/>
		<stop  offset="1" style="stop-color:#E6528B"/>
	</linearGradient>
	<path fill="url(#SVGID_3_)" d="M181.709,26.2L163.338,7.828l-0.006,0.006c3.699,4.099,3.201,9.743-0.328,14.868l-7.312,10.572
		L143.49,50.916c-3.121,4.456-2.037,10.598,2.419,13.718c3.974,2.782,9.286,2.22,12.603-1.094c0.029-0.028,0.061-0.056,0.09-0.085
		l4.736-4.736l18.48-18.48c0.574-0.574,1.061-1.203,1.463-1.867c0.022-0.037,0.046-0.072,0.067-0.109
		c0.021-0.035,0.04-0.072,0.061-0.108C185.549,34.37,184.93,29.42,181.709,26.2z"/>
	<linearGradient id="SVGID_4_" gradientUnits="userSpaceOnUse" x1="17.1577" y1="40.1738" x2="3.2269" y2="26.243">
		<stop  offset="0" style="stop-color:#FCAC21"/>
		<stop  offset="0.1828" style="stop-color:#EE8F39"/>
		<stop  offset="1" style="stop-color:#E6528B"/>
	</linearGradient>
	<circle fill="url(#SVGID_4_)" cx="10.191" cy="33.208" r="9.85"/>
	<linearGradient id="SVGID_5_" gradientUnits="userSpaceOnUse" x1="40.7969" y1="40.1729" x2="26.8674" y2="26.2434">
		<stop  offset="0" style="stop-color:#FCAC21"/>
		<stop  offset="0.1828" style="stop-color:#EE8F39"/>
		<stop  offset="1" style="stop-color:#E6528B"/>
	</linearGradient>
	<circle fill="url(#SVGID_5_)" cx="33.832" cy="33.208" r="9.85"/>
	<linearGradient id="SVGID_6_" gradientUnits="userSpaceOnUse" x1="64.437" y1="40.1729" x2="50.5062" y2="26.242">
		<stop  offset="0" style="stop-color:#FCAC21"/>
		<stop  offset="0.1828" style="stop-color:#EE8F39"/>
		<stop  offset="1" style="stop-color:#E6528B"/>
	</linearGradient>
	<circle fill="url(#SVGID_6_)" cx="57.472" cy="33.208" r="9.85"/>
	<linearGradient id="SVGID_7_" gradientUnits="userSpaceOnUse" x1="88.0781" y1="40.1738" x2="74.1473" y2="26.243">
		<stop  offset="0" style="stop-color:#FCAC21"/>
		<stop  offset="0.1828" style="stop-color:#EE8F39"/>
		<stop  offset="1" style="stop-color:#E6528B"/>
	</linearGradient>
	<circle fill="url(#SVGID_7_)" cx="81.112" cy="33.208" r="9.85"/>
	<g>
		<path fill="#B3B3B3" d="M7.347,65.143c-1.129,0-2.015-0.115-2.658-0.349c-0.643-0.232-1.096-0.632-1.359-1.2
			c-0.264-0.568-0.395-1.348-0.395-2.34v-5.335H0V53.61h2.935v-3.14l3.006-1.334v4.474h3.93v2.309h-3.93v5.479
			c0,0.506,0.128,0.871,0.385,1.098c0.256,0.226,0.668,0.338,1.236,0.338h2.309v2.309H7.347z"/>
		<path fill="#B3B3B3" d="M16.479,65.399c-1.19,0-2.153-0.341-2.889-1.021c-0.735-0.681-1.103-1.66-1.103-2.939
			c0-0.808,0.146-1.466,0.436-1.976c0.291-0.51,0.688-0.905,1.19-1.185c0.503-0.281,1.072-0.475,1.708-0.58
			c0.636-0.106,1.303-0.159,2-0.159h2.083v-0.503c0-0.41-0.107-0.722-0.323-0.934c-0.215-0.212-0.492-0.355-0.831-0.432
			c-0.338-0.074-0.686-0.112-1.042-0.112c-0.725,0-1.421,0.099-2.088,0.298c-0.667,0.198-1.333,0.479-1.996,0.842v-2.566
			c0.711-0.287,1.417-0.494,2.119-0.62s1.411-0.19,2.129-0.19c1.259,0,2.254,0.18,2.986,0.539s1.253,0.914,1.565,1.662
			c0.311,0.75,0.467,1.702,0.467,2.857c0,0.268-0.005,0.609-0.015,1.026s-0.016,0.835-0.016,1.252c0,0.369-0.003,0.718-0.01,1.046
			c-0.007,0.329-0.01,0.605-0.01,0.832c0,0.198,0.01,0.456,0.031,0.774c0.021,0.317,0.068,0.642,0.144,0.97s0.191,0.602,0.349,0.82
			h-2.976c-0.13-0.219-0.226-0.424-0.288-0.615s-0.106-0.414-0.133-0.667c-0.404,0.54-0.908,0.938-1.513,1.195
			S17.189,65.399,16.479,65.399z M17.463,63.316c0.629,0,1.12-0.172,1.472-0.518c0.353-0.346,0.602-0.78,0.749-1.304
			c0.147-0.522,0.221-1.052,0.221-1.585v-0.205h-1.2c-0.472,0-0.941,0.032-1.406,0.098c-0.465,0.064-0.85,0.226-1.154,0.482
			c-0.305,0.256-0.457,0.678-0.457,1.267c0,0.562,0.155,0.995,0.467,1.304C16.466,63.162,16.902,63.316,17.463,63.316z"/>
		<path fill="#B3B3B3" d="M31.756,65.399c-1.402,0-2.421-0.667-3.058-2.001l-0.298,1.703h-2.698V49.137h2.996v6.105
			c0.725-1.273,1.744-1.909,3.058-1.909c1.286,0,2.296,0.532,3.032,1.596s1.103,2.54,1.103,4.427c0,1.889-0.366,3.367-1.098,4.438
			C34.061,64.864,33.049,65.399,31.756,65.399z M30.802,62.938c0.629,0,1.134-0.327,1.514-0.98c0.379-0.652,0.569-1.53,0.569-2.632
			c0-1.073-0.183-1.924-0.549-2.55c-0.366-0.626-0.867-0.938-1.503-0.938c-0.65,0-1.168,0.323-1.554,0.97
			c-0.387,0.646-0.58,1.506-0.58,2.58s0.191,1.934,0.574,2.58C29.656,62.613,30.166,62.938,30.802,62.938z"/>
		<path fill="#B3B3B3" d="M43.063,65.399c-1.293,0-2.726-0.239-4.299-0.718v-2.627c1.347,0.773,2.698,1.159,4.053,1.159
			c1.409,0,2.114-0.417,2.114-1.251c0-0.37-0.168-0.668-0.503-0.894s-0.906-0.424-1.713-0.595l-0.831-0.186
			c-2.203-0.492-3.304-1.624-3.304-3.396c0-1.136,0.409-2.013,1.226-2.632c0.817-0.619,2.002-0.929,3.555-0.929
			c0.602,0,1.199,0.052,1.791,0.153c0.591,0.104,1.202,0.264,1.832,0.482v2.627c-0.602-0.376-1.179-0.649-1.729-0.82
			c-0.551-0.171-1.117-0.257-1.698-0.257c-0.684,0-1.21,0.099-1.58,0.298c-0.369,0.198-0.554,0.465-0.554,0.801
			c0,0.307,0.173,0.572,0.519,0.795c0.345,0.223,0.904,0.422,1.677,0.6l0.975,0.236c1.094,0.26,1.896,0.678,2.406,1.252
			s0.765,1.334,0.765,2.277C47.763,64.192,46.196,65.399,43.063,65.399z"/>
		<path fill="#CCCCCC" d="M54.976,65.399c-1.512,0-2.747-0.448-3.704-1.345c-0.951-0.889-1.426-2.051-1.426-3.488
			c0-0.533,0.062-1.019,0.185-1.457c0.123-0.438,0.304-0.854,0.543-1.252c0.486-0.807,1.201-1.514,2.145-2.123
			c-0.185-0.295-0.338-0.564-0.461-0.811c-0.124-0.246-0.223-0.473-0.298-0.678c-0.164-0.451-0.246-0.898-0.246-1.344
			c0-1.067,0.373-1.902,1.118-2.504c0.752-0.595,1.83-0.893,3.232-0.893c0.26,0,0.509,0.01,0.749,0.031
			c0.239,0.02,0.479,0.047,0.718,0.082c0.492,0.075,0.964,0.185,1.416,0.328v2.627c-0.875-0.5-1.768-0.75-2.678-0.75
			c-0.547,0-0.958,0.097-1.231,0.288c-0.28,0.198-0.42,0.472-0.42,0.821c0,0.137,0.024,0.285,0.072,0.445
			c0.048,0.161,0.13,0.357,0.246,0.59c0.205,0.425,0.54,0.989,1.005,1.693l3.212,4.926c0.144-0.247,0.253-0.545,0.328-0.893
			c0.075-0.377,0.113-0.739,0.113-1.088c0-0.096-0.001-0.199-0.005-0.309c-0.004-0.109-0.009-0.208-0.016-0.297
			c-0.007-0.178-0.027-0.359-0.062-0.544h2.411v0.522c0,1.014-0.116,1.879-0.349,2.597c-0.233,0.753-0.599,1.419-1.098,2.001
			l1.663,2.523h-3.253l-0.492-0.738c-0.267,0.178-0.53,0.326-0.79,0.446c-0.26,0.12-0.541,0.228-0.841,0.323
			c-0.288,0.088-0.571,0.155-0.852,0.199C55.629,65.377,55.317,65.399,54.976,65.399z M55.417,62.979
			c0.164,0,0.355-0.024,0.574-0.072c0.096-0.021,0.187-0.043,0.272-0.066c0.085-0.024,0.19-0.063,0.313-0.118l0.082-0.041
			c0.137-0.068,0.231-0.116,0.282-0.144s0.118-0.068,0.2-0.123l-3.16-4.813c-0.452,0.294-0.79,0.643-1.016,1.047
			c-0.233,0.396-0.349,0.858-0.349,1.385c0,0.451,0.075,0.85,0.226,1.195s0.342,0.641,0.575,0.888
			C53.956,62.691,54.623,62.979,55.417,62.979z"/>
		<path fill="#B3B3B3" d="M68.366,65.399c-1.293,0-2.726-0.239-4.299-0.718v-2.627c1.348,0.773,2.699,1.159,4.053,1.159
			c1.409,0,2.114-0.417,2.114-1.251c0-0.37-0.167-0.668-0.502-0.894c-0.335-0.226-0.907-0.424-1.714-0.595l-0.831-0.186
			c-2.203-0.492-3.304-1.624-3.304-3.396c0-1.136,0.409-2.013,1.226-2.632s2.002-0.929,3.555-0.929c0.602,0,1.199,0.052,1.791,0.153
			c0.591,0.104,1.202,0.264,1.832,0.482v2.627c-0.602-0.376-1.179-0.649-1.729-0.82c-0.551-0.171-1.117-0.257-1.698-0.257
			c-0.684,0-1.21,0.099-1.58,0.298c-0.369,0.198-0.554,0.465-0.554,0.801c0,0.307,0.172,0.572,0.518,0.795
			c0.345,0.223,0.904,0.422,1.677,0.6l0.975,0.236c1.094,0.26,1.896,0.678,2.406,1.252c0.51,0.574,0.765,1.334,0.765,2.277
			C73.065,64.192,71.499,65.399,68.366,65.399z"/>
		<path fill="#B3B3B3" d="M76.307,53.61h2.699l0.297,1.724c0.636-1.334,1.655-2.001,3.058-2.001c1.293,0,2.305,0.536,3.037,1.606
			s1.098,2.549,1.098,4.438c0,1.888-0.366,3.363-1.098,4.427s-1.738,1.596-3.017,1.596c-1.348,0-2.374-0.64-3.078-1.919v5.992
			h-2.996V53.61z M81.407,62.896c0.629,0,1.134-0.327,1.513-0.98c0.38-0.653,0.57-1.53,0.57-2.632c0-1.073-0.183-1.924-0.549-2.55
			c-0.366-0.626-0.867-0.939-1.503-0.939c-0.65,0-1.168,0.324-1.555,0.971c-0.386,0.646-0.58,1.506-0.58,2.58
			s0.191,1.934,0.575,2.58C80.261,62.572,80.771,62.896,81.407,62.896z"/>
		<path fill="#B3B3B3" d="M92.385,65.399c-1.19,0-2.153-0.341-2.888-1.021c-0.735-0.681-1.103-1.66-1.103-2.939
			c0-0.808,0.145-1.466,0.436-1.976c0.291-0.51,0.688-0.905,1.19-1.185c0.502-0.281,1.072-0.475,1.708-0.58
			c0.636-0.106,1.303-0.159,2.001-0.159h2.083v-0.503c0-0.41-0.107-0.722-0.323-0.934s-0.493-0.355-0.831-0.432
			c-0.339-0.074-0.686-0.112-1.042-0.112c-0.725,0-1.421,0.099-2.088,0.298c-0.667,0.198-1.333,0.479-1.996,0.842v-2.566
			c0.711-0.287,1.417-0.494,2.119-0.62s1.411-0.19,2.129-0.19c1.258,0,2.254,0.18,2.985,0.539s1.253,0.914,1.565,1.662
			c0.311,0.75,0.467,1.702,0.467,2.857c0,0.268-0.006,0.609-0.016,1.026c-0.011,0.417-0.016,0.835-0.016,1.252
			c0,0.369-0.004,0.718-0.01,1.046c-0.008,0.329-0.011,0.605-0.011,0.832c0,0.198,0.011,0.456,0.03,0.774
			c0.021,0.317,0.068,0.642,0.145,0.97c0.074,0.328,0.191,0.602,0.348,0.82h-2.975c-0.131-0.219-0.227-0.424-0.287-0.615
			c-0.063-0.191-0.106-0.414-0.134-0.667c-0.403,0.54-0.908,0.938-1.514,1.195C93.756,65.271,93.097,65.399,92.385,65.399z
			 M93.371,63.316c0.629,0,1.12-0.172,1.472-0.518s0.602-0.78,0.749-1.304c0.146-0.522,0.221-1.052,0.221-1.585v-0.205h-1.201
			c-0.471,0-0.939,0.032-1.405,0.098c-0.465,0.064-0.85,0.226-1.154,0.482c-0.304,0.256-0.457,0.678-0.457,1.267
			c0,0.562,0.156,0.995,0.467,1.304C92.374,63.162,92.81,63.316,93.371,63.316z"/>
		<path fill="#B3B3B3" d="M107.346,65.399c-1.82,0-3.234-0.53-4.243-1.591c-1.009-1.06-1.514-2.537-1.514-4.432
			c0-1.902,0.499-3.388,1.498-4.459c0.999-1.07,2.388-1.605,4.166-1.605c1.218,0,2.384,0.295,3.499,0.883v2.75
			c-0.89-0.78-1.892-1.17-3.007-1.17c-1.005,0-1.774,0.311-2.309,0.934c-0.533,0.623-0.8,1.508-0.8,2.657
			c0,1.143,0.265,2.022,0.795,2.642c0.529,0.619,1.287,0.93,2.272,0.93c1.17,0,2.186-0.394,3.048-1.181v2.761
			C109.732,65.105,108.598,65.399,107.346,65.399z"/>
		<path fill="#B3B3B3" d="M119.617,65.399c-1.978,0-3.48-0.511-4.51-1.534c-1.029-1.021-1.545-2.502-1.545-4.438
			c0-1.225,0.213-2.293,0.637-3.206s1.059-1.623,1.903-2.13c0.845-0.506,1.903-0.759,3.176-0.759c1.046,0,1.952,0.243,2.719,0.729
			s1.359,1.161,1.78,2.026s0.631,1.873,0.631,3.021v1.221h-7.787c0,1.793,1.046,2.689,3.139,2.689c1.375,0,2.764-0.414,4.166-1.242
			v2.76C122.531,65.112,121.094,65.399,119.617,65.399z M121.381,58.073c0-0.793-0.194-1.394-0.584-1.8
			c-0.391-0.408-0.947-0.611-1.673-0.611c-0.739,0-1.317,0.209-1.733,0.626c-0.418,0.417-0.664,1.013-0.739,1.785H121.381z"/>
		<path fill="#B3B3B3" d="M131.621,65.399c-1.293,0-2.726-0.239-4.299-0.718v-2.627c1.348,0.773,2.699,1.159,4.053,1.159
			c1.409,0,2.113-0.417,2.113-1.251c0-0.37-0.167-0.668-0.502-0.894c-0.336-0.226-0.906-0.424-1.714-0.595l-0.831-0.186
			c-2.203-0.492-3.304-1.624-3.304-3.396c0-1.136,0.409-2.013,1.226-2.632c0.818-0.619,2.003-0.929,3.556-0.929
			c0.603,0,1.198,0.052,1.79,0.153c0.592,0.104,1.203,0.264,1.832,0.482v2.627c-0.602-0.376-1.178-0.649-1.729-0.82
			s-1.117-0.257-1.699-0.257c-0.684,0-1.21,0.099-1.58,0.298c-0.369,0.198-0.553,0.465-0.553,0.801c0,0.307,0.172,0.572,0.518,0.795
			s0.904,0.422,1.678,0.6l0.975,0.236c1.094,0.26,1.896,0.678,2.406,1.252s0.764,1.334,0.764,2.277
			C136.32,64.192,134.754,65.399,131.621,65.399z"/>
	</g>
	<path opacity="0.2" d="M163.332,7.833l0.006-0.006l-4.846-4.844c-0.028-0.029-0.045-0.071-0.074-0.099
		c-3.316-3.314-8.613-3.891-12.588-1.109c-4.456,3.121-5.539,9.262-2.419,13.718l12.281,17.78l7.312-10.572
		C166.533,17.576,167.031,11.932,163.332,7.833z"/>
</g>
</svg>
