<?xml version="1.0" encoding="UTF-8"?>
<svg viewBox="0 0 900 350" xmlns="http://www.w3.org/2000/svg">
 <path d="m821.5,115.5v1.5h.3 .2l-.8,7.5q-.7,7.5-1.7,8.5t-.7,3.8q.2,2.7-3.3,6.4-3.5,3.8-5.7,4.3-2.3.5-.8,7t3.8,8.7q2.2,2.3 14.7,8.8t27.5,11 19.8,9.2q4.7,4.8 7.2,9.8t4,14 3,28 3,24 2.5,14.5 1.5,11l.5,1.5 1,3 1.5,4.5 .5,1.5h.3 .2v2 2h-15.5q-15.5,0-20.3-7.5l-4.7-7.5-.3-.2-.2-.3-.2-.3-.3-.2-.3-.2-.2-.3-1.5-.5-1.5-.5-1-.3-1-.2-.2,3q-.3,3-1,9-.8,6-60.8,6h-60l-.2-8.5-.3-8.5-.3.2-.2.3-.2.3-.3.2-.3.2-.2.3-.2.3-.3.2-.3.2-.2.3-.2.3-.3.2-.5,1-.5,1-.3.2-.2.3-.2.3-.3.2-.5,1q-.5,1-2.2,5.5-1.8,4.5-17.8,4.5h-16l.2-1.5 .3-1.5 .5-1.5 .5-1.5 .5-1.5q.5-1.5 3.5-7.5t4.7-21l1.8-15h.2 .3l2-25.5q2-25.5 5.5-32.5t8.8-11.2q5.2-4.3 23.2-9.3t19.5-5.5l1.5-.5 1-.5 1-.5 .2-.3 .3-.2v-2.5-2.5l-.5-1-.5-1-.5-1.5q-.5-1.5-1-2.5t-2.8-1.8q-2.2-.7-9.2-6-7-5.2-6.8-7.2 .3-2-2.4-3.2-2.8-1.3-3.6-2.6-.7-1.2 0-4.7 .8-3.5-.2-3.5t0-2.8q1-2.7 1.8-6 .7-3.2-.6-5.2l-1.2-2 .2-5.5q.3-5.5 4.3-11.5t4.3-7.5q.2-1.5 2-2 1.7-.5 2-1.5 .2-1 3-2 2.7-1 6-1.8 3.2-.7 7.2-2 4-1.2 4-.2t2.8,0q2.7-1 4.4-3.2 1.8-2.3 4.8-2.6 3-.2 3.8,1.8 .7,2 3.4.5 2.8-1.5 3.3.5t2.5,1.5 2.5.7q.5,1.3 1.7,2 1.3.8 1,2.8-.2,2 2.8,1.5t2.2,3q-.7,3.5 1,5.5 1.8,2 4,1.5 2.3-.5 2,2-.2,2.5 2.3,2.5t1.7,2.5q-.7,2.5 2,3 2.8.5 3.3,3.7 .5,3.3.3,3.6-.3.2-.3,1.7z" fill-rule="evenodd" stroke="#000" stroke-width=".5"/>
 <path d="m323.8,71.8 .2-.3 1-.3 1-.2-.2,1-.3,1-.3.2-.2.3-.2.3-.6.4q-.2.3-1,2.6l-.7,2.2 .3-.2 .2-.3 1-.5 1-.5 14,.5q14,.5 18.8,3.8 4.7,3.2 8.7,10.2t4,15.5-.7,10.3q-.8,1.7 0,10 .7,8.2-1.6,13-2.2,4.7-4,5.4-1.7.8-3.2,6.3t-1,12 21.5,19.5 28,20 10,13 4,14.5 .5,14-.8,7l-.2,1.5-.8,5.5q-.7,5.5-.2,20.5t1.5,19l1.5,6 .5,2 .3.2 .2.3-15.5.3q-15.5.2-16-1.8t-1.5-2-1,2-56,2-56-4.5v-4.5h-1-1l-.2,1.5-.3,1.5-.5,2q-.5,2-.8,3-.2,1-16.2.8l-16-.3 .2-.3 .3-.2 .5-2 2-8q1.5-6 1.8-27l.2-21-.2-3.5q-.3-3.5-.3-14t1.5-16 6-11 14.2-10.7q9.8-5.3 22.8-11.8t17.5-7.8q4.5-1.2 4.3-5.2-.3-4-3-12.5-2.8-8.5-5-10-2.3-1.5-5.3-15t-3.5-18 .5-10.5 4.7-11.8q3.8-5.7 9.3-7.2t7.3-5.2l1.7-3.8 .5-1 .5-1 .3-.2 .2-.3 .2-.3 .3-.2 .3-.2z" fill-rule="evenodd" stroke="#000" stroke-width=".5"/>
 <path d="m601,107.5 .5,1.5 .3.5 .2.5v.2 .3l.2.3 .3.2 9.7,14.8q9.8,14.7 10.6,15.4 .7.8 1,1l.2.3 .2.3 .3.2 .3.2 .2.3 .2.3 .3.2 .5,1 .5,1 .5,1q.5,1 2.2,5 1.8,4 .8,3.8-1-.3-2.8-4.6l-1.7-4.2-.3-.2-.2-.3-.2-.3-.3-.2-.3-.2q-.2-.3-1-1.6l-.7-1.2-.3-.2-.2-.3-1-.3-1-.2 .2,3.5 .3,3.5 .3.2 .2.3 .2.3 .3.2 .3.2 .2.3 1,1.7q1,1.8 4.8,4.8 3.7,3 4.7,7t1,10.5v6.5l-.5-5.5q-.5-5.5-1.5-9l-1-3.5-.5-1-.5-1-.3-.2-.2-.3-.2-.3-.3-.2-.3-.2-.2-.3-.2-.3-.3-.2-.3-.2-.2-.3-.2-.3-.3-.2-.3-.2-.2-.3-1-.3-1-.2 .2,1 .3,1 .5,1 .5,1 .5,1 .5,1 2.3,11.8q2.2,11.7 3.4,14.4 1.3,2.8 1.8,9.8t1.8,8.2q1.2,1.3 4.2,1.8t5,0l2-.5 .2-.3 .3-.2 .3-.2 .2-.3 .2-.3 .3-.2 .5-1 .5-1v1.5 1.5l-.3.2-.2.3-.2.3-.3.2-.3,1-.2,1-1,.2-1,.3-.2.3-.3.2-.3.2-.2.3h-3.5q-3.5,0-4.5-.3l-1-.2-.2,3.5-.3,3.5-.3,2.5-.2,2.5 3.5-.2 3.5-.3h1 1l-.2.3-.3.2-.5,1-.5,1-2.3,1.2q-2.2,1.3-1.2,1.6 1,.2.5,2-.5,1.7 1.5,2.2l2,.5-.2.3-.3.2-.3.2-.2.3-4,1.3q-4,1.2-4.8,5.7-.7,4.5-.7,18.5t.3,23l.2,9 .8,5.5q.7,5.5 1.2,7l.5,1.5 .3,1 .2,1h-75.5-75.5l.2-1 .3-1 .5-1.5q.5-1.5 1.2-8.5l.8-7-.2-21.5q-.3-21.5-1.8-28.5t-2-15 1-13 4.8-9.8q3.2-4.7 11.2-7l8-2.2-.2-1-.3-1-.3-.2-.2-.3-.2-.3-.3-.2-.3-.2q-.2-.3-3-3.6l-2.7-3.2v-2-2l.3-1.5 .2-1.5h1 1l.2,1.5 .3,1.5 1.3,2.8q1.2,2.7 1.4,3l.3.2 .3.2 .2.3 1,.5 1,.5h2 2l-.2-.3-.3-.2-.3-.2-.2-.3-.2-.3-.3-.2-.3-.2-.2-.3-.2-.3-.3-.2-.5-1q-.5-1-1-2.5l-.5-1.5-.3-2-.2-2h1 1l.2,1 .3,1 1,2.5q1,2.5 1.3,2.7l.2.3 .2.3 .3.2 .5-1 .5-1 .3.2 .2.3 .2.3 .3.2 .3.2 .2.3 .2.3 .3.2 .3.2 .2.3 .2.3 .3.2v-1-1l-.5-1-.5-1-.5-1-.5-1-.5-1.5q-.5-1.5-1-7.5t1-12 2.2-12.5l.8-6.5h-1-1l-.2,1.5-.3,1.5-.5,3-.5,3-.5-2-.5-2v-1-1l.5-1.5 .5-1.5 1.5-2.5q1.5-2.5 3-9t4-13.5 2.8-8l.2-1 6.8-9q6.7-9 11.4-11.8 4.8-2.7 16.8-3.7t18,2 11.8,11.3q5.7,8.2 7.2,11.2t2,4.5zm-81.8,27.3q-.2-.3 0-.6 .3-.2.3.3t-.3.3z" fill-rule="evenodd" stroke="#000" stroke-width=".5"/>
 <path d="m150,79.5h1l.8,1.7q.7,1.8-1,3-1.8,1.3.2,2 2,.8 2.5,2 .5,1.3 1.5,1 1-.2 1.5,1.6 .5,1.7 2,2 1.5.2 1.5,1.2v1 .2 .3l-1,.5-1,.5-1,.5-1,.5 1.5.5 1.5.5 1,.3q1,.2 1.5-1 .5-1.3.7-1.6l.3-.2 .3.2 .2.3 .2,3.3q.3,3.2 0,4.2l-.2,1 1.5-.2q1.5-.3 2.5.2l1,.5h1 1l.2-.3 .3-.2 .3-.2 .2-.3 .2-.3 .3-.2v2 2l-.3.2-.2.3-.2.3-.3.2-.3.2-.2.3-2,.5q-2,.5-5,1.5l-3,1-.2.3-.3.2-.3.2-.2.3-.2.3-.3.2v1 1l.3,1 .2,1h1.5q1.5,0 1,2.5t.5,2.3l2-.6 1-.2 .2,1 .3,1 .3.2 .2.3 .2.3 .3.2v.5 .5l-.5,1-.5,1-.3-.2-.2-.3-.2-.3q-.3-.2-3-.4l-2.8-.3-.2.3-.3.2-.3.2-.2.3 1,.3 1,.2 .5,1.2q.5,1.3 1.7,1.6 1.3.2 1.3,3.2v3l-.3.2-.2.3-.2.3-.3.2-.3-2-.2-2-1,.2-2,.6q-1,.2-1.2-1.8l-.3-2-.3.2-.2.3-.2.3-.3.2-.3.2-.2.3-.2.3-.3.2-.3.2-.2.3-.2.3-.3.2-.3.2-.2.3-.2.3-.3.2-.3.2-.2.3 .2.3 .3.2 1.5,2.5q1.5,2.5 1,5t-1.5,2.5-2.3-.5q-1.2-.5-1.7,1.5t-6.5,3.5-6.8,11q-.7,9.5 1.3,13.5t8.3,7.2q6.2,3.3 7.2,3.6l1,.2v.2q0,.3.5.6l.5.2h.2 .3l.3.2 .2.3 .2.3 .3.2 .3.2 .2.3 1,.5 1,.5 2,.5q2,.5 7,1t10,3 8.2,7.2q3.3,4.8 3.8,11.8t-2.5,18-7,34-8,32.5-66.7,10q-62.8.5-65-8-2.3-8.5-2.3-31t-1-36-1-24 3.3-17l3.2-6.5 .5-.2q.5-.3.5-.6v-.2l.5-.2q.5-.3.5-.6v-.2l.5-.2q.5-.3.5-.6v-.2l.5-.2q.5-.3.5-.6v-.2l3.5-1.2q3.5-1.3 15.5-1.8t14-2 10-1.8l8-.2 .2-2 .3-2 .3-5q.2-5-2.3-5t-2.5-4.8v-4.7l-.2-.3-.3-.2-.3-.2-.2-.3h-1-1l-.2.3-.3.2-.3.2q-.2.3-2.7.3t-5.5,2l-3,2h-.5-.5l-.2-.3-.3-.2v-1-1l.5-1 .5-1v-1q0-1-.3-5-.2-4 1.8-4h2l.2-1 .3-1 .3-.2 .2-.3h-1.5-3q-1.5,0-1.7-1.7-.3-1.8-2-2.6-1.8-.7-1.6-3.4 .3-2.8-2.4-3l-2.8-.3-1-.5-1-.5-.2-.3-.3-.2-.3-.2-.2-.3 .2-.3 .3-.2 .3-.2 .2-.3 3.5-.3 3.5-.2-.2-1.5-.3-1.5-.3-1-.2-1h-1.5q-1.5,0-1.7-1.5-.3-1.5-3-2.7l-2.8-1.3-.2-.3-.3-.2-.3-.2-.2-.3-.2-.3-.3-.2-.5-1-.5-1-.3-1-.2-1 1,.2 1,.3 1.5,1q1.5,1 2,.5t1.5-1l1-.5 .2-.3 .3-.2 .5-1 .5-1v-1q0-1-.3-1h-.2v-.2-.3l-1-.5q-1-.5-2-.8l-1-.2 .2-1 .3-1 .3-.2 .2-.3 4-.3q4-.2 4-1.2t4-1.2l4-.3 1-.3 1-.2v-1-1l-1-.2-1-.3h-1q-1,0-1.8-.7-.7-.8-2.4-1.6l-1.8-.7-.2-.3-.3-.2-.3-2.5-.2-2.5 1,.2 1,.3 .2.3 .3.2 .3.2 .2.3 1,.5 1,.5 .2.3 .3.2 3.3.8q3.2.7 7.2,0 4-.8 5-3.8t4.8-4q3.7-1 9-2.5 5.2-1.5 5.7-3.3 .5-1.7 2.7-1 2.3.8 3.3-.7t1.7,1q.8,2.5 3,2.5 2.3,0 3,1.2 .8,1.3 5.8.8t9,.5 4.5,1h1.5z" fill-rule="evenodd" stroke="#000" stroke-width=".5"/>
 <path d="m229.8,114-.8-114h106 106l-.8,118q-.7,118-2,125.5-1.2,7.5-3,8-1.7.5-2.2-3.5t-1.2-.5q-.8,3.5-2,4-1.3.5-1.8-.5t-1.2.2q-.8,1.3-2,2-1.3.8-1.6.8h-.2l.2-1.5q.3-1.5.8-7t-.5-14-4-14.5-10-13-28-20-21.5-19.5 1-12 3.2-6.3q1.8-.7 4-5.4 2.3-4.8 1.6-13-.8-8.3 0-10 .7-1.8.7-10.3t-4-15.5-8.7-10.2q-4.8-3.3-18.8-3.8l-14-.5-1,.5-1,.5-.2.3-.3.2 .7-2.2q.8-2.3 1-2.6l.6-.4 .2-.3 .2-.3 .3-.2 .3-1 .2-1-1,.2-1,.3-.2.3-.3.2-.3.2-.2.3-.2.3-.3.2-.5,1-.5,1-1.7,3.8q-1.8,3.7-7.3,5.2t-9.3,7.2q-3.7,5.8-4.7,11.8t-.5,10.5 3.5,18 5.3,15q2.2,1.5 5,10 2.7,8.5 3,12.5 .2,4-4.3,5.2-4.5,1.3-17.5,7.8t-22.8,11.8q-9.7,5.2-14.2,10.7t-6,11-1.5,16 .3,14l.2,3.5-1,.2-1,.3-.2.3-.3.2-.3-1.5-.2-1.5-1.5-.2q-1.5-.3-3-.8t-2.7-4.8l-1.3-4.2-.5,4.5-.5,4.5-.5,1-.5,1-.3-.2-.2-.3-1-.3-1-.2-.2-2.5-.3-2.5-.5-3q-.5-3-1-7t-1.2-118z" fill="#b1dde7" fill-rule="evenodd" stroke="#b1dde7" stroke-width=".5"/>
 <path d="m457 15v-15h213v25h-0.2q-0.3 0-0.8 1.5t-1.8 1q-1.2-0.5-1.2 0.5t-102 1.2q-102 0.3-102.8-1l-0.7-1.2-0.5 1q-0.5 1-1.8 1.5l-1.2 0.5v-15z" fill="#6c1800" fill-rule="evenodd" stroke="#6c1800" stroke-width=".5"/>
 <path d="m0 24.5v-24.5h213v46l-0.5 0.2q-0.5 0.3-100.5 0.3t-105 0.5-5.8 1.2l-0.7 0.8h-0.5v-24.5z" fill="#9d536b" fill-rule="evenodd" stroke="#9d536b" stroke-width=".5"/>
 <path d="m687,55v-55h106.5 106.5v56 56l-.5.2q-.5.3-1,.3t-5,.5-36,.8q-31.5.2-31.7,1.2-.3,1-2,.5l-1.8-.5v1 1h-.2-.3v-1.5q0-1.5.3-1.7 .2-.3-.3-3.6-.5-3.2-3.3-3.7-2.7-.5-2-3 .8-2.5-1.7-2.5t-2.3-2.5q.3-2.5-2-2-2.2.5-4-1.5-1.7-2-1-5.5 .8-3.5-2.2-3t-2.8-1.5q.3-2-1-2.8-1.2-.7-1.7-2-.5-1.2-2.5-.7t-2.5-1.5-3.3-.5q-2.7,1.5-3.4-.5-.8-2-3.8-1.8-3,.3-4.8,2.6-1.7,2.2-4.4,3.2-2.8,1-2.8,0t-4,.2q-4,1.3-7.2,2-3.3.8-6,1.8-2.8,1-3,2-.3,1-2,1.5-1.8.5-2,2-.3,1.5-4.3,7.5t-4.3,11.5l-.2,5.5-.5-.2-.5-.3-.2-.3-.3-.2-.3-1-.2-1h-1q-1,0-1.2-1.5-.3-1.5-16.6-.7-16.2.7-20.7.2t-5.7.8l-1.3,1.2-.5-1-.5-1h-.3-.2v-55z" fill="#7b722f" fill-rule="evenodd" stroke="#7b722f" stroke-width=".5"/>
 <path d="m212.5,46.2 .5-.2v20.5 20.5l-1,.2q-1,.3-23,1-22,.8-22,1.8t-2,.5-2,.5-1,1h-1l-.2,1.5-.3,1.5h-.3-.2v-1q0-1-1.5-1.2-1.5-.3-2-2-.5-1.8-1.5-1.6-1,.3-1.5-1-.5-1.2-2.5-2-2-.7-.2-2 1.7-1.2 1-3l-.8-1.7h-1-1.5q-.5,0-4.5-1t-9-.5-5.8-.8q-.7-1.2-3-1.2-2.2,0-3-2.5-.7-2.5-1.7-1t-3.3.7q-2.2-.7-2.7,1-.5,1.8-5.7,3.3-5.3,1.5-9,2.5-3.8,1-4.8,4t-5,3.8q-4,.7-7.2,0l-3.3-.8-.3-.2-.2-.3-1-.5-1-.5-.2-.3-.3-.2-.3-.2-.2-.3-1-.3-1-.2 .2,2.5 .3,2.5 .3.2 .2.3 1.8.7q1.7.8 2.4,1.6 .8.7 1.8.7h1l1,.3 1,.2v1 1l-1,.2-1,.3-4,.3q-4,.2-4,1.2t-4,1.2l-4,.3-.2.3-.3.2-.3,1-.2,1 1,.2q1,.3 2,.8l1,.5v.3 .2l-2-.2-2-.3-.2-.3q-.3-.2-.8.8t-4.2-.8q-3.8-1.7-30.3-2.2t-27.7.2l-1.3.8-.5,1-.5,1h-.3-.2v-27-27h.2 .3l.7-.8q.8-.7 5.8-1.2t105-.5 100.5-.3z" fill="#c2778f" fill-rule="evenodd" stroke="#c2778f" stroke-width=".5"/>
 <path d="m668.5,104.8 1.5.2-.8,89.5q-.7,89.5-1.2,92t-1.2,1.7q-.8-.7-1.8.3t-14.5.7q-13.5-.2-13.5.8t-1.8,1.5q-1.7.5-2,.5h-.2l-.2-9q-.3-9-.3-23t.7-18.5q.8-4.5 4.8-5.7l4-1.3 .2-.3 .3-.2 .3-.2 .2-.3-2-.5q-2-.5-1.5-2.2 .5-1.8-.5-2-1-.3 1.2-1.6l2.3-1.2 .5-1 .5-1 .3-.2 .2-.3h-1-1l-3.5.3-3.5.2 .2-2.5 .3-2.5 .3-3.5 .2-3.5 1,.2q1,.3 4.5.3h3.5l.2-.3 .3-.2 .3-.2 .2-.3 1-.3 1-.2 .2-1 .3-1 .3-.2 .2-.3 .2-.3 .3-.2v-1.5-1.5l-.5,1-.5,1-.3.2-.2.3-.2.3-.3.2-.3.2-.2.3-2,.5q-2,.5-5,0t-4.2-1.8q-1.3-1.2-1.8-8.2t-1.8-9.8q-1.2-2.7-3.4-14.4l-2.3-11.8-.5-1-.5-1-.5-1-.5-1-.3-1-.2-1 1,.2 1,.3 .2.3 .3.2 .3.2 .2.3 .2.3 .3.2 .3.2 .2.3 .2.3 .3.2 .3.2 .2.3 .2.3 .3.2 .5,1 .5,1 1,3.5q1,3.5 1.5,9l.5,5.5v-6.5q0-6.5-1-10.5t-4.7-7q-3.8-3-4.8-4.8l-1-1.7-.2-.3-.3-.2-.3-.2-.2-.3-.2-.3-.3-.2-.3-3.5-.2-3.5 1,.2 1,.3 .2.3 .3.2 .7,1.2q.8,1.3 1,1.6l.3.2 .3.2 .2.3 .2.3 .3.2 .3.2 .2.3 .2.3 .3.2v-1-1l-.5-1-.5-1-.3-.2-.2-.3-.2-.3-.3-.2-.3-.2-.2-.3-.2-.3q-.3-.2-1-1-.8-.7-10.6-15.4l-9.7-14.8-.3-.2-.2-.3v-.3-.2h.2 .3l.3-1.5 .2-1.5h1q1,0 1-1t1.5-1 2-.8q.5-.7 29.3-.4 28.7.2 29,.4 .2.3 1.7.6zm-41,46.7q0-1.5 1.7,1.5 1.8,3 0,1.5-1.7-1.5-1.7-3z" fill="#ed8c07" fill-rule="evenodd" stroke="#ed8c07" stroke-width=".5"/>
 <path d="m899.5,112.2 .5-.2v96 96h-.2-.3l-.5-1.5-1.5-4.5-1-3-.5-1.5q-.5-1.5-1.5-11t-2.5-14.5-3-24-3-28-4-14-7.2-9.8q-4.8-4.7-19.8-9.2t-27.5-11-14.7-8.8q-2.3-2.2-3.8-8.7t.8-7q2.2-.5 5.7-4.3 3.5-3.7 3.3-6.4-.3-2.8.7-3.8t1.7-8.5l.8-7.5v-1-1l1.8.5q1.7.5 2-.5 .2-1 31.7-1.2 31.5-.3 36-.8t5-.5 1-.3z" fill="#dbbf42" fill-rule="evenodd" stroke="#dbbf42" stroke-width=".5"/>
 <path d="m734,112h1l.2,1 .3,1 .3.2 .2.3 .5.3 .5.2 1.2,2q1.3,2 .6,5.2-.8,3.3-1.8,6-1,2.8 0,2.8t.2,3.5q-.7,3.5 0,4.7 .8,1.3 3.6,2.6 2.7,1.2 2.4,3.2-.2,2 6.8,7.2 7,5.3 9.2,6 2.3.8 2.8,1.8t1,2.5l.5,1.5 .5,1 .5,1v2.5 2.5l-.3.2-.2.3-1,.5-1,.5-1.5.5q-1.5.5-19.5,5.5t-23.2,9.3q-5.3,4.2-8.8,11.2t-5.5,32.5l-2,25.5h-.3-.2l-.5-.2-.5-.3-.2-.3-.3-.2-.3.2-.2.3-.2.3-.3.2-.3.2-.2.3-.2.3-.3.2-.5-1-.5-1-.3.2-.2.3-.2.3-.3.2-.3-.2-.2-.3-.2-.3-.3-.2-.3-.2-.2-.3-.2-.3-.3-.2-.3.2-.2.3-.2.3-.3.2-.3-.2-.2-.3-.2-.3-.3-.2-.5-2q-.5-2-.8-2.2-.2-.3-1,1.4-.7,1.8-1.4-70.2l-.8-72h.2 .3l.5,1 .5,1 1.3-1.2q1.2-1.3 5.7-.8t20.7-.2q16.3-.8 16.6.7 .2,1.5 1.2,1.5z" fill="#dec243" fill-rule="evenodd" stroke="#dec243" stroke-width=".5"/>
 <path d="m65.8,102.2 .2.3 2,.3 2,.2h.2q.3,0 .3,1v1l-.5,1-.5,1-.3.2-.2.3-1,.5q-1,.5-1.5,1t-2-.5l-1.5-1-1-.3-1-.2 .2,1 .3,1 .5,1 .5,1 .3.2 .2.3 .2.3 .3.2 .3.2 .2.3 2.8,1.3q2.7,1.2 3,2.7 .2,1.5 1.7,1.5h1.5l.2,1 .3,1 .3,1.5 .2,1.5-3.5.2-3.5.3-.2.3-.3.2-.3.2-.2.3 .2.3 .3.2 .3.2 .2.3 1,.5 1,.5 2.8.3q2.7.2 2.4,3-.2,2.7 1.6,3.4 1.7.8 2,2.6 .2,1.7 1.7,1.7h3 1.5l-.2.3-.3.2-.3,1-.2,1h-2q-2,0-1.8,4 .3,4 .3,5v1l-.5,1-.5,1v1 1l.3.2 .2.3h.5 .5l3-2q3-2 5.5-2t2.7-.3l.3-.2 .3-.2 .2-.3h1 1l.2.3 .3.2 .3.2 .2.3v4.7q0,4.8 2.5,4.8t2.3,5l-.3,5-.3,2-.2,2-8,.2q-8,.3-10,1.8t-14,2-15.8,2.8l-3.7,2.2-.3.2-.2.3-.2.3-.3.2-.3.2-.2.3-1,.3-1,.2 .2-1 .3-1 .3-.2q.2-.3 1.4-1.6l1.3-1.2 .3-.2 .2-.3h-1.5-1.5-4q-4,0-3.5-.5t-16.5-1.2q-17-.8-17.2,1.2-.3,2-.8,0t-1-1l-.5,1-.5,2-.5,2h-.3-.2v-40-40h.2 .3l.5-1 .5-1 1.3-.8q1.2-.7 27.7-.2t30.3,2.2q3.7,1.8 4.2.8t.8-.8z" fill="#fdc4d7" fill-rule="evenodd" stroke="#fdc4d7" stroke-width=".5"/>
 <path d="m527,102.8v.2l-.2,1q-.3,1-2.8,8t-4,13.5-3,9l-1.5,2.5-.5,1.5-.5,1.5v1 1l.5,2 .5,2 .5-3 .5-3 1.5-3q1.5-3 .5,5t-2.5,14-1,12 1,7.5l.5,1.5 .5,1 .5,1 .5,1 .5,1v1 1l-.3-.2-.2-.3-.2-.3-.3-.2-.3-.2-.2-.3-.2-.3-.3-.2-.3-.2-.2-.3-.2-.3-.3-.2-.5,1-.5,1-.3-.2-.2-.3-.2-.3q-.3-.2-1.3-2.7l-1-2.5-.3-1-.2-1h-1-1l.2,2 .3,2 .5,1.5q.5,1.5 1,2.5l.5,1 .3.2 .2.3 .2.3 .3.2 .3.2 .2.3 .2.3 .3.2 .3.2 .2.3h-2-2l-1-.5-1-.5-.2-.3-.3-.2-.3-.2q-.2-.3-1.4-3l-1.3-2.8-.3-1.5-.2-1.5h-1-1l-.2,1.5-.3,1.5v2 2l2.7,3.2q2.8,3.3 3,3.6l.3.2 .3.2 .2.3 .2.3 .3.2 .3,1 .2,1-8,2.2q-8,2.3-11.2,7-3.3,4.8-4.8,9.8t-1,13 2,15 1.8,28.5l.2,21.5h-.2-.3l-.5-1.5q-.5-1.5-.8-1.7-.2-.3-.7.4-.5.8-9,.6-8.5-.3-11.5-.8t-3.8-1.8q-.7-1.2-1.2-.2t-1.5-10-1.3-92l-.2-81h.2 .3l.3-1 .2-1 27.5-.2q27.5-.3 33,.4 5.5.8 5.5,1.8t1.5,1.2q1.5.3 1.5.6z" fill="#e6880a" fill-rule="evenodd" stroke="#e6880a" stroke-width=".5"/>
 <path d="m669.8,25h.2v40 40l-1.5-.2q-1.5-.3-1.7-.6-.3-.2-29-.4-28.8-.3-29.3.4-.5.8-2,.8t-1.5,1-1,1h-1l-.2,1.5-.3,1.5h-.3-.2l-.2-.5-.3-.5-.5-1.5q-.5-1.5-2-4.5t-7.2-11.2q-5.8-8.3-11.8-11.3t-18-2-16.8,3.7q-4.7,2.8-11.4,11.8l-6.8,9v-.2q0-.3-1.5-.6-1.5-.2-1.5-1.2t-5.5-1.8q-5.5-.7-33-.4l-27.5.2-.2,1-.3,1h-.3-.2v-35.5-35.5l1.2-.5q1.3-.5 1.8-1.5l.5-1 .7,1.2q.8,1.3 102.8,1 102-.2 102-1.2t1.2-.5q1.3.5 1.8-1t.8-1.5z" fill="#a44709" fill-rule="evenodd" stroke="#a44709" stroke-width=".5"/>
 <path d="m212,87.2 1-.2-.8,31.5q-.7,31.5-2.2,39t-2,5.5-3.2,6.8q-2.8,8.7-15.3,9.7t-22,1.5l-9.5.5-.2.3-.3.2-.3.2-.2.3-1,.5-1,.5-.2.3-.3.2-.3.2-.2.3 1,.3q1,.2 1,1.2v1l-1-.2q-1-.3-7.8-4-6.7-3.8-8.7-7.8t-1.3-13.5q.8-9.5 6.8-11t6.5-3.5 1.7-1.5q1.3.5 2.3.5t1.5-2.5-1-5l-1.5-2.5-.3-.2-.2-.3 .2-.3 .3-.2 .3-.2 .2-.3 .2-.3 .3-.2 .3-.2 .2-.3 .2-.3 .3-.2 .3-.2 .2-.3 .2-.3 .3-.2 .3-.2 .2-.3 .2-.3 .3-.2 .3,2q.2,2 1.2,1.8l2-.6 1-.2 .2,2 .3,2 .3-.2 .2-.3 .2-.3 .3-.2v-3q0-3-1.3-3.2-1.2-.3-1.7-1.6l-.5-1.2-1-.2-1-.3 .2-.3 .3-.2 .3-.2 .2-.3 2.8.3q2.7.2 3,.4l.2.3 .2.3 .3.2 .5-1 .5-1v-.5-.5l-.3-.2-.2-.3-.2-.3-.3-.2-.3-1-.2-1-1,.2-2,.6q-1,.2-.5-2.3t-1-2.5h-1.5l-.2-1-.3-1v-1-1l.3-.2 .2-.3 .2-.3 .3-.2 .3-.2 .2-.3 3-1q3-1 5-1.5l2-.5 .2-.3 .3-.2 .3-.2 .2-.3 .2-.3 .3-.2v-2-2l-.3.2-.2.3-.2.3-.3.2-.3.2-.2.3h-1-1l-1-.5q-1-.5-2.5-.2l-1.5.2 .2-1q.3-1 0-4.2l-.2-3.3-.2-.3-.3-.2-.3.2q-.2.3-.7,1.6-.5,1.2-1.5,1l-1-.3-1.5-.5-1.5-.5 1-.5 1-.5 1-.5 1-.5v-.3-.2h.2 .3l.3-1.5 .2-1.5h1q1,0 1-1t2-.5 2-.5 22-1.8q22-.7 23-1z" fill="#fdc2d7" fill-rule="evenodd" stroke="#fdc2d7" stroke-width=".5"/>
</svg>
